<svg id="iconfinder_38-instagram_1161954" xmlns="http://www.w3.org/2000/svg" width="56.501" height="56.5" viewBox="0 0 56.501 56.5">
  <defs>
    <style>
      .cls-1 {
        fill: #2d3092;
      }
    </style>
  </defs>
  <circle id="Elipse_118" data-name="Elipse 118" class="cls-1" cx="5.053" cy="5.053" r="5.053" transform="translate(22.968 23.427)"/>
  <path id="Caminho_3438" data-name="Caminho 3438" class="cls-1" d="M36.019,19.2H23.386a6.276,6.276,0,0,0-4.479,1.608A6.276,6.276,0,0,0,17.3,25.286V37.919a6.33,6.33,0,0,0,1.723,4.594A6.474,6.474,0,0,0,23.5,44.12H36.019A6.276,6.276,0,0,0,40.5,42.512a5.883,5.883,0,0,0,1.723-4.479V25.4a6.474,6.474,0,0,0-1.608-4.479A6.149,6.149,0,0,0,36.019,19.2ZM29.7,39.412a7.809,7.809,0,1,1,0-15.618,7.81,7.81,0,1,1,0,15.618Zm8.154-14.125a1.837,1.837,0,1,1,1.837-1.837A1.814,1.814,0,0,1,37.856,25.286Z" transform="translate(-1.682 -3.123)"/>
  <path id="Caminho_3439" data-name="Caminho 3439" class="cls-1" d="M31.95,5.2A28.25,28.25,0,1,0,60.2,33.45,28.23,28.23,0,0,0,31.95,5.2ZM46.994,40.111a9.1,9.1,0,0,1-2.526,6.546,8.937,8.937,0,0,1-6.431,2.412H25.519a8.937,8.937,0,0,1-6.431-2.412,8.652,8.652,0,0,1-2.526-6.546V27.479c0-5.283,3.56-8.957,8.957-8.957H38.152a8.469,8.469,0,0,1,8.843,8.957V40.111Z" transform="translate(-3.7 -5.2)"/>
</svg>
