<?xml version="1.0" encoding="iso-8859-1"?>
<!-- Generator: Adobe Illustrator 19.0.0, SVG Export Plug-In . SVG Version: 6.00 Build 0)  -->
<svg version="1.1" id="Layer_1" xmlns="http://www.w3.org/2000/svg" xmlns:xlink="http://www.w3.org/1999/xlink" x="0px" y="0px"
	 viewBox="0 0 490.279 490.279" style="enable-background:new 0 0 490.279 490.279;" xml:space="preserve">
<g>
	<path d="M438.037,432.067c-15.989-10.772-34.112-22.982-69.005-22.982c-34.895,0-53.018,12.209-69.007,22.981
		c-14.227,9.585-26.514,17.862-52.246,17.862c-25.731,0-38.018-8.277-52.245-17.862c-15.895-10.709-33.906-22.832-68.398-22.975
		V250.791c23.946,6.592,41.592,28.547,41.592,54.559h30c0-28.366-13.71-53.59-34.852-69.394
		c14.009,2.427,27.128,10.074,36.125,22.457l24.271-17.634c-16.673-22.948-42.59-35.296-68.983-35.655
		c12.76-6.271,27.868-7.796,42.424-3.066l9.271-28.531c-22.013-7.154-45.479-5.311-66.078,5.185
		c-11.382,5.799-21.13,13.869-28.791,23.635c-21.817-27.68-59.396-40.329-94.824-28.82l9.271,28.532
		c14.556-4.729,29.664-3.205,42.424,3.066C42.59,205.484,16.672,217.831,0,240.78l24.271,17.634
		c8.997-12.385,22.116-20.032,36.126-22.458c-21.143,15.804-34.854,41.028-34.854,69.395h30c0-26.012,17.646-47.967,41.592-54.559
		V412.54c-17.135,4.394-28.861,12.283-39.614,19.527c-14.226,9.584-26.512,17.862-52.242,17.862v30
		c34.893,0,53.016-12.209,69.005-22.982c14.226-9.584,26.512-17.862,52.242-17.862c25.731,0,38.018,8.277,52.245,17.862
		c15.989,10.772,34.112,22.981,69.006,22.981c34.895,0,53.018-12.209,69.008-22.981c14.227-9.585,26.514-17.862,52.246-17.862
		c25.73,0,38.017,8.277,52.243,17.862c15.989,10.772,34.112,22.982,69.005,22.982v-30
		C464.549,449.929,452.263,441.652,438.037,432.067z"/>
	<path d="M279.446,187.471l-25.662,25.661l21.213,21.213l25.662-25.661c10.842,7.728,23.465,13.109,37.12,15.41v36.257h30v-36.257
		c13.655-2.301,26.278-7.682,37.12-15.41l25.662,25.662l21.213-21.213l-25.662-25.662c7.728-10.842,13.109-23.465,15.41-37.12
		h36.257v-30h-36.257c-2.301-13.655-7.682-26.278-15.41-37.12l25.662-25.662l-21.213-21.213l-25.662,25.662
		c-10.842-7.728-23.465-13.109-37.12-15.41V10.35h-30v36.257c-13.655,2.301-26.278,7.682-37.12,15.41l-25.662-25.661l-21.213,21.213
		l25.662,25.661c-7.728,10.842-13.109,23.465-15.41,37.12h-36.257v30h36.257C266.337,164.005,271.718,176.628,279.446,187.471z
		 M352.779,75.35c33.084,0,60,26.916,60,60s-26.916,60-60,60s-60-26.916-60-60S319.695,75.35,352.779,75.35z"/>
</g>
<g>
</g>
<g>
</g>
<g>
</g>
<g>
</g>
<g>
</g>
<g>
</g>
<g>
</g>
<g>
</g>
<g>
</g>
<g>
</g>
<g>
</g>
<g>
</g>
<g>
</g>
<g>
</g>
<g>
</g>
</svg>
