<svg xmlns="http://www.w3.org/2000/svg" width="56.501" height="56.5" viewBox="0 0 56.501 56.5">
  <defs>
    <style>
      .cls-1 {
        fill: #2d3092;
      }
    </style>
  </defs>
  <path id="iconfinder_43-twitter_104461" class="cls-1" d="M31.974,5.157A28.25,28.25,0,1,0,60.224,33.408,28.253,28.253,0,0,0,31.974,5.157ZM46.205,27.712c.015.305.021.611.021.921,0,9.409-7.161,20.256-20.256,20.256a20.159,20.159,0,0,1-10.914-3.2,14.56,14.56,0,0,0,1.7.1A14.284,14.284,0,0,0,25.6,42.744a7.13,7.13,0,0,1-6.65-4.946,6.953,6.953,0,0,0,1.339.127,7.075,7.075,0,0,0,1.876-.249,7.125,7.125,0,0,1-5.712-6.98c0-.031,0-.061,0-.092a7.1,7.1,0,0,0,3.225.891,7.129,7.129,0,0,1-2.2-9.506,20.212,20.212,0,0,0,14.676,7.438,7.124,7.124,0,0,1,12.131-6.494A14.221,14.221,0,0,0,48.8,21.206a7.14,7.14,0,0,1-3.132,3.939,14.234,14.234,0,0,0,4.09-1.121A14.384,14.384,0,0,1,46.205,27.712Z" transform="translate(-3.723 -5.157)"/>
</svg>
