<svg id="iconfinder_58-youtube_104445" xmlns="http://www.w3.org/2000/svg" width="56.501" height="56.5" viewBox="0 0 56.501 56.5">
  <defs>
    <style>
      .cls-1 {
        fill: #2d3092;
      }
    </style>
  </defs>
  <path id="Caminho_3440" data-name="Caminho 3440" class="cls-1" d="M17.833,32.075h2.045V42.236h1.977V32.075H23.9v-1.73H17.833Z" transform="translate(-1.645 -1.447)"/>
  <path id="Caminho_3441" data-name="Caminho 3441" class="cls-1" d="M28.517,25.366a.9.9,0,0,0,.639-.217.808.808,0,0,0,.237-.611V19.272a.619.619,0,0,0-.242-.511.969.969,0,0,0-.634-.2.864.864,0,0,0-.587.2.638.638,0,0,0-.224.511v5.266a.835.835,0,0,0,.211.611A.792.792,0,0,0,28.517,25.366Z" transform="translate(-0.191 -3.181)"/>
  <path id="Caminho_3442" data-name="Caminho 3442" class="cls-1" d="M32.64,33.356a1.733,1.733,0,0,0-.809.209,2.706,2.706,0,0,0-.75.611V30.345H29.308V42.236H31.08v-.672a2.26,2.26,0,0,0,.748.6,2.108,2.108,0,0,0,.919.19,1.452,1.452,0,0,0,1.19-.5,2.189,2.189,0,0,0,.414-1.429V35.557a2.59,2.59,0,0,0-.442-1.638A1.514,1.514,0,0,0,32.64,33.356Zm-.1,6.827a.95.95,0,0,1-.153.6.57.57,0,0,1-.473.186,1.025,1.025,0,0,1-.423-.094,1.43,1.43,0,0,1-.414-.31V35.1a1.23,1.23,0,0,1,.36-.268.818.818,0,0,1,.372-.087.683.683,0,0,1,.547.226,1.067,1.067,0,0,1,.184.677Z" transform="translate(0.045 -1.447)"/>
  <path id="Caminho_3443" data-name="Caminho 3443" class="cls-1" d="M27.046,39.729a2.475,2.475,0,0,1-.543.468,1,1,0,0,1-.489.184.432.432,0,0,1-.36-.139.739.739,0,0,1-.11-.449V33.063H23.792V40.4a1.9,1.9,0,0,0,.307,1.176,1.1,1.1,0,0,0,.917.39,2.143,2.143,0,0,0,1.02-.278,3.924,3.924,0,0,0,1.011-.813v.961H28.8V33.064H27.047v6.665Z" transform="translate(-0.767 -1.046)"/>
  <path id="Caminho_3444" data-name="Caminho 3444" class="cls-1" d="M31.972,5.155a28.25,28.25,0,1,0,28.25,28.25A28.25,28.25,0,0,0,31.972,5.155Zm4.564,13.952h1.972v7.41a.781.781,0,0,0,.127.5.481.481,0,0,0,.4.157,1.165,1.165,0,0,0,.551-.2,2.7,2.7,0,0,0,.607-.524V19.107h1.977v9.664H40.194V27.7a4.144,4.144,0,0,1-1.136.9,2.477,2.477,0,0,1-1.145.31,1.246,1.246,0,0,1-1.032-.435,2.043,2.043,0,0,1-.345-1.3V19.107Zm-7.331,2.21a2.224,2.224,0,0,1,.8-1.791,3.27,3.27,0,0,1,2.144-.663,2.911,2.911,0,0,1,2.01.7,2.322,2.322,0,0,1,.78,1.81v4.99a2.511,2.511,0,0,1-.764,1.945,3.025,3.025,0,0,1-2.115.7,2.926,2.926,0,0,1-2.073-.724,2.573,2.573,0,0,1-.778-1.963V21.317Zm-5.378-5.644,1.443,5.234h.141l1.373-5.234h2.259l-2.586,7.666v5.434H24.234V23.58l-2.647-7.908ZM49.684,43.244a6.333,6.333,0,0,1-6.33,6.333h-22a6.334,6.334,0,0,1-6.333-6.333V38.152a6.332,6.332,0,0,1,6.333-6.333h22a6.332,6.332,0,0,1,6.33,6.333Z" transform="translate(-3.722 -5.155)"/>
  <path id="Caminho_3445" data-name="Caminho 3445" class="cls-1" d="M37.169,32.874a2.637,2.637,0,0,0-1.92.719,2.469,2.469,0,0,0-.746,1.855v3.944a2.79,2.79,0,0,0,.679,1.989,2.418,2.418,0,0,0,1.855.724A2.615,2.615,0,0,0,39,41.427a2.8,2.8,0,0,0,.661-2.034v-.451h-1.8v.4a1.882,1.882,0,0,1-.174,1,.721.721,0,0,1-.609.226.658.658,0,0,1-.594-.264,1.926,1.926,0,0,1-.17-.964V37.69h3.352V35.45a2.636,2.636,0,0,0-.645-1.911A2.474,2.474,0,0,0,37.169,32.874Zm.693,3.451H36.313v-.887a1.294,1.294,0,0,1,.179-.787.7.7,0,0,1,.6-.242.676.676,0,0,1,.583.242,1.3,1.3,0,0,1,.184.787v.887Z" transform="translate(0.81 -1.074)"/>
</svg>
