<?xml version="1.0" encoding="UTF-8" standalone="no"?><!DOCTYPE svg PUBLIC "-//W3C//DTD SVG 1.1//EN" "http://www.w3.org/Graphics/SVG/1.1/DTD/svg11.dtd"><svg width="100%" height="100%" viewBox="0 0 3334 2500" version="1.1" xmlns="http://www.w3.org/2000/svg" xmlns:xlink="http://www.w3.org/1999/xlink" xml:space="preserve" xmlns:serif="http://www.serif.com/" style="fill-rule:evenodd;clip-rule:evenodd;stroke-linejoin:round;stroke-miterlimit:2;"><g id="Family"><path d="M2659.04,1704.3c2.435,-11.448 1.39,-23.47 -2.975,-34.198c-35.864,-88.42 -73.405,-220.174 -105.395,-337.397c-30.862,-113.101 -98.409,-143.823 -135.44,-156.431c5.72,-17.357 8.639,-35.687 8.625,-54.157c0,-4.586 -0.242,-9.105 -0.592,-13.593l29.592,0c11.986,0.221 22.314,-9.679 23.798,-22.81c0.074,-0.824 0.11,-1.652 0.11,-2.481c0,-13.881 -10.345,-25.304 -22.919,-25.306l-29.989,-0l0,-77.756c0,-64.878 -48.36,-118.265 -107.129,-118.265l-71.281,0c-58.769,0.001 -107.128,53.387 -107.128,118.265l0,77.756l-29.004,-0c-11.985,-0.221 -22.313,9.679 -23.798,22.81c-0.073,0.825 -0.11,1.653 -0.11,2.481c0,13.881 10.345,25.304 22.919,25.306l28.429,0c-0.35,4.488 -0.593,9.007 -0.593,13.593c-0.001,17.07 2.503,34.028 7.413,50.214c-34.815,10.917 -89.94,39.055 -119.278,110.617c-8.265,20.525 -13.495,42.38 -15.49,64.734l-1.671,17.546c-27.237,-39.347 -64.048,-69.354 -106.128,-86.51c27.018,-43.219 32.857,-98.561 15.56,-147.478c29.651,-19.636 47.85,-55.116 47.85,-93.287c0,-59.677 -44.483,-108.785 -98.542,-108.785c-51.634,0 -94.96,44.803 -98.331,101.684c-72.856,8.367 -128.853,76.948 -128.853,157.811c0,30.389 7.909,60.147 22.781,85.719c-36.898,12.055 -121.191,49.982 -146.177,149.565c-8.134,32.424 -16.713,61.836 -26.339,89.911c-34.439,-55.226 -87.06,-71.717 -110.331,-76.426c-0.179,-0.036 -0.358,-0.067 -0.537,-0.099l-5.341,-0.935c17.447,-25.184 26.904,-56.023 26.904,-87.727c0,-79.222 -59.051,-144.412 -130.814,-144.412c-39.108,0 -76.225,19.361 -101.058,52.715c-37.647,-50.338 -88.958,-66.248 -112.673,-71.048c-0.179,-0.036 -0.358,-0.067 -0.537,-0.099l-10.608,-1.857c21.008,-28.287 32.483,-63.766 32.454,-100.344c0,-5.275 -0.316,-10.463 -0.776,-15.606c30.48,-17.902 49.598,-53.035 49.598,-91.149c-0,-56.639 -42.218,-103.245 -93.524,-103.245c-6.885,-0 -13.749,0.839 -20.467,2.502c-3.523,0.772 -7.161,-0.645 -9.465,-3.688c-17.746,-22.326 -43.385,-35.144 -70.291,-35.144c-26.906,-0 -52.545,12.818 -70.292,35.144c-2.305,3.047 -5.947,4.463 -9.473,3.684c-6.715,-1.661 -13.575,-2.499 -20.457,-2.499c-48.907,0 -89.987,42.325 -93.358,96.188c-2.615,41.48 17.751,80.82 51.453,99.387c-0.396,4.756 -0.643,9.558 -0.643,14.426c-0.031,36.77 11.561,72.425 32.767,100.781l-8.105,1.419c-0.179,0.032 -0.358,0.063 -0.537,0.099c-29.625,5.992 -102.352,29.234 -137.666,115.385c-8.279,20.574 -13.515,42.482 -15.508,64.887l-29.02,322.982c-0.136,1.598 -0.204,3.201 -0.204,4.806c-0,28.082 20.932,51.191 46.371,51.191c0.197,-0 0.394,-0.002 0.592,-0.004l79.833,-0l-28.49,429.302c-1.595,23.991 13.502,45.743 34.9,50.285c2.891,0.613 5.831,0.906 8.775,0.874l98.771,0c22.697,-0.031 41.705,-19.785 43.103,-44.794l19.503,-356.945c0.016,-0.378 0.618,-0.36 0.639,-0l19.47,356.949c1.399,25.007 20.408,44.758 43.103,44.789l215.539,0c21.45,0.009 39.465,-18.568 40.917,-42.193l2.592,-213.522c0,-7.67 5.718,-13.982 12.666,-13.982c6.949,0 12.667,6.312 12.667,13.984c0,-0 0,0 0,0.001l2.556,213.175c1.329,23.749 19.381,42.509 40.935,42.539l88.07,0c4.896,0.073 9.766,-0.792 14.395,-2.553c17.433,-6.802 28.658,-25.803 27.267,-46.158l-17.692,-234.819l61.868,0c5.348,0.08 10.665,-0.89 15.705,-2.863c18.786,-7.525 30.674,-28.288 28.77,-50.25l-11.066,-123.182c8.87,-2.444 16.902,-7.699 23.103,-15.117c38.142,-112.077 58.43,-244.591 58.648,-246.029c1.333,-8.836 8.327,-15.377 16.441,-15.377c9.144,-0 16.668,8.306 16.668,18.4c-0,1.013 -0.076,2.024 -0.227,3.023c-0.935,6.187 -22.115,144.525 -63.24,261.397l-10.948,156.006c-0.736,10.631 4.67,20.691 13.474,25.074c3.088,1.496 6.431,2.239 9.802,2.179l45.304,-0l8.032,226.493c0.763,23.429 18.464,42.225 39.701,42.157l176.197,-0c21.232,0.063 38.931,-18.724 39.705,-42.149l8.032,-226.503l46.512,0c3.461,0.065 6.893,-0.704 10.056,-2.254c8.963,-4.523 14.334,-14.934 13.285,-25.751l-9.433,-96.634c-19.185,-8 -37.311,-18.807 -53.892,-32.129c-21.581,-17.541 -29.45,-49.438 -18.907,-76.638c39.899,-103.921 16.292,-208.625 16.049,-209.671c-0.354,-1.507 -0.533,-3.057 -0.533,-4.614c0,-10.093 7.524,-18.399 16.667,-18.399c7.571,-0 14.237,5.695 16.135,13.786c1.115,4.743 26.821,117.483 -17.627,233.259c-4.508,11.586 -1.17,25.186 8.02,32.675c23.341,18.288 49.727,31.307 77.639,38.307c0.245,0.067 0.458,0.197 0.697,0.276l77.768,0l-22.369,365.999c-0.066,1.069 -0.098,2.14 -0.098,3.211c-0,26.147 19.49,47.663 43.175,47.663c0.002,-0 0.004,-0 0.006,-0l99.508,-0c22.696,-0.03 41.706,-19.782 43.107,-44.789l2.655,-336.591c0.092,-10.306 7.799,-18.73 17.135,-18.73c9.337,-0 17.043,8.424 17.135,18.73l2.687,336.593c1.399,25.007 20.407,44.758 43.103,44.789l99.383,0c23.688,0 43.181,-21.518 43.181,-47.669c-0,-1.164 -0.039,-2.328 -0.116,-3.489l-36.247,-544.993c2.756,8.199 4.397,12.989 4.452,13.147c16.025,48.64 31.84,87.919 42.477,112.715c5.311,12.838 14.85,22.979 26.672,28.352c5.73,2.505 11.837,3.797 18,3.808c4.605,-0.031 9.182,-0.792 13.591,-2.259l-0,413.98c-0.2,13.231 8.767,24.633 20.662,26.271c0.747,0.081 1.497,0.122 2.248,0.122c12.573,0 22.921,-11.421 22.923,-25.301l-0,-416.741c-0.122,-8.377 2.505,-16.526 7.393,-22.935c5.766,-7.468 14.275,-11.696 23.161,-11.509c16.453,0.243 29.883,15.219 29.936,33.384l-0,26.845c-0.2,13.231 8.768,24.632 20.662,26.271c0.747,0.081 1.497,0.122 2.248,0.122c12.574,-0 22.921,-11.421 22.923,-25.302l0,-27.936c-0.096,-33.391 -18.153,-63.705 -45.886,-77.034Zm-1472.08,-345.489c0,-12.102 9.021,-22.06 19.983,-22.06l123.684,-0c10.962,-0 19.982,9.958 19.982,22.06l0,0.263c0.102,14.711 -3.721,29.135 -10.991,41.465c-15.682,26.267 -42.341,42.117 -70.838,42.117c-29.751,0 -57.407,-17.275 -72.728,-45.429c-6.103,-11.5 -9.247,-24.626 -9.092,-37.953l0,-0.463Zm-352.264,-278.744c26.313,-1.041 51.036,-14.324 68.013,-36.541c2.098,-2.307 5.178,-3.175 8.02,-2.26c13.666,3.411 27.851,3.412 41.517,0.005c2.847,-0.92 5.933,-0.052 8.036,2.259c17.464,22.856 43.102,36.227 70.186,36.603c0.035,1.166 0.118,2.318 0.118,3.492c0,59.358 -44.245,108.203 -98.014,108.203c-53.769,-0 -98.014,-48.845 -98.014,-108.203c-0.001,-1.199 0.101,-2.369 0.138,-3.558Zm151.815,150.732c-0.172,35.603 -26.755,64.794 -59.007,64.794c-32.37,0 -59.007,-29.406 -59.007,-65.141c0,-0 0,-0.001 0,-0.002c-0.005,-1.009 -0.064,-2.017 -0.178,-3.019l1.155,-0.201c0.41,-0.073 0.803,-0.184 1.204,-0.282c36.387,19.192 78.467,20.59 115.834,3.851l-0.001,-0Zm96.593,944.237l-83.583,-0l-19.32,-354.197c-1.469,-26.741 -21.803,-47.87 -46.071,-47.87c-24.271,0 -44.607,21.134 -46.072,47.879l-19.352,354.188l-94.033,-0l37.986,-572.381l209.867,-0l-25.738,286.493c-0.126,1.492 -0.189,2.989 -0.189,4.486c0,26.59 19.82,48.47 43.907,48.47l63.045,0l-20.447,232.932Zm350.018,-283.531l-17.505,-232.347c-0.984,-13.045 -10.983,-23.203 -22.84,-23.203c-12.572,0 -22.918,11.421 -22.918,25.301c-0,0.7 0.026,1.4 0.079,2.098l6.176,81.983l-209.241,-0l7.166,-81.642c0.072,-0.81 0.107,-1.624 0.107,-2.438c0,-13.879 -10.345,-25.3 -22.917,-25.3c-11.741,0 -21.68,9.961 -22.811,22.862l-20.426,232.689l-65.359,-0l25.659,-285.577c1.301,-14.868 4.75,-29.41 10.214,-43.074c22.172,-54.083 66.381,-70.578 90.95,-75.604l41.594,-7.286l3.009,-0c34.699,17.706 74.753,17.706 109.452,-0l5.518,-0l41.594,7.286c24.569,5.026 68.778,21.521 90.95,75.604c5.449,13.614 8.893,28.103 10.201,42.916l25.672,285.734l-64.324,-0.002Zm321.028,281.912l-59.315,0l-7.731,-218.054l67.045,0l0.001,218.054Zm105.151,0l-59.319,0l-0,-218.052l67.047,-0l-7.728,218.052Zm13.988,-952.186c-12.221,40.608 -36.753,75.759 -90.745,75.759c-53.806,-0 -78.357,-34.907 -90.622,-75.335c-0.449,-1.431 -0.678,-2.935 -0.678,-4.449c0,-7.447 5.534,-13.583 12.279,-13.616l158.042,0c0.018,0 0.037,0 0.055,0c6.721,0 12.25,6.105 12.25,13.524c0,1.398 -0.196,2.787 -0.582,4.119l0.001,-0.002Zm-186.027,-57.744c10.548,-48.46 50.133,-82.903 95.28,-82.903c45.146,-0 84.732,34.443 95.28,82.903l-190.56,0Zm206.022,-75.928c-20.461,-27.283 -48.606,-46.25 -79.94,-53.87c1.97,-30.262 25.074,-54 52.557,-54c28.907,0 52.694,26.259 52.694,58.171c-0,20.285 -9.612,39.158 -25.311,49.699Zm288.714,34.419c0.125,-7.469 5.758,-13.521 12.525,-13.455l170.979,0c6.767,-0.066 12.401,5.986 12.525,13.455l-0,0.138c-0.111,59.274 -44.322,107.98 -98.014,107.98c-53.693,-0 -97.904,-48.706 -98.015,-107.98l0,-0.138Zm430.9,572.968l-72.436,40.396c-0.701,0.406 -1.525,0.47 -2.271,0.175c-0.741,-0.267 -1.348,-0.865 -1.672,-1.648c-10.213,-23.718 -25.688,-62.005 -41.516,-110.036c-0.371,-1.076 -37.133,-108.382 -61.264,-196.666l-0.005,-0.021c-0.036,-0.129 -0.074,-0.26 -0.108,-0.389c-0.063,-0.23 -0.151,-0.449 -0.22,-0.679c-0.157,-0.52 -0.313,-1.041 -0.5,-1.545c-0.141,-0.384 -0.304,-0.748 -0.458,-1.12c-0.152,-0.358 -0.295,-0.721 -0.461,-1.07c-0.242,-0.512 -0.51,-1.003 -0.781,-1.492c-0.101,-0.18 -0.194,-0.368 -0.299,-0.544c-0.36,-0.616 -0.747,-1.205 -1.151,-1.777l-0.083,-0.123c-4.642,-6.496 -11.887,-10.082 -19.369,-9.588c-0.098,0.006 -0.195,0 -0.291,0.006l-0.086,0.011c-0.532,0.046 -1.066,0.132 -1.6,0.221c-0.263,0.042 -0.528,0.071 -0.788,0.124c-0.329,0.069 -0.657,0.165 -0.987,0.249c-0.458,0.117 -0.92,0.23 -1.367,0.376l-0.108,0.03c-0.161,0.054 -0.31,0.128 -0.469,0.184c-0.542,0.194 -1.079,0.394 -1.6,0.629c-0.236,0.107 -0.459,0.23 -0.691,0.345c-0.448,0.223 -0.897,0.445 -1.33,0.698c-0.297,0.173 -0.579,0.368 -0.867,0.552c-0.345,0.223 -0.691,0.441 -1.023,0.684c-0.333,0.243 -0.645,0.498 -0.962,0.755c-0.273,0.222 -0.548,0.438 -0.812,0.673c-0.328,0.292 -0.641,0.603 -0.952,0.914c-0.233,0.23 -0.469,0.46 -0.692,0.7c-0.299,0.322 -0.579,0.66 -0.861,0.999c-0.221,0.265 -0.444,0.527 -0.653,0.803c-0.247,0.322 -0.477,0.662 -0.708,1c-0.22,0.318 -0.441,0.634 -0.646,0.966c-0.194,0.311 -0.372,0.632 -0.552,0.952c-0.214,0.378 -0.428,0.758 -0.625,1.15c-0.146,0.294 -0.277,0.598 -0.413,0.896c-0.197,0.432 -0.392,0.864 -0.566,1.308c-0.114,0.292 -0.213,0.591 -0.316,0.889c-0.163,0.46 -0.323,0.92 -0.459,1.393c-0.093,0.319 -0.168,0.644 -0.25,0.966c-0.115,0.455 -0.23,0.908 -0.321,1.372c-0.077,0.387 -0.132,0.782 -0.192,1.172c-0.062,0.405 -0.13,0.809 -0.173,1.221c-0.052,0.482 -0.077,0.969 -0.104,1.455c-0.018,0.336 -0.047,0.667 -0.053,1.005c-0.01,0.548 0.012,1.1 0.035,1.652c0.01,0.247 -0,0.489 0.015,0.736l7.76,116.683c-0.662,-0.064 -1.33,-0.112 -2.008,-0.112l-237.726,-0l7.133,-116.72c0.045,-0.644 0.067,-1.291 0.067,-1.937c0,-13.879 -10.345,-25.299 -22.917,-25.299c-12.071,-0 -22.178,10.529 -22.878,23.833l-19.839,324.621l-63.12,-0c33.722,-137.896 30.726,-237.358 10.036,-309.019l9.042,-94.976c1.485,-16.973 5.424,-33.574 11.667,-49.171c24.755,-60.388 74.913,-79.569 99.625,-85.471c27.14,39.4 69.484,62.579 114.321,62.579c43.565,0 84.845,-21.883 112.084,-59.416l0.482,0.132c30.591,9.734 87.528,27.854 114.217,125.666c32.414,118.763 70.528,252.444 107.454,343.483c0.631,1.551 0.036,3.401 -1.34,4.166l0.001,-0.001Z" style="fill-rule:nonzero;"/><path d="M1756.24,416.296c-40.917,-1.363 -76.191,18.084 -92.015,50.676c-0.484,0.898 -1.426,1.46 -2.446,1.46c-1.022,0 -1.965,-0.564 -2.449,-1.464c-15.812,-32.56 -51.042,-51.905 -91.974,-50.672c-51.855,1.648 -94.042,46.098 -94.042,99.089l0,3.813c0.14,53.937 25.444,104.831 68.364,137.5l98.698,74.719c14.102,10.652 33.745,10.522 47.705,-0.317l95.627,-74.427c42.087,-32.542 66.704,-82.896 66.537,-136.096l0,-5.159c-0.001,-52.971 -42.17,-97.437 -94.005,-99.122Z" style="fill-rule:nonzero;"/><path d="M1661.78,916.667c194.378,-0.027 354.311,-159.982 354.311,-354.359c-0,-70.12 -20.813,-138.686 -59.79,-196.975c-4.637,-6.919 -12.438,-11.082 -20.768,-11.082c-13.715,-0 -25,11.285 -25,25c-0,4.956 1.473,9.801 4.232,13.918c33.404,49.993 51.239,108.788 51.239,168.914c0,166.79 -137.247,304.038 -304.038,304.038c-166.79,-0 -304.038,-137.248 -304.038,-304.038c0,-166.79 137.248,-304.038 304.038,-304.038c53.207,0 105.493,13.967 151.613,40.499c3.846,2.268 8.231,3.464 12.697,3.464c13.714,0 25,-11.285 25,-25c-0,-9.009 -4.871,-17.348 -12.718,-21.774c-53.763,-30.944 -114.721,-47.234 -176.754,-47.234c-194.381,0 -354.333,159.952 -354.333,354.333c0,194.373 159.937,354.321 354.309,354.334Z" style="fill-rule:nonzero;"/></g><g id="iconfinder_Family_7195769.svg"></g></svg>