<?xml version="1.0" ?><svg viewBox="0 0 512 512" xmlns="http://www.w3.org/2000/svg"><g id="Elder_finance_planning"><path d="M176.779,219.69a6,6,0,0,0,6-6V196.54a6,6,0,0,0-12,0V213.69A6,6,0,0,0,176.779,219.69Z"/><path d="M176.779,259.0225a6,6,0,0,0,6-6V235.8711a6,6,0,0,0-12,0v17.1514A6,6,0,0,0,176.779,259.0225Z"/><path d="M327.6227,364.1865h-32.957a15.9007,15.9007,0,0,1-13.5425-7.4892l-25.325-40.3534a145.2905,145.2905,0,0,0,20.8094-16.5627,143.6335,143.6335,0,0,0,44.289-96.1674c.1368-3.5863.23-10.811.23-11.3838V155.4561c0-.2007-.01-.399-.03-.5947A143.4051,143.4051,0,0,0,303.12,87.4609h95.66A16.0067,16.0067,0,0,1,414.7692,103.45v26.7886a6,6,0,1,0,12,0V103.45A28.02,28.02,0,0,0,398.78,75.4609H295.68A144.293,144.293,0,0,0,176.779,12.86c-77.5882,0-141.064,61.535-144.2137,138.3638a5.99,5.99,0,0,0-.1335,1.2455v40.811c0,.5718.0582,5.1475.2295,10.3311A144.41,144.41,0,0,0,245.4982,322.506l25.4609,40.57a27.8345,27.8345,0,0,0,23.7066,13.11h32.957a6,6,0,0,0,0-12ZM308.9845,151.208H182.779V25.0024A132.52,132.52,0,0,1,308.9845,151.208ZM170.779,25.0024V174.3589a6,6,0,0,0,12,0V163.208H308.9845A132.5191,132.5191,0,0,1,182.779,289.4131V275.3076a6,6,0,0,0-12,0v14.1055c-70.2022-3.1486-126.3472-61.24-126.3472-132.2051S100.5768,28.1511,170.779,25.0024Z"/><path d="M490.4572,262.9976V235.236c0-.6219-.1133-3.6371-.2667-5.26a69.6689,69.6689,0,0,0-138.8428,0c-.2082,3.5218-.2669,5.7807-.2669,6.4026l.2679,33.5c0,.6.0565,3.271-.021,4.4615a69.241,69.241,0,0,0,2.8839,14.8623,68.8923,68.8923,0,0,0-2.8639,14.6434c-.2082,3.5218-.2669,5.7805-.2669,6.4025l.2679,33.5c0,.6.0565,3.2711-.021,4.4615a69.25,69.25,0,0,0,2.8164,14.6418,68.8875,68.8875,0,0,0-2.7964,14.42c-.2082,3.5219-.2669,5.7806-.2669,6.4025l.2679,33.5c0,.6.0565,3.2711-.021,4.4615a69.6762,69.6762,0,0,0,138.8825,0c.1609-.5473.247-10.7424.247-11.342V382.5311c0-.6219-.1133-3.6371-.2667-5.26a69.1251,69.1251,0,0,0-2.79-14.4417,69.251,69.251,0,0,0,2.81-14.62c.1609-.5473.247-10.7424.247-11.342V309.1056c0-.6219-.1133-3.6371-.2667-5.26a69.1139,69.1139,0,0,0-2.8594-14.6586A69.2283,69.2283,0,0,0,490.21,274.34C490.3711,273.7922,490.4572,263.5971,490.4572,262.9976ZM384.59,460.498a57.9046,57.9046,0,0,1-12.2382-13.7068V433.217a70.3821,70.3821,0,0,0,12.2382,9.4846Zm40.9469,12.6564c-1.5706.1325-3.1616.2039-4.7728.2039a56.42,56.42,0,0,1-7.4654-.4895V452.4412a69.5657,69.5657,0,0,0,7.4654.4079c1.6112,0,3.192-.0816,4.7728-.1836Zm40.9471-22.4878a58.1209,58.1209,0,0,1-12.2383,11.9018V444.262a69.7588,69.7588,0,0,0,12.2383-8.577Zm-45.7149-10.0592a57.45,57.45,0,0,1-57.45-57.45c0-.4174.0179-.83.0272-1.2455a69.6193,69.6193,0,0,0,114.8421.0051c.0089.4138.0307.8244.0307,1.24A57.45,57.45,0,0,1,420.7691,440.6074Zm-48.4173-67.2417V359.7915a70.3821,70.3821,0,0,0,12.2382,9.4846v17.7965A57.907,57.907,0,0,1,372.3518,373.3657Zm40.9469,26.0777V379.0157a69.54,69.54,0,0,0,7.4654.4079c1.6112,0,3.192-.0816,4.7728-.1835v20.4888c-1.5706.1326-3.1616.204-4.7728.204A56.4366,56.4366,0,0,1,413.2987,399.4434Zm40.947-10.3V370.8365a69.7535,69.7535,0,0,0,12.2383-8.577v14.9816A58.1209,58.1209,0,0,1,454.2457,389.1429Zm-33.4766-21.961a57.45,57.45,0,0,1-57.45-57.45c0-.5618.02-1.1187.0366-1.6764a69.6184,69.6184,0,0,0,114.822.0067c.0163.556.0414,1.11.0414,1.67A57.45,57.45,0,0,1,420.7691,367.1819Zm-48.4173-67.6857V285.9219a70.3821,70.3821,0,0,0,12.2382,9.4846v17.7964A57.906,57.906,0,0,1,372.3518,299.4962Zm40.9469,26.0776V305.1461a69.54,69.54,0,0,0,7.4654.408c1.6112,0,3.192-.0816,4.7728-.1836v20.4889c-1.5706.1325-3.1616.2039-4.7728.2039A56.4366,56.4366,0,0,1,413.2987,325.5738Zm40.947-10.3V296.9669a69.7535,69.7535,0,0,0,12.2383-8.577v14.9817A58.1229,58.1229,0,0,1,454.2457,315.2733Zm-33.4766-21.961a57.45,57.45,0,1,1,57.45-57.45A57.45,57.45,0,0,1,420.7691,293.3123Z"/><path d="M435.67,201.29h-9.3617v-5.3638a5.6092,5.6092,0,0,0-11.2184,0v6.22a18.7993,18.7993,0,0,0,5.6092,36.7422,6.5606,6.5606,0,1,1,0,13.1212H404.7664a6.1191,6.1191,0,0,0,0,12.2382h7.8728V271.72a5.6092,5.6092,0,0,0,11.2184,0v-7.76a18.7882,18.7882,0,0,0-3.1587-37.3107,6.5608,6.5608,0,0,1,0-13.1216H435.67a6.1191,6.1191,0,0,0,0-12.2382Z"/></g></svg>