<?xml version="1.0" encoding="UTF-8" standalone="no"?><!DOCTYPE svg PUBLIC "-//W3C//DTD SVG 1.1//EN" "http://www.w3.org/Graphics/SVG/1.1/DTD/svg11.dtd"><svg width="100%" height="100%" viewBox="0 0 165 44" version="1.1" xmlns="http://www.w3.org/2000/svg" xmlns:xlink="http://www.w3.org/1999/xlink" xml:space="preserve" xmlns:serif="http://www.serif.com/" style="fill-rule:evenodd;clip-rule:evenodd;stroke-linejoin:round;stroke-miterlimit:2;"><path d="M1,2.313l14.18,-0.001l-0,4.172l-4.688,0l0,13.829l-4.805,-0.001l0,-13.828l-4.687,0l-0,-4.172Zm7.477,-1.312Zm-0.282,19.312Zm-7.195,-18.187Z" style="fill:#ffc40b;fill-rule:nonzero;stroke:#242780;stroke-width:2px;"/><path d="M16.105,14.113l0,-5.425c0,-2.25 0.602,-3.907 1.805,-4.969c1.211,-1.063 3.5,-1.594 6.867,-1.594c2.75,0 4.754,0.52 6.012,1.559c1.258,1.039 1.887,2.769 1.887,5.191l-0,5.004c-0,2.508 -0.668,4.238 -2.004,5.191c-1.336,0.953 -3.516,1.43 -6.539,1.43c-2.594,-0 -4.582,-0.477 -5.965,-1.43c-1.375,-0.953 -2.063,-2.605 -2.063,-4.957Zm4.946,-4.875l0.023,4.055c0,1.18 0.192,1.98 0.574,2.402c0.391,0.422 1.321,0.633 2.789,0.633c1.29,0 2.161,-0.18 2.614,-0.539c0.453,-0.367 0.679,-1.168 0.679,-2.402l0,-4.207c0,-1.18 -0.218,-1.953 -0.656,-2.321c-0.429,-0.375 -1.297,-0.562 -2.601,-0.562c-1.414,-0 -2.34,0.187 -2.778,0.562c-0.429,0.375 -0.644,1.168 -0.644,2.379Zm3.668,-8.238Z" style="fill:#ffc40b;fill-rule:nonzero;stroke:#242780;stroke-width:2px;"/><path d="M44.105,15.191l4.125,0c0,2.243 -0.429,3.68 -1.289,4.313c-0.851,0.625 -2.375,0.937 -4.57,0.937c-2.578,0 -4.277,-0.433 -5.098,-1.3c-0.82,-0.868 -1.23,-2.555 -1.23,-5.063c-0,-2.5 0.441,-4.199 1.324,-5.098c0.883,-0.906 2.52,-1.359 4.91,-1.359c2.243,0 3.793,0.356 4.653,1.066c0.867,0.704 1.3,1.973 1.3,3.809l-4.125,0c0,-0.703 -0.125,-1.164 -0.375,-1.383c-0.25,-0.218 -0.769,-0.328 -1.558,-0.328c-0.828,0 -1.371,0.215 -1.629,0.645c-0.25,0.422 -0.375,1.382 -0.375,2.882c-0,1.305 0.117,2.125 0.352,2.461c0.242,0.336 0.769,0.504 1.582,0.504c0.836,0 1.378,-0.117 1.628,-0.351c0.25,-0.242 0.375,-0.821 0.375,-1.735Zm-1.441,-8.507Zm-0.387,13.628Z" style="fill:#242780;fill-rule:nonzero;"/><path d="M49.484,14.031c0,-2.617 0.403,-4.34 1.207,-5.168c0.805,-0.828 2.528,-1.242 5.168,-1.242c2.672,0 4.371,0.441 5.098,1.324c0.727,0.883 1.09,2.629 1.09,5.239c-0,2.593 -0.43,4.285 -1.289,5.074c-0.86,0.789 -2.524,1.183 -4.992,1.183c-2.586,0 -4.282,-0.453 -5.086,-1.359c-0.797,-0.906 -1.196,-2.59 -1.196,-5.051Zm4.125,0.024c0,1.5 0.149,2.414 0.446,2.742c0.297,0.32 0.902,0.48 1.816,0.48c0.906,0 1.473,-0.191 1.699,-0.574c0.235,-0.391 0.352,-1.281 0.352,-2.672c-0,-1.398 -0.125,-2.289 -0.375,-2.672c-0.242,-0.382 -0.801,-0.574 -1.676,-0.574c-1.008,0 -1.637,0.195 -1.887,0.586c-0.25,0.391 -0.375,1.285 -0.375,2.684Zm2.25,-7.371Z" style="fill:#242780;fill-rule:nonzero;"/><path d="M64.227,20.313l-0,-12.563l4.125,0l-0,2.496c0.539,-1.75 1.808,-2.625 3.808,-2.625c1.594,0 2.699,0.348 3.317,1.043c0.625,0.688 0.937,1.762 0.937,3.223l0,8.426l-4.125,-0l0,-7.149c0,-0.906 -0.125,-1.527 -0.375,-1.863c-0.242,-0.344 -0.703,-0.516 -1.383,-0.516c-0.726,0 -1.273,0.199 -1.64,0.598c-0.36,0.39 -0.539,1.07 -0.539,2.039l-0,6.891l-4.125,-0Zm6.855,-13.629Zm-0.621,13.629Z" style="fill:#242780;fill-rule:nonzero;"/><path d="M82.625,16.316c0,0.625 0.156,1.028 0.469,1.207c0.32,0.18 0.875,0.27 1.664,0.27c0.859,-0 1.406,-0.082 1.64,-0.246c0.235,-0.164 0.352,-0.442 0.352,-0.832c0,-0.5 -0.113,-0.832 -0.34,-0.996c-0.219,-0.164 -0.695,-0.246 -1.43,-0.246c-2.656,-0 -4.402,-0.254 -5.238,-0.762c-0.828,-0.508 -1.242,-1.5 -1.242,-2.977c0,-1.445 0.352,-2.492 1.055,-3.14c0.703,-0.649 2.222,-0.973 4.558,-0.973l0.481,0c2.094,0 3.554,0.242 4.383,0.727c0.836,0.484 1.253,1.492 1.253,3.023l-3.937,0c-0.086,-0.398 -0.234,-0.68 -0.445,-0.844c-0.203,-0.172 -0.59,-0.257 -1.16,-0.257l-0.774,-0c-0.516,-0 -0.871,0.097 -1.066,0.293c-0.188,0.187 -0.282,0.429 -0.282,0.726c0,0.399 0.125,0.676 0.375,0.832c0.25,0.156 0.801,0.234 1.653,0.234c0.742,0 1.679,0.059 2.812,0.176c1.133,0.11 1.969,0.414 2.508,0.914c0.602,0.547 0.902,1.481 0.902,2.801c0,1.609 -0.523,2.711 -1.57,3.305c-1.047,0.594 -2.719,0.89 -5.016,0.89c-2.226,0 -3.738,-0.304 -4.535,-0.914c-0.797,-0.609 -1.195,-1.679 -1.195,-3.211l4.125,0Zm1.934,-9.632Zm0.105,13.629Z" style="fill:#242780;fill-rule:nonzero;"/><path d="M100.438,15.191l4.124,0c0.001,2.243 -0.429,3.68 -1.289,4.313c-0.851,0.625 -2.375,0.937 -4.57,0.937c-2.578,0 -4.277,-0.433 -5.098,-1.3c-0.82,-0.868 -1.23,-2.555 -1.23,-5.063c0,-2.5 0.441,-4.199 1.324,-5.098c0.883,-0.906 2.52,-1.359 4.91,-1.359c2.243,0 3.793,0.356 4.653,1.066c0.867,0.704 1.3,1.973 1.3,3.809l-4.124,0c-0.001,-0.703 -0.125,-1.164 -0.376,-1.383c-0.249,-0.218 -0.769,-0.328 -1.558,-0.328c-0.828,0 -1.371,0.215 -1.629,0.645c-0.25,0.422 -0.375,1.382 -0.375,2.882c0,1.305 0.117,2.125 0.352,2.461c0.242,0.336 0.769,0.504 1.582,0.504c0.836,0 1.379,-0.117 1.629,-0.351c0.25,-0.242 0.375,-0.821 0.375,-1.735Zm-1.442,-8.507Zm-0.387,13.628Z" style="fill:#242780;fill-rule:nonzero;"/><path d="M106.004,7.75l4.125,0l-0,12.563l-4.125,-0.001l-0,-12.562Zm-0,-5.414l4.125,-0l-0,3.164l-4.125,-0l-0,-3.164Zm2.93,17.976Z" style="fill:#242780;fill-rule:nonzero;"/><path d="M115.977,14.758c-0,1.148 0.14,1.902 0.421,2.262c0.29,0.359 0.852,0.539 1.688,0.539c0.719,-0 1.227,-0.079 1.523,-0.235c0.368,-0.203 0.551,-0.601 0.551,-1.195l4.067,-0c-0,1.656 -0.481,2.789 -1.442,3.398c-0.961,0.61 -2.48,0.914 -4.558,0.914c-2.696,0 -4.434,-0.511 -5.215,-1.535c-0.774,-1.031 -1.16,-2.64 -1.16,-4.828c-0,-2.469 0.421,-4.16 1.265,-5.074c0.852,-0.922 2.559,-1.383 5.121,-1.383c2.086,0 3.606,0.399 4.559,1.195c0.953,0.789 1.43,2.77 1.43,5.942l-8.25,-0Zm-0,-2.274l4.125,0c-0,-0.836 -0.157,-1.375 -0.469,-1.617c-0.313,-0.242 -0.84,-0.363 -1.582,-0.363c-0.821,-0 -1.371,0.133 -1.653,0.398c-0.281,0.266 -0.421,0.793 -0.421,1.582Zm2.402,-5.8Zm1.066,13.628Z" style="fill:#242780;fill-rule:nonzero;"/><path d="M126.277,20.313l0,-12.563l4.125,0l0,2.496c0.539,-1.75 1.809,-2.625 3.809,-2.625c1.594,0 2.699,0.348 3.316,1.043c0.625,0.688 0.938,1.762 0.938,3.223l-0,8.426l-4.125,-0l-0,-7.149c-0,-0.906 -0.125,-1.527 -0.375,-1.863c-0.242,-0.344 -0.703,-0.516 -1.383,-0.516c-0.727,0 -1.273,0.199 -1.641,0.598c-0.359,0.39 -0.539,1.07 -0.539,2.039l0,6.891l-4.125,-0Zm6.856,-13.629Zm-0.621,13.629Z" style="fill:#242780;fill-rule:nonzero;"/><path d="M140.105,7.75l1.547,0l0,-2.625l4.125,0l0,2.625l4.688,0l-0,3.023l-4.688,0l0,5.426c0,0.5 0.067,0.828 0.2,0.985c0.14,0.156 0.406,0.234 0.796,0.234c0.321,-0 0.559,-0.105 0.715,-0.316c0.164,-0.219 0.246,-0.856 0.246,-1.911l3.293,0l0,0.809c0,1.75 -0.308,2.93 -0.925,3.539c-0.618,0.602 -1.836,0.902 -3.657,0.902c-1.828,0 -3.086,-0.273 -3.773,-0.82c-0.68,-0.547 -1.02,-1.496 -1.02,-2.848l0,-6l-1.547,0l0,-3.023Zm6.305,12.562Z" style="fill:#242780;fill-rule:nonzero;"/><path d="M156.254,14.758c-0,1.148 0.141,1.902 0.422,2.262c0.289,0.359 0.851,0.539 1.687,0.539c0.719,-0 1.227,-0.079 1.524,-0.235c0.367,-0.203 0.55,-0.601 0.55,-1.195l4.067,-0c-0,1.656 -0.481,2.789 -1.442,3.398c-0.96,0.61 -2.48,0.914 -4.558,0.914c-2.695,0 -4.434,-0.511 -5.215,-1.535c-0.773,-1.031 -1.16,-2.64 -1.16,-4.828c-0,-2.469 0.422,-4.16 1.266,-5.074c0.851,-0.922 2.558,-1.383 5.121,-1.383c2.086,0 3.605,0.399 4.558,1.195c0.953,0.789 1.43,2.77 1.43,5.942l-8.25,-0Zm-0,-2.274l4.125,0c-0,-0.836 -0.156,-1.375 -0.469,-1.617c-0.312,-0.242 -0.84,-0.363 -1.582,-0.363c-0.82,-0 -1.371,0.133 -1.652,0.398c-0.281,0.266 -0.422,0.793 -0.422,1.582Zm2.402,-5.8Zm1.067,13.628Z" style="fill:#242780;fill-rule:nonzero;"/><path d="M108.015,25.631c0,-0 -4,-0 -4,-0c0,7.494 -6.085,13.579 -13.579,13.579c-0,-0 -56.019,-0 -56.019,-0c-7.495,-0 -13.579,-6.085 -13.579,-13.579c-0,-0 -4,-0 -4,-0c-0,9.702 7.877,17.579 17.579,17.579l56.019,-0c9.702,-0 17.579,-7.877 17.579,-17.579Z" style="fill:#242780;"/></svg>