<?xml version="1.0" encoding="UTF-8" standalone="no"?><!DOCTYPE svg PUBLIC "-//W3C//DTD SVG 1.1//EN" "http://www.w3.org/Graphics/SVG/1.1/DTD/svg11.dtd"><svg width="100%" height="100%" viewBox="0 0 2134 2134" version="1.1" xmlns="http://www.w3.org/2000/svg" xmlns:xlink="http://www.w3.org/1999/xlink" xml:space="preserve" xmlns:serif="http://www.serif.com/" style="fill-rule:evenodd;clip-rule:evenodd;stroke-linejoin:round;stroke-miterlimit:2;"><g id="Environment_city_for_elder"><path d="M1651.76,1938.77l-146.91,-0c-17.018,-0 -31.021,14.003 -31.021,31.021c-0,17.017 14.003,31.021 31.021,31.021l146.91,-0c17.017,-0 31.021,-14.004 31.021,-31.021c-0,-17.018 -14.004,-31.021 -31.021,-31.021Zm346.239,-0l-146.91,-0c-17.018,-0 -31.021,14.003 -31.021,31.021c-0,17.017 14.003,31.021 31.021,31.021l146.91,-0c17.018,-0 31.021,-14.004 31.021,-31.021c0,-17.018 -14.003,-31.021 -31.021,-31.021Zm-1038.71,-0l-146.911,-0c-17.017,-0 -31.021,14.003 -31.021,31.021c0,17.017 14.004,31.021 31.021,31.021l146.911,-0c17.017,-0 31.021,-14.004 31.021,-31.021c-0,-17.018 -14.004,-31.021 -31.021,-31.021Zm346.235,-0l-146.911,-0c-17.017,-0 -31.021,14.003 -31.021,31.021c0,17.017 14.004,31.021 31.021,31.021l146.911,-0c17.017,-0 31.021,-14.004 31.021,-31.021c-0,-17.018 -14.004,-31.021 -31.021,-31.021Zm-692.474,-0l-146.911,-0c-17.017,-0 -31.021,14.003 -31.021,31.021c0,17.017 14.004,31.021 31.021,31.021l146.911,-0c17.017,-0 31.021,-14.004 31.021,-31.021c-0,-17.018 -14.004,-31.021 -31.021,-31.021Zm-346.234,-0l-146.911,-0c-17.017,-0 -31.021,14.003 -31.021,31.021c0,17.017 14.004,31.021 31.021,31.021l146.911,-0c17.018,-0 31.021,-14.004 31.021,-31.021c0,-17.018 -14.003,-31.021 -31.021,-31.021Zm66.71,-450.298l0,-134.118c0,-7.846 2.929,-15.416 8.21,-21.218l52.104,-57.253c11.12,-11.818 11.541,-30.333 0.969,-42.644c-5.881,-6.502 -14.25,-10.217 -23.018,-10.217c-8.711,0 -17.031,3.667 -22.908,10.096l-46.377,50.926l-45.635,-50.114c-10.484,-11.843 -28.297,-14.141 -41.443,-5.347c-8.3,5.792 -13.257,15.297 -13.257,25.418c-0,7.728 2.89,15.183 8.099,20.892l52.995,58.188c5.287,5.804 8.22,13.378 8.22,21.229l0,134.162l-57.419,0c-85.36,0 -155.601,-70.24 -155.601,-155.601c-0,-32.776 10.356,-64.729 29.583,-91.274c38.033,-51.4 47.686,-118.659 25.644,-178.681c-8.753,-23.35 -13.236,-48.085 -13.236,-73.021c-0,-100.545 72.891,-187.415 171.908,-204.876l0,-442.566c0.04,-45.593 37.544,-83.097 83.137,-83.137l586.607,0c45.592,0.04 83.097,37.544 83.136,83.137l0,463.712l212.753,-202.774c27.709,-26.418 71.868,-26.418 99.577,0l369.822,352.502c14.288,13.612 22.384,32.507 22.384,52.241c-0,39.569 -32.551,72.135 -72.121,72.154l-45.446,-0l0,641.617c0.015,13.561 11.153,24.723 24.714,24.766l137.371,-0l-0.033,0.155l254.354,-0c17.017,-0 31.021,14.003 31.021,31.021c-0,17.017 -14.004,31.021 -31.021,31.021l-392.317,-0l-0,-0.159c-47.306,-0.411 -86.09,-39.427 -86.132,-86.804l0,-641.617l-524.927,-0l0,645.443c-0.056,45.586 -37.55,83.08 -83.136,83.137l-396.862,-0c-17.018,-0 -31.021,-14.004 -31.021,-31.021c-0,-17.018 14.003,-31.021 31.021,-31.021l396.862,-0c11.567,-0.013 21.082,-9.527 21.094,-21.095l0,-645.443l-45.254,-0c-39.583,-0 -72.155,-32.572 -72.155,-72.155c-0,-19.734 8.095,-38.628 22.381,-52.24l95.028,-90.581l0,-522.859c-0.012,-11.568 -9.527,-21.082 -21.094,-21.095l-586.607,0c-11.568,0.013 -21.083,9.527 -21.095,21.095l0,441.119c103.422,13.129 181.802,102.088 181.802,206.339c-0,23.84 -4.099,47.503 -12.117,69.954c-21.897,58.877 -13.314,124.927 22.904,176.251l3.981,5.481c19.226,26.545 29.582,58.497 29.582,91.273c-0,85.361 -70.241,155.602 -155.602,155.602l-71.428,0l0,258.354l57.803,-0c17.017,-0 31.021,14.003 31.021,31.021c-0,17.017 -14.004,31.021 -31.021,31.021l-302.041,-0c-17.018,-0 -31.021,-14.004 -31.021,-31.021c-0,-17.018 14.003,-31.021 31.021,-31.021l182.196,-0l0,-258.354l62.041,0Zm1104.78,289.371l0,-375.701c-0.036,-33.323 -27.446,-60.733 -60.769,-60.769l-179.476,-0c-33.325,0.036 -60.736,27.445 -60.775,60.769l-0,375.701c0.005,16.806 13.672,30.705 30.475,30.994l0,0.027l239.858,0l-0,-0.016c16.887,-0.177 30.684,-14.117 30.687,-31.005Zm-742.938,-358.858c-0,17.018 14.003,31.021 31.021,31.021l106.836,0c17.018,0 31.021,-14.003 31.021,-31.021l0,-194.905c0,-46.322 -38.117,-84.439 -84.439,-84.439c-46.322,-0 -84.439,38.117 -84.439,84.439l-0,194.905Zm137.857,-664.987c17.018,0 31.021,-14.003 31.021,-31.021l0,-194.911c0,-46.322 -38.117,-84.439 -84.439,-84.439c-46.322,-0 -84.439,38.117 -84.439,84.439l-0,194.911c-0,17.018 14.003,31.021 31.021,31.021l106.836,0Zm-336.904,-310.371c-46.303,0.051 -84.388,38.136 -84.439,84.439l-0,194.911c-0,17.018 14.003,31.021 31.021,31.021l106.837,0c17.017,0 31.021,-14.003 31.021,-31.021l-0,-194.911c-0.051,-46.303 -38.137,-84.389 -84.44,-84.439Z" style="fill-rule:nonzero;"/></g></svg>