<svg xmlns="http://www.w3.org/2000/svg" width="1040" height="553.614" viewBox="0 0 1040 553.614">
  <g id="Camada-1" transform="translate(-114.363 -220.255)" opacity="0.05">
    <path id="path56" d="M358.637,772.907,114.363,743.056,428.76,708.8,341.829,660.76l100.666,2.3-70.956-75.5L465.365,619.7,266.421,373.55l245.97,201.375-27.555-96.116,70.95,70.95,1.151-101.811,44.638,88.083,32.147-315.775L666.88,537.132,711.519,447.9l1.145,100.666,72.058-70.95-27.555,96.116,246.013-198.8L802.951,619.747,897.922,587.6l-70.95,74.354H928.783l-86.7,46.843,312.285,34.3L916.108,773.869l-3.307-.594Z" transform="translate(0)" fill="#fff"/>
  </g>
</svg>
