<svg xmlns="http://www.w3.org/2000/svg" width="118.922" height="93.17" viewBox="0 0 118.922 93.17">
  <g id="Grupo_1003" data-name="Grupo 1003" transform="translate(-621 -7713)">
    <g id="Grupo_734" data-name="Grupo 734" transform="translate(629.394 7730.045)">
      <g id="Grupo_733" data-name="Grupo 733" transform="translate(0 0)">
        <path id="Caminho_3440" data-name="Caminho 3440" d="M-559.048,54.838h-11.705a3.573,3.573,0,0,1-3.576-3.571V17.478a.172.172,0,0,0-.172-.172H-585a3.574,3.574,0,0,1-3.577-3.571V3.571A3.574,3.574,0,0,1-585,0h40.1a3.574,3.574,0,0,1,3.576,3.571V13.736a3.574,3.574,0,0,1-3.576,3.571h-10.4a.172.172,0,0,0-.172.172V51.267a3.574,3.574,0,0,1-3.577,3.571" transform="translate(588.575)" fill="#fff"/>
      </g>
    </g>
    <g id="Grupo_736" data-name="Grupo 736" transform="translate(632.851 7736.08)">
      <g id="Grupo_735" data-name="Grupo 735" transform="translate(0 0)">
        <path id="Caminho_3441" data-name="Caminho 3441" d="M-72.726-77.807h-1.5v3.94h-.85v-3.94h-1.495v-.735h3.841Z" transform="translate(76.567 78.542)" fill="#ffc40b"/>
      </g>
    </g>
    <g id="Grupo_738" data-name="Grupo 738" transform="translate(632.695 7735.925)">
      <g id="Grupo_737" data-name="Grupo 737" transform="translate(0 0)">
        <path id="Caminho_3442" data-name="Caminho 3442" d="M-34.186-1.5h.54V-5.44h1.5v-.425h-3.531v.425h1.5Zm.85.31H-34.5V-5.131h-1.495V-6.175h4.151v1.044h-1.5Z" transform="translate(35.992 6.175)" fill="#ffc40b"/>
      </g>
    </g>
    <g id="Grupo_740" data-name="Grupo 740" transform="translate(637.006 7736.025)">
      <g id="Grupo_739" data-name="Grupo 739" transform="translate(0 0)">
        <path id="Caminho_3443" data-name="Caminho 3443" d="M-79.438-45.133a1.626,1.626,0,0,0-1.661-1.65,1.624,1.624,0,0,0-1.653,1.65A1.616,1.616,0,0,0-81.1-43.5a1.618,1.618,0,0,0,1.661-1.634m.881,0A2.426,2.426,0,0,1-81.1-42.748a2.424,2.424,0,0,1-2.535-2.385,2.432,2.432,0,0,1,2.535-2.4,2.434,2.434,0,0,1,2.542,2.4" transform="translate(83.633 47.533)" fill="#ffc40b"/>
      </g>
    </g>
    <g id="Grupo_742" data-name="Grupo 742" transform="translate(636.85 7735.871)">
      <g id="Grupo_741" data-name="Grupo 741" transform="translate(0 0)">
        <path id="Caminho_3444" data-name="Caminho 3444" d="M-50.935-79.356a1.464,1.464,0,0,0-1.5,1.495,1.456,1.456,0,0,0,1.5,1.479,1.459,1.459,0,0,0,1.506-1.479,1.467,1.467,0,0,0-1.506-1.495m0,3.283a1.779,1.779,0,0,1-1.808-1.788,1.787,1.787,0,0,1,1.808-1.8,1.791,1.791,0,0,1,1.816,1.8,1.763,1.763,0,0,1-1.816,1.788m0-4.034a2.264,2.264,0,0,0-2.38,2.245,2.258,2.258,0,0,0,2.38,2.229,2.262,2.262,0,0,0,2.387-2.229,2.269,2.269,0,0,0-2.387-2.245m0,4.785a2.59,2.59,0,0,1-2.69-2.539,2.6,2.6,0,0,1,2.69-2.555,2.6,2.6,0,0,1,2.7,2.555,2.594,2.594,0,0,1-2.7,2.539" transform="translate(53.625 80.417)" fill="#ffc40b"/>
      </g>
    </g>
    <g id="Grupo_744" data-name="Grupo 744" transform="translate(642.837 7736.025)">
      <g id="Grupo_743" data-name="Grupo 743" transform="translate(0 0)">
        <path id="Caminho_3445" data-name="Caminho 3445" d="M-83.459-77.373l-.622.5a1.59,1.59,0,0,0-1.291-.61,1.581,1.581,0,0,0-1.613,1.6A1.619,1.619,0,0,0-85.372-74.2a1.62,1.62,0,0,0,1.338-.625l.622.539a2.547,2.547,0,0,1-1.96.837,2.424,2.424,0,0,1-2.495-2.431,2.388,2.388,0,0,1,2.495-2.353,2.44,2.44,0,0,1,1.913.86" transform="translate(87.867 78.233)" fill="#ffc40b"/>
      </g>
    </g>
    <g id="Grupo_746" data-name="Grupo 746" transform="translate(642.682 7735.871)">
      <g id="Grupo_745" data-name="Grupo 745" transform="translate(0 0)">
        <path id="Caminho_3446" data-name="Caminho 3446" d="M-50.183-95.065a2.232,2.232,0,0,0-2.34,2.2,2.259,2.259,0,0,0,2.34,2.277,2.427,2.427,0,0,0,1.737-.671l-.382-.331a1.792,1.792,0,0,1-1.354.561,1.763,1.763,0,0,1-1.768-1.836,1.735,1.735,0,0,1,1.767-1.757,1.749,1.749,0,0,1,1.311.551l.377-.3a2.3,2.3,0,0,0-1.687-.688m0,4.785a2.591,2.591,0,0,1-2.65-2.586,2.536,2.536,0,0,1,2.65-2.508,2.6,2.6,0,0,1,2.031.914l.1.121-.868.7-.1-.121a1.431,1.431,0,0,0-1.17-.552,1.431,1.431,0,0,0-1.458,1.448,1.461,1.461,0,0,0,1.458,1.526,1.463,1.463,0,0,0,1.216-.566l.1-.129.863.748-.1.117a2.7,2.7,0,0,1-2.076.89" transform="translate(52.833 95.375)" fill="#ffc40b"/>
      </g>
    </g>
    <g id="Grupo_748" data-name="Grupo 748" transform="translate(647.803 7736.064)">
      <g id="Grupo_747" data-name="Grupo 747" transform="translate(0 0)">
        <path id="Caminho_3447" data-name="Caminho 3447" d="M-56.927-29.842l-.771-2.009-.779,2.009Zm.212.719h-1.959l-.355.93h-.905l1.857-4.691h.772l1.849,4.691h-.913Z" transform="translate(59.933 32.883)" fill="#ffc40b"/>
      </g>
    </g>
    <g id="Grupo_750" data-name="Grupo 750" transform="translate(647.574 7735.909)">
      <g id="Grupo_749" data-name="Grupo 749" transform="translate(0 0)">
        <path id="Caminho_3448" data-name="Caminho 3448" d="M-36.173-36.017h1.1l-.546-1.423Zm1.55.31h-2l1.007-2.6Zm.441,1.34h.577l-1.727-4.381h-.561l-1.735,4.381h.57l.355-.93h2.175Zm1.033.31H-34.4l-.347-.93h-1.745l-.355.93h-1.24l1.98-5h.983Z" transform="translate(38.083 39.058)" fill="#ffc40b"/>
      </g>
    </g>
    <g id="Grupo_752" data-name="Grupo 752" transform="translate(653.044 7736.08)">
      <g id="Grupo_751" data-name="Grupo 751" transform="translate(0 0)">
        <path id="Caminho_3449" data-name="Caminho 3449" d="M-77.2,4.675h-.677l-2.574-3.369V4.675h-.826V0h.748L-78,3.307V0h.8Z" transform="translate(81.275)" fill="#ffc40b"/>
      </g>
    </g>
    <g id="Grupo_754" data-name="Grupo 754" transform="translate(652.889 7735.925)">
      <g id="Grupo_753" data-name="Grupo 753" transform="translate(0 0)">
        <path id="Caminho_3450" data-name="Caminho 3450" d="M-68.768-1.5h.446V-5.865h-.492v3.611l-2.759-3.611h-.516V-1.5h.516V-5.173Zm.756.31h-.909l-2.342-3.066V-1.19H-72.4V-6.175h.98l2.3,3v-3h1.113Z" transform="translate(72.4 6.175)" fill="#ffc40b"/>
      </g>
    </g>
    <g id="Grupo_756" data-name="Grupo 756" transform="translate(657.947 7736.08)">
      <g id="Grupo_755" data-name="Grupo 755" transform="translate(0 0)">
        <path id="Caminho_3451" data-name="Caminho 3451" d="M-72.726-77.807h-1.5v3.94h-.85v-3.94h-1.5v-.735h3.841Z" transform="translate(76.567 78.542)" fill="#ffc40b"/>
      </g>
    </g>
    <g id="Grupo_758" data-name="Grupo 758" transform="translate(657.792 7735.925)">
      <g id="Grupo_757" data-name="Grupo 757" transform="translate(0 0)">
        <path id="Caminho_3452" data-name="Caminho 3452" d="M-34.186-1.5h.54V-5.44h1.5v-.425h-3.531v.425h1.5Zm.85.31H-34.5V-5.131h-1.5V-6.175h4.152v1.044h-1.5Z" transform="translate(35.992 6.175)" fill="#ffc40b"/>
      </g>
    </g>
    <g id="Grupo_760" data-name="Grupo 760" transform="translate(662.614 7736.08)">
      <g id="Grupo_759" data-name="Grupo 759" transform="translate(0 0)">
        <rect id="Retângulo_511" data-name="Retângulo 511" width="0.85" height="4.675" transform="translate(0 0)" fill="#ffc40b"/>
      </g>
    </g>
    <g id="Grupo_762" data-name="Grupo 762" transform="translate(662.458 7735.925)">
      <g id="Grupo_761" data-name="Grupo 761" transform="translate(0 0)">
        <path id="Caminho_3453" data-name="Caminho 3453" d="M5007.758,1688.25h.54v-4.365h-.54Zm.85.31h-1.16v-4.985h1.16Z" transform="translate(-5007.448 -1683.574)" fill="#ffc40b"/>
      </g>
    </g>
    <g id="Grupo_764" data-name="Grupo 764" transform="translate(664.644 7736.08)">
      <g id="Grupo_763" data-name="Grupo 763" transform="translate(0 0)">
        <path id="Caminho_3454" data-name="Caminho 3454" d="M-77.2,4.675h-.677l-2.574-3.369V4.675h-.826V0h.748L-78,3.307V0h.8Z" transform="translate(81.275)" fill="#ffc40b"/>
      </g>
    </g>
    <g id="Grupo_766" data-name="Grupo 766" transform="translate(664.489 7735.925)">
      <g id="Grupo_765" data-name="Grupo 765" transform="translate(0 0)">
        <path id="Caminho_3455" data-name="Caminho 3455" d="M-68.768-1.5h.445V-5.865h-.492v3.611l-2.758-3.611h-.516V-1.5h.516V-5.173Zm.755.31h-.909l-2.342-3.066V-1.19H-72.4V-6.175h.98l2.295,3v-3h1.113Z" transform="translate(72.4 6.175)" fill="#ffc40b"/>
      </g>
    </g>
    <g id="Grupo_768" data-name="Grupo 768" transform="translate(669.728 7736.08)">
      <g id="Grupo_767" data-name="Grupo 767" transform="translate(0 0)">
        <path id="Caminho_3456" data-name="Caminho 3456" d="M-1.789,4.675V3.94h1.7c.5,0,.8-.156.8-.672S.525,2.6.014,2.6H-.34c-.9,0-1.543-.328-1.543-1.274C-1.883.352-1.238,0-.278,0H1.431V.735H-.246c-.559,0-.771.1-.771.555s.229.555.771.555H.084a1.3,1.3,0,0,1,1.5,1.423c0,.985-.724,1.407-1.637,1.407Z" transform="translate(1.883 0)" fill="#ffc40b"/>
      </g>
    </g>
    <g id="Grupo_770" data-name="Grupo 770" transform="translate(669.573 7735.925)">
      <g id="Grupo_769" data-name="Grupo 769" transform="translate(0 0)">
        <path id="Caminho_3457" data-name="Caminho 3457" d="M-7.662-1.5h1.577A1.29,1.29,0,0,0-4.6-2.752c0-.854-.438-1.268-1.34-1.268h-.331c-.469,0-.926-.055-.926-.71s.458-.71.926-.71h1.521v-.425H-6.306c-.99,0-1.451.371-1.451,1.166,0,.753.454,1.119,1.388,1.119h.354c.607,0,.855.24.855.828,0,.827-.721.827-.958.827H-7.662Zm1.577.31H-7.972V-2.235h1.855c.539,0,.648-.2.648-.517,0-.416-.107-.518-.545-.518h-.354c-1.4,0-1.7-.777-1.7-1.429,0-.673.305-1.476,1.761-1.476h1.863v1.044H-6.274c-.566,0-.616.1-.616.4s.056.4.616.4h.331A1.457,1.457,0,0,1-4.293-2.752c0,.978-.67,1.562-1.792,1.562" transform="translate(8.067 6.175)" fill="#ffc40b"/>
      </g>
    </g>
    <g id="Grupo_772" data-name="Grupo 772" transform="translate(676.648 7730.045)">
      <g id="Grupo_771" data-name="Grupo 771" transform="translate(54.706 54.838) rotate(180)">
        <path id="Caminho_3458" data-name="Caminho 3458" d="M27.353,54.838A27.419,27.419,0,1,0,0,27.419,27.386,27.386,0,0,0,27.353,54.838" transform="translate(0)" fill="#fff"/>
      </g>
    </g>
    <g id="Grupo_774" data-name="Grupo 774" transform="translate(686.367 7740.004)">
      <g id="Grupo_773" data-name="Grupo 773" transform="translate(0 0)">
        <path id="Caminho_3459" data-name="Caminho 3459" d="M-667.725-329.024l-10.1,1.166c-.012.057-.025.115-.038.173l2.448,1.457h-3.073l2.024,1.892-.059.167L-679-324.8l-.135.157,6.336,7.975-.092.1-8.061-6.379-.125.092q.317,1.264.634,2.526l-.148.092-1.866-1.985v2.693l-.184.056-1.307-2.158-.158,0-1.163,9.984-.179.009q-.581-4.988-1.162-9.975l-.155-.046-1.292,2.173-.145-.027v-2.5l-.175-.081-1.754,1.856-.153-.094.64-2.524-.135-.085-8.042,6.367-.1-.09,6.336-7.976-.1-.154-2.511.619-.07-.133,2.039-1.917h-3.055l2.428-1.475-.044-.156-10.093-1.166c0-.05,0-.1,0-.15l10.1-1.167c.01-.053.021-.106.033-.16l-2.278-1.375.047-.144,2.681.117.089-.141-1.954-1.857.078-.129,2.473.627.136-.153-6.333-7.974.091-.1,8.052,6.372.121-.095q-.31-1.264-.619-2.526l.145-.08,1.882,2v-2.709l.171-.049,1.308,2.162.154-.013q.581-4.993,1.163-9.985l.179,0,1.161,9.979.16.035,1.288-2.173.161.038v2.5l.163.067,1.734-1.834.168.072q-.319,1.249-.637,2.5l.12.12,8.056-6.372.1.089-6.339,7.978.1.154,2.512-.62.068.135-2.038,1.916h3.067l-2.448,1.46.054.173,10.089,1.166c0,.05,0,.1,0,.15" transform="translate(702.991 346.558)" fill="#ffc40b"/>
      </g>
    </g>
    <g id="Grupo_776" data-name="Grupo 776" transform="translate(622 7717.616)">
      <g id="Grupo_775" data-name="Grupo 775" transform="translate(0 0)">
        <path id="Caminho_3460" data-name="Caminho 3460" d="M-1945.061-1745.283h11.741a2.448,2.448,0,0,1,2.451,2.446v85.027a.081.081,0,0,1-.081.081h-116.418a.423.423,0,0,1-.423-.422v-84.686a2.448,2.448,0,0,1,2.451-2.446h11.557" transform="translate(2047.791 1745.283)" fill="none" stroke="#fff" stroke-miterlimit="10" stroke-width="2"/>
      </g>
    </g>
    <g id="Grupo_778" data-name="Grupo 778" transform="translate(630.466 7793.433)">
      <g id="Grupo_777" data-name="Grupo 777" transform="translate(0 0)">
        <path id="Caminho_3461" data-name="Caminho 3461" d="M0-31.227v-1.86a1.646,1.646,0,0,1,1.853-1.871,2.557,2.557,0,0,1,.7.087,1.58,1.58,0,0,1,.511.239,1.265,1.265,0,0,1,.338.375,1.658,1.658,0,0,1,.192.484,2.608,2.608,0,0,1,.059.574v.311H2.436v-.369c0-.092,0-.173-.008-.242a1.325,1.325,0,0,0-.044-.232.642.642,0,0,0-.094-.21.45.45,0,0,0-.171-.138.584.584,0,0,0-.265-.056q-.583,0-.583.78v2.28q0,.777.583.777t.579-.806v-.423H1.714v-.765H3.7v2.716H2.83l-.161-.37a1.133,1.133,0,0,1-.457.342,1.5,1.5,0,0,1-.611.13,1.752,1.752,0,0,1-.616-.1,1.33,1.33,0,0,1-.457-.276,1.543,1.543,0,0,1-.3-.4,1.876,1.876,0,0,1-.174-.474,2.33,2.33,0,0,1-.052-.5" transform="translate(0 34.958)" fill="#fff"/>
      </g>
    </g>
    <g id="Grupo_780" data-name="Grupo 780" transform="translate(636.582 7793.536)">
      <g id="Grupo_779" data-name="Grupo 779" transform="translate(0 0)">
        <path id="Caminho_3462" data-name="Caminho 3462" d="M0,5.28V0H2.621V.733H1.27V2.171h.957v.751H1.27V4.546H2.621V5.28Z" fill="#fff"/>
      </g>
    </g>
    <g id="Grupo_782" data-name="Grupo 782" transform="translate(641.156 7793.427)">
      <g id="Grupo_781" data-name="Grupo 781" transform="translate(0 0)">
        <path id="Caminho_3463" data-name="Caminho 3463" d="M0-28.389,1.288-28.6c0,.107,0,.2.007.285a1.836,1.836,0,0,0,.036.268.846.846,0,0,0,.08.237.45.45,0,0,0,.143.156.375.375,0,0,0,.218.063q.377,0,.377-.4a1.473,1.473,0,0,0-.743-1.1l-.394-.282c-.125-.088-.226-.161-.3-.22a3.4,3.4,0,0,1-.263-.237,1.551,1.551,0,0,1-.237-.289,1.449,1.449,0,0,1-.147-.336A1.388,1.388,0,0,1,0-30.876a1.215,1.215,0,0,1,.485-1.016,2.052,2.052,0,0,1,1.288-.374,1.689,1.689,0,0,1,1.135.4,1.225,1.225,0,0,1,.468.962l0,.038v.088l-1.312.153q0-.033.005-.1c0-.046.005-.083.005-.113a1.169,1.169,0,0,0-.017-.2A.972.972,0,0,0,2-31.237a.346.346,0,0,0-.124-.154.352.352,0,0,0-.2-.058.369.369,0,0,0-.314.138.522.522,0,0,0-.1.326.775.775,0,0,0,.061.308.859.859,0,0,0,.185.268,2.617,2.617,0,0,0,.228.207c.07.055.163.122.279.2s.2.137.248.174a5.049,5.049,0,0,1,.454.374,3.057,3.057,0,0,1,.349.395,1.627,1.627,0,0,1,.246.475,1.8,1.8,0,0,1,.082.551,1.088,1.088,0,0,1-.471.908,1.852,1.852,0,0,1-1.145.353,2.083,2.083,0,0,1-.775-.135,1.431,1.431,0,0,1-.546-.366,1.7,1.7,0,0,1-.319-.513,1.888,1.888,0,0,1-.129-.6" transform="translate(0 32.267)" fill="#fff"/>
      </g>
    </g>
    <g id="Grupo_784" data-name="Grupo 784" transform="translate(646.437 7793.536)">
      <g id="Grupo_783" data-name="Grupo 783" transform="translate(0 0)">
        <path id="Caminho_3464" data-name="Caminho 3464" d="M-17.453,5.28V.8h-.922V0h3.1V.8h-.9V5.28Z" transform="translate(18.375)" fill="#fff"/>
      </g>
    </g>
    <g id="Grupo_786" data-name="Grupo 786" transform="translate(651.175 7792.225)">
      <g id="Grupo_785" data-name="Grupo 785" transform="translate(0 0)">
        <path id="Caminho_3465" data-name="Caminho 3465" d="M-30.133-30.8h.649l-.318-1.959Zm-.241-3.927h-.583A2.569,2.569,0,0,1-30.945-35a1.063,1.063,0,0,1,.054-.235.6.6,0,0,1,.11-.2.481.481,0,0,1,.186-.129.724.724,0,0,1,.283-.05,2.726,2.726,0,0,1,.612.085,2.925,2.925,0,0,0,.438.085.144.144,0,0,0,.086-.022.076.076,0,0,0,.033-.044.532.532,0,0,0,0-.069h.541q0,.874-.544.874a2.127,2.127,0,0,1-.536-.107,2.108,2.108,0,0,0-.525-.107.247.247,0,0,0-.087.013.222.222,0,0,0-.051.025.086.086,0,0,0-.024.047.258.258,0,0,0-.009.044Zm-1.351,5.713,1.358-5.28h1.124l1.354,5.28h-1.252l-.258-1.13h-.82l-.244,1.13Z" transform="translate(31.725 35.608)" fill="#fff"/>
      </g>
    </g>
    <g id="Grupo_788" data-name="Grupo 788" transform="translate(657.07 7793.433)">
      <g id="Grupo_787" data-name="Grupo 787" transform="translate(0 0)">
        <path id="Caminho_3466" data-name="Caminho 3466" d="M-45.521-27.98v-2.282q0-.78-.569-.78a.553.553,0,0,0-.29.071.433.433,0,0,0-.174.2,1.091,1.091,0,0,0-.079.246,1.458,1.458,0,0,0-.023.265v2.282q0,.778.565.777t.569-.777m-2.4-.24V-30a1.638,1.638,0,0,1,1.835-1.871A1.64,1.64,0,0,1-44.25-30v1.748a2.874,2.874,0,0,1-.056.585,1.787,1.787,0,0,1-.191.509,1.4,1.4,0,0,1-.342.409,1.528,1.528,0,0,1-.525.265,2.492,2.492,0,0,1-.726.1,2.525,2.525,0,0,1-.722-.1,1.565,1.565,0,0,1-.524-.258,1.367,1.367,0,0,1-.34-.4,1.757,1.757,0,0,1-.191-.5,2.734,2.734,0,0,1-.058-.583" transform="translate(47.925 31.867)" fill="#fff"/>
      </g>
    </g>
    <g id="Grupo_790" data-name="Grupo 790" transform="translate(666.273 7793.536)">
      <g id="Grupo_789" data-name="Grupo 789" transform="translate(0 0)">
        <path id="Caminho_3467" data-name="Caminho 3467" d="M0,5.28V0H1.522l.67,3.52L2.914,0H4.384V5.28H3.449L3.42,1.566q-.105.573-.367,1.857T2.687,5.28H1.738L.967,1.543.939,5.28Z" fill="#fff"/>
      </g>
    </g>
    <g id="Grupo_792" data-name="Grupo 792" transform="translate(673.091 7793.536)">
      <g id="Grupo_791" data-name="Grupo 791" transform="translate(0 0)">
        <path id="Caminho_3468" data-name="Caminho 3468" d="M0-37.841v-3.317H1.27v3.285q0,.282,0,.409t.017.311a.817.817,0,0,0,.049.257,1.113,1.113,0,0,0,.1.158.276.276,0,0,0,.158.111.921.921,0,0,0,.237.027.923.923,0,0,0,.237-.027.28.28,0,0,0,.159-.11.982.982,0,0,0,.1-.157.8.8,0,0,0,.049-.254q.014-.181.017-.305c0-.083,0-.217,0-.4v-3.3h1.27v3.317q0,.252-.017.457a3.3,3.3,0,0,1-.066.426,1.712,1.712,0,0,1-.133.388,1.418,1.418,0,0,1-.224.323,1.174,1.174,0,0,1-.329.254,1.824,1.824,0,0,1-.459.158,2.8,2.8,0,0,1-.6.059,2.8,2.8,0,0,1-.6-.059,1.787,1.787,0,0,1-.457-.158,1.179,1.179,0,0,1-.328-.254,1.42,1.42,0,0,1-.224-.323,1.8,1.8,0,0,1-.134-.388,3.044,3.044,0,0,1-.068-.426Q0-37.589,0-37.841" transform="translate(0 41.158)" fill="#fff"/>
      </g>
    </g>
    <g id="Grupo_794" data-name="Grupo 794" transform="translate(679.189 7793.533)">
      <g id="Grupo_793" data-name="Grupo 793" transform="translate(0 0)">
        <path id="Caminho_3469" data-name="Caminho 3469" d="M0,5.282V0H.915L2.293,2.763V0H3.347V5.282h-.88L1.092,2.352v2.93Z" fill="#fff"/>
      </g>
    </g>
    <g id="Grupo_796" data-name="Grupo 796" transform="translate(684.998 7793.536)">
      <g id="Grupo_795" data-name="Grupo 795" transform="translate(0 0)">
        <rect id="Retângulo_512" data-name="Retângulo 512" width="1.27" height="5.28" transform="translate(0 0)" fill="#fff"/>
      </g>
    </g>
    <g id="Grupo_798" data-name="Grupo 798" transform="translate(688.65 7793.433)">
      <g id="Grupo_797" data-name="Grupo 797" transform="translate(0 0)">
        <path id="Caminho_3470" data-name="Caminho 3470" d="M0-33.564v-1.748a1.633,1.633,0,0,1,1.822-1.871A2.454,2.454,0,0,1,2.5-37.1a1.539,1.539,0,0,1,.5.239,1.267,1.267,0,0,1,.334.375A1.65,1.65,0,0,1,3.526-36a2.663,2.663,0,0,1,.058.574v.455H2.334v-.487c0-.1,0-.179-.007-.248a1.55,1.55,0,0,0-.036-.237.722.722,0,0,0-.08-.217.422.422,0,0,0-.15-.143.461.461,0,0,0-.239-.059q-.552,0-.551.78V-33.3q0,.778.551.778A.466.466,0,0,0,2.1-32.6a.436.436,0,0,0,.161-.224,1.5,1.5,0,0,0,.066-.285,2.569,2.569,0,0,0,.018-.318v-.543H3.584v.446a3.111,3.111,0,0,1-.059.557,1.858,1.858,0,0,1-.178.5,1.347,1.347,0,0,1-.319.407,1.469,1.469,0,0,1-.5.267,2.244,2.244,0,0,1-.7.1,2.436,2.436,0,0,1-.724-.1,1.551,1.551,0,0,1-.52-.264,1.356,1.356,0,0,1-.337-.408,1.784,1.784,0,0,1-.187-.509A2.963,2.963,0,0,1,0-33.564" transform="translate(0 37.183)" fill="#fff"/>
      </g>
    </g>
    <g id="Grupo_800" data-name="Grupo 800" transform="translate(694.542 7793.536)">
      <g id="Grupo_799" data-name="Grupo 799" transform="translate(0 0)">
        <rect id="Retângulo_513" data-name="Retângulo 513" width="1.27" height="5.28" transform="translate(0 0)" fill="#fff"/>
      </g>
    </g>
    <g id="Grupo_802" data-name="Grupo 802" transform="translate(698.275 7793.536)">
      <g id="Grupo_801" data-name="Grupo 801" transform="translate(0 0)">
        <path id="Caminho_3471" data-name="Caminho 3471" d="M-24.252-57.775a1.432,1.432,0,0,0,.18-.01c.052-.007.1-.015.138-.024a.259.259,0,0,0,.1-.048c.031-.023.056-.044.075-.061A.2.2,0,0,0-23.7-58c.014-.04.024-.073.031-.1a.645.645,0,0,0,.016-.123c0-.056.005-.1.005-.136v-.2c0-.077,0-.134,0-.173s-.005-.089-.013-.15a.431.431,0,0,0-.033-.136.727.727,0,0,0-.066-.1.259.259,0,0,0-.106-.085.917.917,0,0,0-.159-.047,1.122,1.122,0,0,0-.222-.02Zm-1.281,3.012v-5.279h1.518a1.608,1.608,0,0,1,1.194.384,1.533,1.533,0,0,1,.373,1.112,2.1,2.1,0,0,1-.082.622,1.216,1.216,0,0,1-.229.436,1.053,1.053,0,0,1-.377.275,1.929,1.929,0,0,1-.5.147,4.261,4.261,0,0,1-.621.046v2.258Z" transform="translate(25.533 60.042)" fill="#fff"/>
      </g>
    </g>
    <g id="Grupo_804" data-name="Grupo 804" transform="translate(702.87 7793.536)">
      <g id="Grupo_803" data-name="Grupo 803" transform="translate(0 0)">
        <path id="Caminho_3472" data-name="Caminho 3472" d="M-30.126-32.115h.649l-.317-1.959Zm-1.591,1.786,1.357-5.28h1.124l1.354,5.28h-1.253l-.258-1.13h-.82l-.245,1.13Z" transform="translate(31.717 35.608)" fill="#fff"/>
      </g>
    </g>
    <g id="Grupo_806" data-name="Grupo 806" transform="translate(708.825 7793.536)">
      <g id="Grupo_805" data-name="Grupo 805" transform="translate(0 0)">
        <path id="Caminho_3473" data-name="Caminho 3473" d="M0,5.28V0H1.27V4.546H2.52V5.28Z" fill="#fff"/>
      </g>
    </g>
    <g id="Grupo_808" data-name="Grupo 808" transform="translate(713.464 7793.536)">
      <g id="Grupo_807" data-name="Grupo 807" transform="translate(0 0)">
        <rect id="Retângulo_514" data-name="Retângulo 514" width="1.27" height="5.28" transform="translate(0 0)" fill="#fff"/>
      </g>
    </g>
    <g id="Grupo_810" data-name="Grupo 810" transform="translate(716.98 7793.427)">
      <g id="Grupo_809" data-name="Grupo 809" transform="translate(0 0)">
        <path id="Caminho_3474" data-name="Caminho 3474" d="M0-28.389,1.288-28.6q0,.161.007.285a1.84,1.84,0,0,0,.037.268.833.833,0,0,0,.08.237.448.448,0,0,0,.143.156.376.376,0,0,0,.218.063q.377,0,.377-.4a1.473,1.473,0,0,0-.743-1.1l-.394-.282c-.125-.088-.225-.161-.3-.22a3.244,3.244,0,0,1-.264-.237,1.572,1.572,0,0,1-.237-.289,1.467,1.467,0,0,1-.146-.336A1.4,1.4,0,0,1,0-30.876a1.215,1.215,0,0,1,.485-1.016,2.054,2.054,0,0,1,1.288-.374,1.689,1.689,0,0,1,1.134.4,1.224,1.224,0,0,1,.468.962l0,.038v.088l-1.312.153c0-.022,0-.056.005-.1s0-.083,0-.113a1.129,1.129,0,0,0-.017-.2A.92.92,0,0,0,2-31.237a.338.338,0,0,0-.124-.154.352.352,0,0,0-.2-.058.368.368,0,0,0-.314.138.522.522,0,0,0-.1.326.775.775,0,0,0,.061.308.845.845,0,0,0,.185.268,2.557,2.557,0,0,0,.229.207c.069.055.163.122.279.2s.2.137.248.174a5.109,5.109,0,0,1,.454.374,3.089,3.089,0,0,1,.349.395,1.616,1.616,0,0,1,.246.475,1.8,1.8,0,0,1,.082.551,1.088,1.088,0,0,1-.471.908,1.853,1.853,0,0,1-1.145.353,2.081,2.081,0,0,1-.775-.135,1.427,1.427,0,0,1-.546-.366,1.712,1.712,0,0,1-.319-.513,1.91,1.91,0,0,1-.129-.6" transform="translate(0 32.267)" fill="#fff"/>
      </g>
    </g>
    <g id="Grupo_812" data-name="Grupo 812" transform="translate(722.262 7793.536)">
      <g id="Grupo_811" data-name="Grupo 811" transform="translate(0 0)">
        <path id="Caminho_3475" data-name="Caminho 3475" d="M-17.437,5.28V.8h-.921V0h3.1V.8h-.9V5.28Z" transform="translate(18.358)" fill="#fff"/>
      </g>
    </g>
    <g id="Grupo_814" data-name="Grupo 814" transform="translate(727 7793.536)">
      <g id="Grupo_813" data-name="Grupo 813" transform="translate(0 0)">
        <path id="Caminho_3476" data-name="Caminho 3476" d="M-30.126-32.115h.649l-.317-1.959Zm-1.591,1.786,1.357-5.28h1.124l1.354,5.28h-1.253l-.258-1.13h-.82l-.245,1.13Z" transform="translate(31.717 35.608)" fill="#fff"/>
      </g>
    </g>
    <g id="Grupo_816" data-name="Grupo 816" transform="translate(641.494 7713)">
      <g id="Grupo_815" data-name="Grupo 815" transform="translate(0 0)">
        <path id="Caminho_3477" data-name="Caminho 3477" d="M0-47.671V-50.51a2.513,2.513,0,0,1,2.829-2.857,3.918,3.918,0,0,1,1.063.132,2.41,2.41,0,0,1,.78.365,1.956,1.956,0,0,1,.517.573,2.531,2.531,0,0,1,.293.739,3.975,3.975,0,0,1,.091.878v.474H3.719v-.564c0-.14,0-.263-.013-.37a2,2,0,0,0-.066-.353,1.006,1.006,0,0,0-.144-.32.7.7,0,0,0-.261-.21.9.9,0,0,0-.4-.085q-.89,0-.89,1.191v3.479q0,1.186.89,1.186t.884-1.231v-.644h-1.1V-49.3H5.652v4.146H4.32l-.245-.564a1.726,1.726,0,0,1-.7.522,2.3,2.3,0,0,1-.932.2,2.66,2.66,0,0,1-.94-.159,2.022,2.022,0,0,1-.7-.421,2.377,2.377,0,0,1-.461-.616,2.835,2.835,0,0,1-.266-.723A3.59,3.59,0,0,1,0-47.671" transform="translate(0 53.367)" fill="#fff"/>
      </g>
    </g>
    <g id="Grupo_818" data-name="Grupo 818" transform="translate(650.707 7713)">
      <g id="Grupo_817" data-name="Grupo 817" transform="translate(0 0)">
        <path id="Caminho_3478" data-name="Caminho 3478" d="M-69.5-42.718V-46.2q0-1.191-.869-1.191a.838.838,0,0,0-.442.109.656.656,0,0,0-.266.3,1.623,1.623,0,0,0-.12.376,2.227,2.227,0,0,0-.035.405v3.483q0,1.186.863,1.186t.869-1.186m-3.67-.367v-2.709q0-2.857,2.8-2.857t2.808,2.857v2.668a4.379,4.379,0,0,1-.085.893,2.718,2.718,0,0,1-.29.777,2.148,2.148,0,0,1-.522.624,2.33,2.33,0,0,1-.8.406,3.8,3.8,0,0,1-1.108.148,3.835,3.835,0,0,1-1.1-.146,2.378,2.378,0,0,1-.8-.394,2.076,2.076,0,0,1-.52-.609,2.686,2.686,0,0,1-.293-.768,4.228,4.228,0,0,1-.088-.89" transform="translate(73.167 48.65)" fill="#fff"/>
      </g>
    </g>
    <g id="Grupo_820" data-name="Grupo 820" transform="translate(659.419 7713.157)">
      <g id="Grupo_819" data-name="Grupo 819" transform="translate(0 0)">
        <path id="Caminho_3479" data-name="Caminho 3479" d="M-33.395,8.059-35.158,0h1.838l.847,4.885L-31.535,0h1.811l-1.9,8.059Z" transform="translate(35.158)" fill="#fff"/>
      </g>
    </g>
    <g id="Grupo_822" data-name="Grupo 822" transform="translate(668.105 7713.157)">
      <g id="Grupo_821" data-name="Grupo 821" transform="translate(0 0)">
        <path id="Caminho_3480" data-name="Caminho 3480" d="M0,8.059V0H4V1.119H1.939V3.313H3.4V4.459H1.939V6.94H4V8.059Z" fill="#fff"/>
      </g>
    </g>
    <g id="Grupo_824" data-name="Grupo 824" transform="translate(675.417 7713.157)">
      <g id="Grupo_823" data-name="Grupo 823" transform="translate(0 0)">
        <path id="Caminho_3481" data-name="Caminho 3481" d="M-36.719-90.446h.553a.6.6,0,0,0,.384-.125.71.71,0,0,0,.232-.318,2.063,2.063,0,0,0,.1-.354,1.688,1.688,0,0,0,.029-.3,1.9,1.9,0,0,0-.024-.3,2.156,2.156,0,0,0-.085-.339.657.657,0,0,0-.2-.3.519.519,0,0,0-.344-.119h-.644Zm-1.939,4.706V-93.8h2.109a6.23,6.23,0,0,1,1.265.114,3.091,3.091,0,0,1,.957.358,1.605,1.605,0,0,1,.623.658,2.141,2.141,0,0,1,.214.992,4.209,4.209,0,0,1-.021.448,2.517,2.517,0,0,1-.1.449,1.628,1.628,0,0,1-.211.448,1.668,1.668,0,0,1-.383.383,2.293,2.293,0,0,1-.591.313q.863,2.3,1.5,3.9H-35.3l-1.1-3.712h-.319v3.712Z" transform="translate(38.658 93.8)" fill="#fff"/>
      </g>
    </g>
    <g id="Grupo_826" data-name="Grupo 826" transform="translate(684.013 7713.152)">
      <g id="Grupo_825" data-name="Grupo 825" transform="translate(0 0)">
        <path id="Caminho_3482" data-name="Caminho 3482" d="M0,8.064V0H1.4L3.5,4.218V0H5.109V8.064H3.766l-2.1-4.473V8.064Z" fill="#fff"/>
      </g>
    </g>
    <g id="Grupo_828" data-name="Grupo 828" transform="translate(692.757 7713)">
      <g id="Grupo_827" data-name="Grupo 827" transform="translate(0 0)">
        <path id="Caminho_3483" data-name="Caminho 3483" d="M-69.5-42.718V-46.2q0-1.191-.869-1.191a.837.837,0,0,0-.442.109.657.657,0,0,0-.266.3,1.665,1.665,0,0,0-.12.376,2.227,2.227,0,0,0-.035.405v3.483q0,1.186.863,1.186t.869-1.186m-3.67-.367v-2.709q0-2.857,2.8-2.857t2.808,2.857v2.668a4.379,4.379,0,0,1-.085.893,2.718,2.718,0,0,1-.29.777,2.148,2.148,0,0,1-.522.624,2.334,2.334,0,0,1-.8.406,3.8,3.8,0,0,1-1.108.148,3.833,3.833,0,0,1-1.1-.146,2.381,2.381,0,0,1-.8-.394,2.082,2.082,0,0,1-.52-.609,2.7,2.7,0,0,1-.293-.768,4.228,4.228,0,0,1-.088-.89" transform="translate(73.167 48.65)" fill="#fff"/>
      </g>
    </g>
    <g id="Grupo_830" data-name="Grupo 830" transform="translate(706.805 7713.157)">
      <g id="Grupo_829" data-name="Grupo 829" transform="translate(0 0)">
        <path id="Caminho_3484" data-name="Caminho 3484" d="M-38.128-15.841c.184,0,.331,0,.437-.007a2.514,2.514,0,0,0,.32-.033.665.665,0,0,0,.234-.074A.5.5,0,0,0-37-16.092a.481.481,0,0,0,.082-.212,2.081,2.081,0,0,0,.019-.306v-4.339a.522.522,0,0,0-.283-.528,2.525,2.525,0,0,0-.948-.134ZM-40.142-14.7v-8.059h2a7.094,7.094,0,0,1,1.579.146,2.082,2.082,0,0,1,.974.479,1.75,1.75,0,0,1,.49.8,4.323,4.323,0,0,1,.136,1.187v2.641q0,.43-.032.75a3.508,3.508,0,0,1-.12.627,1.683,1.683,0,0,1-.24.52,1.874,1.874,0,0,1-.392.4,1.858,1.858,0,0,1-.578.291,4.56,4.56,0,0,1-.794.166,8.324,8.324,0,0,1-1.046.058Z" transform="translate(40.142 22.758)" fill="#fff"/>
      </g>
    </g>
    <g id="Grupo_832" data-name="Grupo 832" transform="translate(715.501 7713)">
      <g id="Grupo_831" data-name="Grupo 831" transform="translate(0 0)">
        <path id="Caminho_3485" data-name="Caminho 3485" d="M-69.5-42.718V-46.2q0-1.191-.869-1.191a.838.838,0,0,0-.442.109.657.657,0,0,0-.266.3,1.665,1.665,0,0,0-.12.376,2.229,2.229,0,0,0-.034.405v3.483q0,1.186.863,1.186t.869-1.186m-3.67-.367v-2.709q0-2.857,2.8-2.857t2.808,2.857v2.668a4.379,4.379,0,0,1-.085.893,2.718,2.718,0,0,1-.29.777,2.148,2.148,0,0,1-.522.624,2.33,2.33,0,0,1-.8.406,3.8,3.8,0,0,1-1.108.148,3.835,3.835,0,0,1-1.1-.146,2.378,2.378,0,0,1-.8-.394,2.076,2.076,0,0,1-.52-.609,2.686,2.686,0,0,1-.293-.768,4.228,4.228,0,0,1-.088-.89" transform="translate(73.167 48.65)" fill="#fff"/>
      </g>
    </g>
  </g>
</svg>
