<?xml version="1.0" encoding="UTF-8" standalone="no"?>
<!DOCTYPE svg PUBLIC "-//W3C//DTD SVG 1.1//EN" "http://www.w3.org/Graphics/SVG/1.1/DTD/svg11.dtd">
<svg width="100%" height="100%" viewBox="0 0 57 57" version="1.1" xmlns="http://www.w3.org/2000/svg" xmlns:xlink="http://www.w3.org/1999/xlink" xml:space="preserve" xmlns:serif="http://www.serif.com/" style="fill-rule:evenodd;clip-rule:evenodd;stroke-linejoin:round;stroke-miterlimit:2;">
    <path id="Elipse_118" d="M28.25,-0C12.753,0 0,12.753 0,28.25C0,43.747 12.753,56.5 28.25,56.5C43.747,56.5 56.5,43.747 56.5,28.25C56.5,28.243 56.5,28.237 56.5,28.23C56.5,12.743 43.757,-0 28.27,-0L28.25,-0ZM43.294,34.911C43.361,37.342 42.451,39.701 40.768,41.457C39.032,43.085 36.715,43.954 34.337,43.869L21.819,43.869C19.441,43.954 17.124,43.085 15.388,41.457C13.66,39.731 12.742,37.351 12.862,34.911L12.862,22.279C12.862,16.996 16.422,13.322 21.819,13.322L34.452,13.322C34.581,13.316 34.711,13.313 34.841,13.313C39.487,13.313 43.31,17.136 43.31,21.782C43.31,21.948 43.305,22.114 43.295,22.279L43.295,34.911L43.294,34.911ZM34.337,16.077L21.704,16.077C20.058,16.004 18.449,16.582 17.225,17.685C16.123,18.908 15.545,20.518 15.618,22.163L15.618,34.796C15.551,36.496 16.173,38.153 17.341,39.39C18.575,40.474 20.176,41.049 21.818,40.997L34.337,40.997C35.983,41.07 37.594,40.492 38.818,39.389C40.002,38.209 40.629,36.579 40.541,34.91L40.541,22.277C40.593,20.635 40.018,19.032 38.933,17.798C37.707,16.612 36.041,15.988 34.337,16.077ZM28.018,36.289C23.734,36.289 20.209,32.764 20.209,28.48C20.209,24.196 23.734,20.671 28.018,20.671C28.06,20.67 28.101,20.67 28.143,20.67C32.427,20.67 35.953,24.196 35.953,28.48C35.953,32.764 32.427,36.29 28.143,36.29C28.101,36.29 28.06,36.29 28.018,36.289ZM28.021,23.427C30.81,23.427 33.074,25.691 33.074,28.48C33.074,31.269 30.81,33.533 28.021,33.533C25.232,33.533 22.968,31.269 22.968,28.48C22.968,25.691 25.232,23.427 28.021,23.427ZM36.172,22.164C35.164,22.164 34.335,21.335 34.335,20.327C34.335,19.319 35.164,18.49 36.172,18.49C37.18,18.49 38.009,19.319 38.009,20.327C38.009,20.334 38.009,20.342 38.009,20.349C38.009,21.344 37.19,22.163 36.195,22.163C36.188,22.163 36.181,22.163 36.174,22.163L36.172,22.164Z" style="fill:rgb(45,48,146);"/>
</svg>
