<?xml version="1.0" encoding="UTF-8" standalone="no"?>
<!DOCTYPE svg PUBLIC "-//W3C//DTD SVG 1.1//EN" "http://www.w3.org/Graphics/SVG/1.1/DTD/svg11.dtd">
<svg width="100%" height="100%" viewBox="0 0 4090 1433" version="1.1" xmlns="http://www.w3.org/2000/svg" xmlns:xlink="http://www.w3.org/1999/xlink" xml:space="preserve" xmlns:serif="http://www.serif.com/" style="fill-rule:evenodd;clip-rule:evenodd;stroke-linejoin:round;stroke-miterlimit:2;">
    <g transform="matrix(1,0,0,1,0,-70.4156)">
        <path d="M3361.67,1151.27L3361.67,1439.82C3361.67,1459.31 3350.67,1476.37 3335.07,1476.37C3335.07,1476.37 737.602,1476.37 737.602,1476.37C721.998,1476.37 711.011,1459.31 711.011,1439.82L711.011,1132.82L684.344,1132.82L684.344,1439.82C684.344,1475.46 709.065,1503.04 737.602,1503.04L3335.07,1503.04C3363.6,1503.04 3388.34,1475.46 3388.34,1439.82L3388.34,1151.27L3361.67,1151.27ZM1212.41,1194.4C1221.94,1194.44 1230.05,1197.33 1236.74,1203.06C1243.49,1208.82 1246.88,1215.78 1246.88,1223.92L1246.8,1224.75L1246.8,1226.66L1218.38,1229.96C1218.38,1229.5 1218.42,1228.76 1218.49,1227.77C1218.57,1226.78 1218.62,1225.96 1218.62,1225.32C1218.62,1223.79 1218.48,1222.34 1218.23,1220.93C1217.99,1219.53 1217.56,1218.13 1216.98,1216.72C1216.41,1215.33 1215.51,1214.21 1214.31,1213.39C1213.12,1212.58 1211.68,1212.16 1210.01,1212.15L1209.93,1212.15C1206.9,1212.15 1204.63,1213.15 1203.11,1215.14C1201.61,1217.14 1200.86,1219.5 1200.86,1222.2C1200.86,1224.58 1201.3,1226.81 1202.18,1228.88C1203.06,1230.96 1204.39,1232.9 1206.19,1234.71C1207.97,1236.5 1209.63,1238.01 1211.13,1239.18C1212.64,1240.37 1214.66,1241.83 1217.18,1243.54C1219.7,1245.26 1221.48,1246.53 1222.53,1247.33C1226.42,1250.22 1229.69,1252.93 1232.36,1255.44C1235.03,1257.96 1237.55,1260.81 1239.92,1264C1242.29,1267.18 1244.06,1270.61 1245.25,1274.31C1246.43,1278 1247.03,1281.99 1247.03,1286.26C1247.03,1294.29 1243.63,1300.84 1236.83,1305.96C1230.07,1311.02 1221.9,1313.58 1212.27,1313.62L1212.04,1313.62C1205.74,1313.62 1200.15,1312.64 1195.26,1310.7C1190.38,1308.75 1186.43,1306.1 1183.43,1302.75C1180.44,1299.4 1178.13,1295.68 1176.52,1291.61C1174.92,1287.54 1173.98,1283.16 1173.73,1278.51L1201.61,1273.99L1201.61,1274.42C1201.62,1276.58 1201.66,1278.49 1201.75,1280.16C1201.87,1281.94 1202.12,1283.88 1202.56,1285.98C1202.98,1288.08 1203.56,1289.8 1204.29,1291.13C1205.03,1292.46 1206.05,1293.6 1207.38,1294.51C1208.72,1295.41 1210.3,1295.87 1212.11,1295.87L1212.24,1295.87C1217.59,1295.83 1220.27,1292.9 1220.27,1287.1C1220.27,1279.07 1214.91,1271.1 1204.18,1263.17L1195.63,1257.06C1192.92,1255.16 1190.76,1253.57 1189.14,1252.3C1187.53,1251.02 1185.63,1249.31 1183.43,1247.14C1181.23,1244.97 1179.53,1242.89 1178.3,1240.87C1177.06,1238.86 1176,1236.43 1175.12,1233.59C1174.24,1230.75 1173.8,1227.74 1173.8,1224.56C1173.8,1215.27 1177.31,1207.92 1184.32,1202.51C1191.3,1197.11 1200.61,1194.4 1212.18,1194.4L1212.41,1194.4ZM2854.26,1194.4C2863.8,1194.44 2871.91,1197.33 2878.6,1203.06C2885.35,1208.82 2888.74,1215.78 2888.74,1223.92L2888.65,1224.75L2888.65,1226.66L2860.25,1229.96C2860.25,1229.5 2860.28,1228.76 2860.35,1227.77C2860.43,1226.78 2860.48,1225.96 2860.48,1225.32C2860.48,1223.79 2860.35,1222.34 2860.09,1220.93C2859.85,1219.53 2859.42,1218.13 2858.85,1216.72C2858.26,1215.33 2857.37,1214.21 2856.16,1213.39C2854.97,1212.58 2853.54,1212.16 2851.87,1212.15L2851.79,1212.15C2848.75,1212.15 2846.49,1213.15 2844.97,1215.14C2843.47,1217.14 2842.72,1219.5 2842.72,1222.2C2842.72,1224.58 2843.15,1226.81 2844.04,1228.88C2844.92,1230.96 2846.25,1232.9 2848.05,1234.71C2849.83,1236.5 2851.49,1238.01 2852.99,1239.18C2854.5,1240.37 2856.52,1241.83 2859.03,1243.54C2861.56,1245.26 2863.34,1246.53 2864.4,1247.33C2868.28,1250.22 2871.55,1252.93 2874.22,1255.44C2876.89,1257.96 2879.41,1260.81 2881.78,1264C2884.15,1267.18 2885.92,1270.61 2887.11,1274.31C2888.3,1278 2888.89,1281.99 2888.89,1286.26C2888.89,1294.29 2885.49,1300.84 2878.69,1305.96C2871.93,1311.02 2863.75,1313.58 2854.12,1313.62L2853.9,1313.62C2847.6,1313.62 2842.01,1312.64 2837.12,1310.7C2832.24,1308.75 2828.29,1306.1 2825.3,1302.75C2822.3,1299.4 2819.99,1295.68 2818.38,1291.61C2816.78,1287.54 2815.84,1283.16 2815.59,1278.51L2843.47,1273.99L2843.47,1274.42C2843.48,1276.58 2843.53,1278.49 2843.61,1280.16C2843.72,1281.94 2843.98,1283.88 2844.41,1285.98C2844.85,1288.08 2845.42,1289.8 2846.15,1291.13C2846.88,1292.46 2847.91,1293.6 2849.25,1294.51C2850.58,1295.41 2852.16,1295.87 2853.96,1295.87L2854.09,1295.87C2859.45,1295.83 2862.13,1292.9 2862.13,1287.1C2862.13,1279.07 2856.77,1271.1 2846.04,1263.17L2837.5,1257.06C2834.78,1255.16 2832.61,1253.57 2831,1252.3C2829.39,1251.02 2827.48,1249.31 2825.3,1247.14C2823.1,1244.97 2821.39,1242.89 2820.16,1240.87C2818.92,1238.86 2817.86,1236.43 2816.98,1233.59C2816.1,1230.75 2815.65,1227.74 2815.65,1224.56C2815.65,1215.27 2819.17,1207.92 2826.17,1202.51C2833.16,1197.11 2842.46,1194.4 2854.04,1194.4L2854.26,1194.4ZM1944.57,1196.76L1944.57,1268.71C1944.57,1272.36 1944.45,1275.67 1944.2,1278.63C1943.94,1281.6 1943.47,1284.68 1942.76,1287.85C1942.06,1291.04 1941.1,1293.85 1939.89,1296.29C1938.68,1298.74 1937.07,1301.06 1935.05,1303.29C1933.04,1305.52 1930.66,1307.35 1927.91,1308.79C1925.15,1310.23 1921.86,1311.38 1917.97,1312.23C1914.09,1313.07 1909.75,1313.49 1904.9,1313.49L1904.89,1313.49C1900.06,1313.49 1895.7,1313.07 1891.81,1312.23C1887.95,1311.38 1884.64,1310.23 1881.92,1308.79C1879.2,1307.35 1876.84,1305.52 1874.81,1303.29C1872.8,1301.06 1871.19,1298.74 1869.97,1296.29C1868.77,1293.85 1867.81,1291.04 1867.07,1287.85C1866.35,1284.68 1865.85,1281.6 1865.59,1278.63C1865.36,1275.67 1865.21,1272.36 1865.21,1268.71L1865.21,1196.76L1892.74,1196.76L1892.74,1268C1892.74,1272.09 1892.76,1275.04 1892.81,1276.88C1892.85,1278.73 1892.99,1280.99 1893.18,1283.63C1893.39,1286.28 1893.75,1288.13 1894.24,1289.2C1894.75,1290.26 1895.45,1291.4 1896.32,1292.63C1897.2,1293.86 1898.36,1294.67 1899.77,1295.05C1901.17,1295.43 1902.88,1295.62 1904.9,1295.62C1906.91,1295.62 1908.62,1295.43 1910.02,1295.05C1911.45,1294.67 1912.59,1293.88 1913.47,1292.66C1914.35,1291.46 1915.04,1290.32 1915.55,1289.26C1916.05,1288.19 1916.4,1286.36 1916.61,1283.75C1916.79,1281.15 1916.93,1278.94 1916.98,1277.13C1917.03,1275.34 1917.06,1272.43 1917.06,1268.39L1917.06,1196.76L1944.57,1196.76ZM982.652,1194.53C988.187,1194.55 993.132,1195.18 997.463,1196.41C1001.87,1197.66 1005.56,1199.39 1008.54,1201.58C1011.51,1203.8 1013.96,1206.51 1015.87,1209.73C1017.78,1212.96 1019.16,1216.46 1020.02,1220.23C1020.87,1224.01 1021.31,1228.16 1021.31,1232.7L1021.31,1239.44L995.013,1239.44L995.013,1231.42C995.013,1229.44 994.938,1227.69 994.822,1226.18C994.697,1224.67 994.388,1223 993.872,1221.16C993.38,1219.31 992.697,1217.79 991.83,1216.61C990.988,1215.42 989.747,1214.42 988.13,1213.62C986.547,1212.82 984.673,1212.42 982.492,1212.41L982.388,1212.41C973.98,1212.41 969.78,1218.05 969.78,1229.33L969.78,1278.76C969.78,1290 973.98,1295.62 982.388,1295.62L982.486,1295.62C990.788,1295.58 994.93,1289.74 994.93,1278.13L994.93,1268.97L979.363,1268.97L979.363,1252.36L1022.44,1252.36L1022.44,1311.28L1003.56,1311.28L1000.08,1303.26C997.755,1306.31 994.455,1308.78 990.172,1310.67C985.963,1312.53 981.618,1313.46 977.159,1313.49L976.947,1313.49C972.055,1313.49 967.613,1312.74 963.613,1311.23C959.605,1309.73 956.313,1307.74 953.713,1305.26C951.122,1302.78 948.947,1299.86 947.172,1296.51C945.413,1293.16 944.155,1289.73 943.397,1286.24C942.647,1282.74 942.272,1279.13 942.272,1275.46L942.272,1235.12C942.272,1208.16 955.534,1194.63 982.075,1194.53L982.652,1194.53ZM2252.68,1242.56L2252.68,1232C2252.68,1229.92 2252.64,1228.12 2252.54,1226.62C2252.42,1225.11 2252.17,1223.41 2251.73,1221.47C2251.3,1219.55 2250.72,1217.98 2249.99,1216.76C2249.26,1215.55 2248.19,1214.53 2246.74,1213.68C2245.31,1212.83 2243.59,1212.41 2241.57,1212.41C2233.62,1212.41 2229.65,1218.05 2229.65,1229.33L2229.65,1278.76C2229.65,1290 2233.62,1295.62 2241.57,1295.62C2243.95,1295.62 2245.93,1295.06 2247.54,1293.9C2249.16,1292.76 2250.31,1291.13 2251.01,1289.03C2251.72,1286.93 2252.2,1284.88 2252.44,1282.86C2252.7,1280.85 2252.84,1278.56 2252.84,1275.96L2252.84,1264.19L2279.75,1264.19L2279.75,1273.86C2279.64,1278.23 2279.22,1282.26 2278.46,1285.95C2277.69,1289.64 2276.42,1293.22 2274.6,1296.71C2272.79,1300.17 2270.49,1303.11 2267.69,1305.51C2264.89,1307.91 2261.28,1309.84 2256.84,1311.31C2252.41,1312.76 2247.33,1313.49 2241.58,1313.49L2241.57,1313.49C2235.68,1313.49 2230.44,1312.79 2225.9,1311.36C2221.34,1309.95 2217.58,1308.04 2214.64,1305.64C2211.68,1303.25 2209.25,1300.3 2207.34,1296.8C2205.43,1293.31 2204.08,1289.61 2203.29,1285.76C2202.52,1281.91 2202.13,1277.66 2202.13,1273.03L2202.13,1235.11C2202.13,1208.06 2215.28,1194.52 2241.57,1194.52L2241.58,1194.52C2247.13,1194.52 2252.04,1195.16 2256.36,1196.41C2260.66,1197.66 2264.28,1199.39 2267.2,1201.59C2270.12,1203.8 2272.53,1206.51 2274.42,1209.73C2276.3,1212.96 2277.67,1216.46 2278.5,1220.24C2279.33,1224.01 2279.75,1228.16 2279.75,1232.71L2279.75,1242.56L2252.68,1242.56ZM1558.4,1194.52C1584.74,1194.63 1597.91,1208.17 1597.91,1235.12L1597.91,1273.03C1597.91,1277.62 1597.51,1281.85 1596.7,1285.73C1595.9,1289.61 1594.53,1293.3 1592.59,1296.76C1590.65,1300.25 1588.17,1303.2 1585.18,1305.64C1582.19,1308.08 1578.39,1310 1573.81,1311.39C1569.29,1312.77 1564.15,1313.47 1558.36,1313.49L1558.09,1313.49C1552.25,1313.49 1547.03,1312.81 1542.46,1311.43C1537.87,1310.05 1534.1,1308.19 1531.11,1305.83C1528.15,1303.48 1525.69,1300.59 1523.75,1297.18C1521.81,1293.76 1520.42,1290.12 1519.6,1286.26C1518.76,1282.41 1518.35,1278.19 1518.35,1273.61L1518.35,1235.12C1518.35,1208.06 1531.59,1194.52 1558.09,1194.52L1558.4,1194.52ZM2123.03,1311.28L2123.03,1196.76L2150.58,1196.76L2150.58,1311.28L2123.03,1311.28ZM2329.72,1311.28L2329.72,1196.76L2357.24,1196.76L2357.24,1311.28L2329.72,1311.28ZM2766.96,1311.28L2739.44,1311.28L2739.44,1196.76L2766.96,1196.76L2766.96,1311.28ZM2069.74,1196.7L2069.74,1311.27L2050.69,1311.27L2020.93,1247.76L2020.93,1311.27L1997.27,1311.27L1997.27,1196.7L2017.09,1196.7L2046.92,1256.59L2046.92,1196.7L2069.74,1196.7ZM2929.95,1196.76L2996.97,1196.76L2996.97,1214.06L2977.41,1214.06L2977.41,1311.27L2949.9,1311.27L2949.9,1214.06L2929.95,1214.06L2929.95,1196.76ZM1288.09,1196.76L1355.11,1196.76L1355.11,1214.06L1335.55,1214.06L1335.55,1311.27L1308.04,1311.27L1308.04,1214.06L1288.09,1214.06L1288.09,1196.76ZM1131.46,1212.66L1102.21,1212.66L1102.21,1243.83L1122.9,1243.83L1122.9,1260.13L1102.21,1260.13L1102.21,1295.37L1131.46,1295.37L1131.46,1311.27L1074.7,1311.27L1074.7,1196.76L1131.46,1196.76L1131.46,1212.66ZM2666.5,1295.37L2693.54,1295.37L2693.54,1311.27L2638.98,1311.27L2638.98,1196.76L2666.5,1196.76L2666.5,1295.37ZM1717.61,1311.27L1717.61,1196.76L1750.56,1196.76L1765.06,1273.11L1780.71,1196.76L1812.52,1196.76L1812.52,1311.27L1792.26,1311.27L1791.66,1230.72C1790.16,1239.01 1787.51,1252.42 1783.74,1271.01C1780.06,1289 1777.46,1302.16 1775.93,1310.48L1775.79,1311.27L1755.25,1311.27L1738.54,1230.21L1737.92,1311.27L1717.61,1311.27ZM3082.86,1286.77L3065.11,1286.77L3059.83,1311.27L3032.53,1311.27L3061.93,1196.75L3086.27,1196.75L3115.6,1311.27L3088.45,1311.27L3082.86,1286.77ZM2593.08,1311.27L2565.94,1311.27L2560.35,1286.77L2542.59,1286.77L2537.31,1311.27L2510.03,1311.27L2539.42,1196.75L2563.75,1196.75L2593.08,1311.27ZM1473.72,1311.27L1446.58,1311.27L1441,1286.77L1423.24,1286.77L1417.95,1311.27L1390.67,1311.27L1420.07,1196.75L1444.4,1196.75L1473.72,1311.27ZM2410.54,1311.27L2410.54,1196.76L2443.42,1196.76C2455.25,1196.76 2463.86,1199.54 2469.27,1205.09C2474.65,1210.64 2477.34,1218.68 2477.34,1229.2C2477.34,1234.38 2476.75,1238.87 2475.57,1242.69C2474.39,1246.5 2472.74,1249.65 2470.63,1252.14C2468.5,1254.62 2465.78,1256.61 2462.45,1258.11C2459.13,1259.63 2455.53,1260.69 2451.64,1261.29C2447.78,1261.91 2443.28,1262.24 2438.19,1262.29L2438.19,1311.27L2410.54,1311.27ZM1558.09,1212.4C1555.63,1212.4 1553.53,1212.93 1551.82,1213.96C1550.1,1215 1548.84,1216.42 1548.04,1218.23C1547.24,1220.03 1546.66,1221.81 1546.34,1223.57C1546.01,1225.34 1545.86,1227.25 1545.86,1229.33L1545.86,1278.82C1545.86,1290.06 1549.93,1295.68 1558.09,1295.68L1558.18,1295.68C1566.33,1295.63 1570.41,1290.02 1570.41,1278.82L1570.41,1229.33C1570.41,1218.1 1566.33,1212.45 1558.18,1212.4L1558.09,1212.4ZM2551.66,1230.03L2544.48,1272.52L2558.54,1272.52L2551.66,1230.03ZM3066.99,1272.52L3081.05,1272.52L3074.17,1230.05L3066.99,1272.52ZM1432.31,1230.03L1425.12,1272.52L1439.18,1272.52L1432.31,1230.03ZM2438.27,1213.23L2438.27,1245.94L2438.41,1245.93C2439.82,1245.93 2441.07,1245.86 2442.17,1245.72C2443.3,1245.56 2444.29,1245.39 2445.15,1245.21C2446,1245.01 2446.77,1244.66 2447.43,1244.15C2448.08,1243.64 2448.61,1243.2 2449.03,1242.81C2449.48,1242.44 2449.84,1241.81 2450.14,1240.94C2450.44,1240.07 2450.66,1239.35 2450.83,1238.81C2450.97,1238.26 2451.09,1237.36 2451.16,1236.14C2451.24,1234.91 2451.28,1233.92 2451.28,1233.18L2451.28,1228.75C2451.28,1227.1 2451.26,1225.85 2451.24,1225.01C2451.21,1224.15 2451.13,1223.08 2450.97,1221.75C2450.83,1220.44 2450.59,1219.46 2450.24,1218.8C2449.92,1218.14 2449.45,1217.39 2448.82,1216.54C2448.18,1215.69 2447.43,1215.08 2446.51,1214.7C2445.6,1214.31 2444.46,1213.97 2443.08,1213.68C2441.74,1213.39 2440.19,1213.24 2438.44,1213.23L2438.27,1213.23ZM1421.45,1168.31C1425.09,1168.33 1429.45,1168.96 1434.53,1170.16C1439.71,1171.39 1442.86,1172 1444.03,1172L1444.11,1172C1444.86,1171.99 1445.45,1171.84 1445.87,1171.53C1446.3,1171.21 1446.53,1170.89 1446.58,1170.57C1446.63,1170.25 1446.66,1169.75 1446.66,1169.08L1458.38,1169.08C1458.38,1181.67 1454.49,1187.99 1446.67,1188.04L1446.58,1188.04C1444.08,1188.04 1440.21,1187.26 1435,1185.72C1429.78,1184.17 1425.99,1183.39 1423.62,1183.39C1422.87,1183.39 1422.23,1183.49 1421.73,1183.68C1421.23,1183.88 1420.86,1184.06 1420.63,1184.22C1420.41,1184.39 1420.23,1184.73 1420.11,1185.24C1419.98,1185.75 1419.92,1186.06 1419.92,1186.19L1419.92,1187.34L1407.29,1187.34C1407.29,1185.18 1407.39,1183.27 1407.56,1181.62C1407.74,1179.95 1408.13,1178.27 1408.73,1176.52C1409.33,1174.79 1410.13,1173.34 1411.12,1172.19C1412.1,1171.05 1413.45,1170.12 1415.16,1169.39C1416.85,1168.69 1418.85,1168.32 1421.16,1168.31L1421.45,1168.31ZM1257.87,1065.3C1183.8,1065.3 1114.81,1038.44 1063.61,989.637C1011.4,939.871 982.647,871.679 982.647,797.612C982.647,724.212 1012.11,657.337 1065.64,609.279C1116.55,563.571 1184.77,538.154 1257.72,537.737C1342.33,537.737 1415.22,570.446 1468.69,632.321C1477.81,642.871 1476.34,658.787 1465.44,667.537L1403.06,717.554C1392.3,726.179 1376.48,724.471 1367.86,713.746L1367.85,713.737C1340.3,679.479 1303.29,662.096 1257.87,662.096C1221,662.429 1186.63,675.846 1161.35,699.862C1134.91,724.962 1120.94,758.762 1120.94,797.612C1120.94,879.321 1179.81,940.929 1257.87,940.929C1306.4,940.929 1344.92,923.112 1372.38,887.996C1381.16,876.762 1397.69,875.162 1408.51,884.512L1470.89,938.437C1481.24,947.387 1482.31,962.946 1473.3,973.212C1421.11,1032.6 1344.61,1065.3 1257.87,1065.3ZM3867.86,849.752C3814.94,849.578 3772.98,838.348 3743.17,816.362C3707.5,790.054 3689.41,749.596 3689.41,696.104C3689.41,623.862 3721.69,537.737 3875.42,537.737L4053.02,537.737C4073.06,537.737 4089.31,553.987 4089.31,574.029L4089.31,625.537C4089.31,645.501 4073.18,661.702 4053.26,661.828L4053.02,661.829L3878.58,661.829C3826.14,661.829 3826.14,669.671 3826.14,692.954C3826.14,712.679 3831.28,716.079 3833.22,717.354C3843.06,723.869 3868.24,724.072 3877.72,724.079L3878.58,724.079L3911.75,724.079C3966.3,724.079 4009.18,738.121 4039.2,765.821C4070.72,794.929 4086.71,837.621 4086.71,892.712C4086.71,947.204 4066.86,991.479 4029.33,1020.75C3996.85,1046.09 3951.73,1059.57 3898.78,1059.78L3897.53,1059.78L3726.37,1059.78C3706.32,1059.78 3690.08,1043.53 3690.08,1023.49L3690.08,971.971C3690.08,951.929 3706.32,935.679 3726.37,935.679L3894.37,935.679L3895.36,935.677C3936.67,935.515 3949.97,924.992 3949.97,892.712C3949.97,874.287 3947.27,862.396 3941.96,857.412C3936.53,852.337 3923.97,849.754 3904.63,849.754L3869.11,849.754L3867.86,849.752ZM2459.26,537.739C2467.63,537.845 2474.39,544.67 2474.39,553.071L2474.39,1044.45C2474.39,1052.85 2467.63,1059.67 2459.26,1059.78L2459.06,1059.78L2376.77,1059.78C2371.98,1059.78 2367.46,1057.53 2364.57,1053.71L2148.29,768.662L2148.29,1044.45C2148.29,1052.85 2141.53,1059.67 2133.16,1059.78L2132.97,1059.78L2030.85,1059.78C2022.38,1059.78 2015.52,1052.91 2015.52,1044.45L2015.52,553.071C2015.52,544.604 2022.38,537.737 2030.85,537.737L2120.22,537.737C2125.02,537.737 2129.54,539.979 2132.44,543.796L2343.98,822.554L2343.98,553.071C2343.98,544.604 2350.85,537.737 2359.32,537.737L2459.06,537.737L2459.26,537.739ZM3286.64,537.738C3289.85,537.785 3292.86,539.303 3294.81,541.862L3507.81,822.554L3507.81,548.179C3507.81,542.412 3512.48,537.737 3518.25,537.737L3627.78,537.737C3633.55,537.737 3638.22,542.412 3638.22,548.179L3638.22,1049.33C3638.22,1055.05 3633.62,1059.71 3627.91,1059.78L3627.78,1059.78L3538.18,1059.78C3534.92,1059.78 3531.84,1058.25 3529.86,1055.65L3312.12,768.662L3312.12,1049.33C3312.12,1055.05 3307.52,1059.71 3301.82,1059.78L3301.68,1059.78L3189.79,1059.78C3184.02,1059.78 3179.34,1055.1 3179.34,1049.33L3179.34,548.179C3179.34,542.412 3184.02,537.737 3189.79,537.737L3286.48,537.737L3286.64,537.738ZM3016.5,1059.78C2993.94,1059.78 2975.64,1041.49 2975.64,1018.92L2975.64,578.585C2975.64,556.026 2993.94,537.735 3016.5,537.735L3069.94,537.735C3092.5,537.735 3110.79,556.026 3110.79,578.585L3110.79,1018.92C3110.79,1041.4 3092.64,1059.63 3070.21,1059.78L3069.94,1059.78L3016.5,1059.78ZM414.928,538.218C433.585,538.336 448.667,553.49 448.667,572.176L448.667,668.859C448.667,687.536 433.585,702.699 414.928,702.817L414.708,702.817L315.942,702.817C315.042,702.817 314.308,703.551 314.308,704.451L314.308,1025.82C314.308,1044.5 299.227,1059.66 280.57,1059.78L280.35,1059.78L169.217,1059.78C150.458,1059.78 135.258,1044.58 135.258,1025.82L135.258,704.451C135.258,703.551 134.525,702.817 133.625,702.817L33.967,702.817L33.747,702.817C15.098,702.699 0,687.536 0,668.859L0,572.176C0,553.417 15.217,538.217 33.967,538.217L414.708,538.217L414.928,538.218ZM2894.23,538.435C2911.24,538.557 2924.98,554.268 2924.98,573.634L2924.98,667.767C2924.98,687.133 2911.24,702.844 2894.23,702.967L2894.03,702.967L2806.9,702.967L2806.9,1024.58C2806.9,1043.94 2793.15,1059.65 2776.15,1059.78L2775.95,1059.78L2680.48,1059.78C2663.39,1059.78 2649.53,1044.02 2649.53,1024.58L2649.53,702.967L2561.61,702.967L2561.41,702.967C2544.41,702.844 2530.66,687.133 2530.66,667.767L2530.66,573.634C2530.66,554.192 2544.52,538.434 2561.61,538.434L2894.03,538.434L2894.23,538.435ZM2000.42,1059.78L1854.92,1059.78L1820.17,965.817L1658.17,965.817L1622.63,1059.78L1478.01,1059.78L1683.96,536.159L1795.34,536.159L2000.42,1059.78ZM711.788,538.215C854.846,538.681 970.657,655.26 970.657,798.997C970.657,942.726 854.846,1059.31 711.788,1059.77L710.948,1059.77C567.515,1059.77 451.24,943.014 451.24,798.997C451.24,654.972 567.515,538.214 710.948,538.214L711.788,538.215ZM1697,843.301L1780.03,843.301L1738.72,734.992L1697,843.301ZM3388.34,422.182L3388.34,133.632C3388.34,97.991 3363.6,70.416 3335.07,70.416L737.602,70.416C709.065,70.416 684.344,97.99 684.344,133.632L684.344,440.632L711.011,440.632L711.011,133.632C711.011,114.143 721.998,97.082 737.602,97.082C737.602,97.082 3335.07,97.082 3335.07,97.082C3350.67,97.082 3361.67,114.142 3361.67,133.632C3361.67,133.632 3361.67,422.182 3361.67,422.182L3388.34,422.182ZM1267.33,254.119C1275.24,254.146 1282.32,255.046 1288.53,256.801C1294.84,258.601 1300.13,261.076 1304.38,264.235C1308.63,267.385 1312.13,271.276 1314.87,275.885C1317.62,280.51 1319.59,285.51 1320.82,290.926C1322.05,296.326 1322.67,302.276 1322.67,308.776L1322.67,318.435L1285.01,318.435L1285.01,306.951C1285.01,304.101 1284.92,301.601 1284.74,299.435C1284.56,297.285 1284.11,294.885 1283.38,292.235C1282.67,289.601 1281.69,287.435 1280.48,285.735C1279.24,284.035 1277.47,282.601 1275.17,281.443C1272.92,280.329 1270.28,279.755 1267.25,279.72L1266.95,279.718C1254.89,279.718 1248.88,287.793 1248.88,303.951L1248.88,374.726C1248.88,390.826 1254.89,398.876 1266.95,398.876L1267.23,398.875C1279.01,398.746 1284.9,390.388 1284.9,373.818L1284.9,360.701L1262.61,360.701L1262.61,336.926L1324.28,336.926L1324.28,421.285L1297.23,421.285L1292.26,409.801C1288.94,414.185 1284.23,417.718 1278.08,420.426C1272.04,423.076 1265.84,424.434 1259.45,424.475L1259.15,424.476C1252.14,424.476 1245.78,423.393 1240.06,421.235C1234.31,419.085 1229.59,416.235 1225.88,412.676C1222.16,409.118 1219.03,404.943 1216.52,400.151C1213.99,395.351 1212.19,390.451 1211.1,385.435C1210.02,380.418 1209.48,375.276 1209.48,369.993L1209.48,312.243C1209.48,273.644 1228.49,254.27 1266.5,254.119L1267.33,254.119ZM2770.05,254.118C2807.77,254.269 2826.63,273.643 2826.63,312.242L2826.63,366.534C2826.63,373.092 2826.06,379.151 2824.91,384.709C2823.74,390.267 2821.78,395.534 2819.01,400.517C2816.23,405.492 2812.7,409.726 2808.39,413.226C2804.11,416.717 2798.68,419.459 2792.12,421.467C2785.65,423.436 2778.28,424.444 2770,424.475L2769.61,424.476C2761.25,424.476 2753.78,423.484 2747.21,421.517C2740.64,419.534 2735.24,416.867 2730.98,413.492C2726.72,410.126 2723.21,406.001 2720.43,401.109C2717.65,396.217 2715.68,391.009 2714.48,385.484C2713.29,379.959 2712.7,373.917 2712.7,367.359L2712.7,312.242C2712.7,273.492 2731.66,254.117 2769.61,254.117L2770.05,254.118ZM1453.98,254.118C1491.68,254.269 1510.55,273.643 1510.55,312.242L1510.55,366.534C1510.55,373.092 1509.98,379.151 1508.83,384.709C1507.66,390.267 1505.7,395.534 1502.94,400.517C1500.15,405.492 1496.62,409.726 1492.32,413.226C1488.03,416.717 1482.6,419.459 1476.04,421.467C1469.57,423.436 1462.2,424.444 1453.93,424.475L1453.54,424.476C1445.17,424.476 1437.69,423.484 1431.13,421.517C1424.56,419.534 1419.17,416.867 1414.9,413.492C1410.64,410.126 1407.13,406.001 1404.35,401.109C1401.57,396.217 1399.6,391.009 1398.41,385.484C1397.22,379.959 1396.62,373.917 1396.62,367.359L1396.62,312.242C1396.62,273.492 1415.59,254.117 1453.54,254.117L1453.98,254.118ZM2308.08,254.118C2345.79,254.269 2364.66,273.643 2364.66,312.242L2364.66,366.534C2364.66,373.092 2364.08,379.151 2362.93,384.709C2361.76,390.267 2359.8,395.534 2357.04,400.517C2354.26,405.492 2350.72,409.726 2346.42,413.226C2342.13,416.717 2336.7,419.459 2330.14,421.467C2323.67,423.436 2316.3,424.444 2308.03,424.475L2307.64,424.476C2299.27,424.476 2291.8,423.484 2285.23,421.517C2278.66,419.534 2273.27,416.867 2269.01,413.492C2264.74,410.126 2261.23,406.001 2258.45,401.109C2255.67,396.217 2253.7,391.009 2252.51,385.484C2251.32,379.959 2250.72,373.917 2250.72,367.359L2250.72,312.242C2250.72,273.492 2269.69,254.117 2307.64,254.117L2308.08,254.118ZM1898.52,421.287L1898.52,257.312L1941.37,257.312C1951.1,257.312 1959.67,258.079 1967.07,259.629C1974.46,261.187 1980.93,263.612 1986.49,266.912C1992.04,270.229 1996.26,274.696 1999.15,280.304C2002.03,285.929 2003.47,292.654 2003.47,300.496C2003.47,303.896 2003.34,306.929 2003.04,309.596C2002.75,312.271 2002.09,315.329 2001.04,318.754C2000,322.187 1998.57,325.221 1996.77,327.871C1994.97,330.504 1992.36,333.104 1988.98,335.654C1985.59,338.204 1981.59,340.321 1976.97,342.021C1988.29,372.271 1998.19,398.009 2006.67,419.246L2007.49,421.287L1966.68,421.287L1944.4,345.762L1937.91,345.762L1937.91,421.287L1898.52,421.287ZM2073.11,421.283L2073.11,257.216L2101.45,257.216L2144.2,343.033L2144.2,257.216L2176.87,257.216L2176.87,421.283L2149.6,421.283L2106.96,330.275L2106.96,421.283L2073.11,421.283ZM1628.11,356.7L1647.16,257.316L1683.94,257.316L1645.42,421.283L1609.39,421.283L1573.58,257.316L1610.91,257.316L1628.11,356.7ZM1831.27,280.083L1789.4,280.083L1789.4,324.725L1819.04,324.725L1819.04,348.041L1789.4,348.041L1789.4,398.508L1831.27,398.508L1831.27,421.283L1750.02,421.283L1750.02,257.316L1831.27,257.316L1831.27,280.083ZM2536.06,421.282L2536.06,257.316L2576.74,257.316C2589.72,257.316 2600.41,258.299 2608.81,260.274C2617.22,262.241 2623.82,265.499 2628.61,270.007C2633.41,274.541 2636.73,279.966 2638.58,286.274C2640.41,292.591 2641.33,300.641 2641.33,310.424L2641.33,364.166C2641.33,369.991 2641.11,375.082 2640.68,379.424C2640.26,383.774 2639.44,388.024 2638.24,392.174C2637.06,396.332 2635.43,399.857 2633.38,402.749C2631.32,405.632 2628.66,408.316 2625.42,410.807C2622.17,413.299 2618.26,415.274 2613.69,416.732C2609.1,418.191 2603.73,419.307 2597.57,420.099C2591.59,420.866 2584.76,421.257 2577.05,421.281L2576.3,421.282L2536.06,421.282ZM2769.61,279.726C2766.08,279.726 2763.08,280.467 2760.63,281.959C2758.18,283.434 2756.38,285.476 2755.23,288.051C2754.06,290.634 2753.26,293.184 2752.78,295.709C2752.32,298.226 2752.08,300.976 2752.08,303.951L2752.08,374.826C2752.08,390.926 2757.92,398.967 2769.61,398.967L2769.88,398.966C2781.45,398.841 2787.25,390.8 2787.25,374.826L2787.25,303.951C2787.25,287.918 2781.45,279.852 2769.88,279.727L2769.61,279.726ZM2307.64,279.726C2304.11,279.726 2301.11,280.467 2298.66,281.959C2296.2,283.434 2294.41,285.476 2293.25,288.051C2292.09,290.634 2291.28,293.184 2290.8,295.709C2290.34,298.226 2290.11,300.976 2290.11,303.951L2290.11,374.826C2290.11,390.926 2295.94,398.967 2307.64,398.967L2307.91,398.966C2319.48,398.841 2325.27,390.8 2325.27,374.826L2325.27,303.951C2325.27,287.918 2319.48,279.852 2307.91,279.727L2307.64,279.726ZM1453.54,279.726C1450,279.726 1447,280.467 1444.55,281.959C1442.1,283.434 1440.3,285.476 1439.14,288.051C1437.99,290.634 1437.18,293.184 1436.7,295.709C1436.24,298.226 1436,300.976 1436,303.951L1436,374.826C1436,390.926 1441.84,398.967 1453.54,398.967L1453.81,398.966C1465.38,398.841 1471.17,390.8 1471.17,374.826L1471.17,303.951C1471.17,287.918 1465.38,279.852 1453.81,279.727L1453.54,279.726ZM2576.96,280.632L2576.96,398.049L2578.33,398.047C2581.43,398.04 2583.93,398.003 2585.82,397.916C2587.99,397.832 2590.15,397.599 2592.31,397.232C2594.49,396.874 2596.06,396.374 2597.08,395.732C2598.09,395.099 2599.02,394.166 2599.89,392.949C2600.76,391.732 2601.32,390.291 2601.57,388.624C2601.81,386.949 2601.95,384.874 2601.95,382.391L2601.95,294.107C2601.95,288.707 2600.03,285.124 2596.21,283.366C2592.45,281.635 2586.17,280.719 2577.38,280.636L2576.96,280.632ZM1949.3,325.537C1952.27,325.511 1954.81,324.661 1956.95,322.987C1959.12,321.287 1960.68,319.129 1961.65,316.521C1962.63,313.904 1963.32,311.521 1963.72,309.321C1964.11,307.137 1964.31,305.071 1964.31,303.129C1964.31,301.187 1964.13,299.179 1963.82,297.121C1963.49,295.054 1962.92,292.762 1962.09,290.237C1961.27,287.721 1959.89,285.662 1957.97,284.046C1956.07,282.446 1953.74,281.629 1951,281.629L1937.91,281.629L1937.91,325.537L1949.16,325.537L1949.3,325.537Z" style="fill:rgb(46,48,146);fill-rule:nonzero;"/>
        <g transform="matrix(8.33333,0,0,8.33333,873.213,798.28)">
            <path d="M0,0.171C-3.718,0.615 -7.436,1.058 -11.153,1.502C-11.167,1.567 -11.181,1.634 -11.195,1.699C-10.354,2.216 -9.513,2.734 -8.491,3.362L-11.885,3.362C-11.077,4.142 -10.363,4.832 -9.649,5.522C-9.671,5.585 -9.692,5.649 -9.715,5.712C-10.626,5.472 -11.537,5.232 -12.448,4.992C-12.497,5.052 -12.547,5.112 -12.597,5.172C-10.264,8.206 -7.932,11.24 -5.6,14.273C-5.634,14.31 -5.667,14.348 -5.701,14.384L-14.604,7.104C-14.649,7.139 -14.694,7.174 -14.74,7.209C-14.508,8.17 -14.273,9.131 -14.04,10.092C-14.095,10.127 -14.149,10.161 -14.203,10.196C-14.841,9.496 -15.478,8.796 -16.265,7.931L-16.265,11.004C-16.332,11.025 -16.399,11.047 -16.468,11.069C-16.949,10.248 -17.43,9.427 -17.911,8.606C-17.97,8.607 -18.028,8.608 -18.086,8.609L-19.371,20.003C-19.437,20.007 -19.502,20.01 -19.568,20.013C-19.995,16.218 -20.423,12.423 -20.851,8.629L-21.022,8.577C-21.498,9.403 -21.974,10.23 -22.449,11.056C-22.502,11.046 -22.556,11.036 -22.608,11.025L-22.608,8.17C-22.673,8.14 -22.737,8.109 -22.802,8.078C-23.447,8.784 -24.094,9.49 -24.739,10.196C-24.796,10.16 -24.852,10.124 -24.907,10.089C-24.672,9.129 -24.437,8.169 -24.201,7.209C-24.251,7.176 -24.301,7.144 -24.35,7.112C-27.31,9.534 -30.271,11.956 -33.23,14.379C-33.269,14.344 -33.306,14.31 -33.343,14.276C-31.01,11.242 -28.678,8.207 -26.346,5.173C-26.383,5.114 -26.421,5.055 -26.459,4.996C-27.384,5.232 -28.309,5.467 -29.232,5.703C-29.259,5.652 -29.284,5.601 -29.31,5.551C-28.595,4.856 -27.881,4.161 -27.059,3.362L-30.433,3.362C-29.43,2.732 -28.59,2.205 -27.751,1.679C-27.767,1.619 -27.783,1.56 -27.8,1.5C-31.515,1.057 -35.23,0.613 -38.946,0.17C-38.945,0.113 -38.945,0.056 -38.944,-0.001L-27.788,-1.333C-27.775,-1.394 -27.764,-1.455 -27.751,-1.516C-28.59,-2.038 -29.429,-2.562 -30.267,-3.084C-30.25,-3.139 -30.232,-3.194 -30.216,-3.248C-29.229,-3.204 -28.241,-3.159 -27.254,-3.114C-27.222,-3.168 -27.188,-3.222 -27.155,-3.276C-27.875,-3.982 -28.594,-4.689 -29.313,-5.395C-29.284,-5.444 -29.256,-5.493 -29.228,-5.542C-28.317,-5.303 -27.407,-5.066 -26.497,-4.827C-26.446,-4.885 -26.396,-4.944 -26.347,-5.002C-28.678,-8.036 -31.009,-11.069 -33.34,-14.103C-33.307,-14.14 -33.273,-14.177 -33.239,-14.214C-30.275,-11.79 -27.311,-9.366 -24.347,-6.942C-24.302,-6.978 -24.258,-7.014 -24.213,-7.05C-24.44,-8.012 -24.668,-8.973 -24.896,-9.934C-24.843,-9.964 -24.789,-9.995 -24.736,-10.025C-24.097,-9.325 -23.457,-8.624 -22.657,-7.748L-22.657,-10.839C-22.595,-10.858 -22.532,-10.876 -22.469,-10.894L-21.024,-8.427C-20.968,-8.432 -20.911,-8.437 -20.854,-8.441C-20.427,-12.24 -19.998,-16.039 -19.57,-19.837L-19.373,-19.842L-18.09,-8.452C-18.031,-8.439 -17.972,-8.425 -17.913,-8.412C-17.439,-9.239 -16.966,-10.066 -16.491,-10.893C-16.432,-10.879 -16.373,-10.864 -16.313,-10.85L-16.313,-7.992C-16.254,-7.967 -16.193,-7.941 -16.134,-7.916C-15.495,-8.613 -14.857,-9.31 -14.219,-10.008C-14.157,-9.98 -14.095,-9.953 -14.033,-9.925C-14.268,-8.975 -14.502,-8.025 -14.736,-7.075C-14.693,-7.029 -14.648,-6.983 -14.604,-6.937C-11.639,-9.362 -8.674,-11.786 -5.708,-14.21C-5.671,-14.176 -5.635,-14.142 -5.598,-14.108C-7.932,-11.073 -10.265,-8.038 -12.598,-5.003C-12.56,-4.944 -12.521,-4.885 -12.482,-4.827C-11.558,-5.063 -10.633,-5.298 -9.708,-5.534C-9.683,-5.483 -9.658,-5.432 -9.633,-5.381C-10.348,-4.686 -11.062,-3.992 -11.884,-3.194L-8.496,-3.194C-9.513,-2.567 -10.355,-2.047 -11.199,-1.527L-11.14,-1.331L0.003,-0.001C0.002,0.057 0.001,0.114 0,0.171" style="fill:rgb(255,196,11);fill-rule:nonzero;"/>
        </g>
    </g>
</svg>
