<?xml version="1.0" encoding="UTF-8" standalone="no"?>
<!DOCTYPE svg PUBLIC "-//W3C//DTD SVG 1.1//EN" "http://www.w3.org/Graphics/SVG/1.1/DTD/svg11.dtd">
<svg width="100%" height="100%" viewBox="0 0 2499 1922" version="1.1" xmlns="http://www.w3.org/2000/svg" xmlns:xlink="http://www.w3.org/1999/xlink" xml:space="preserve" xmlns:serif="http://www.serif.com/" style="fill-rule:evenodd;clip-rule:evenodd;stroke-linejoin:round;stroke-miterlimit:2;">
    <path d="M2403.11,1825.97L2403.11,140.791C2403.11,120.111 2386.3,103.358 2365.58,103.358L2131.54,103.358L2131.54,80.691L2365.58,80.691C2398.83,80.691 2425.77,107.604 2425.77,140.791L2425.77,1835.69C2425.77,1842.83 2419.97,1848.64 2412.82,1848.64L92.174,1848.64C81.266,1848.64 72.416,1839.8 72.416,1828.89L72.416,140.791C72.416,107.604 99.35,80.691 132.599,80.691L362.974,80.691L362.974,103.358C362.974,103.358 132.599,103.358 132.599,103.358C111.881,103.358 95.082,120.111 95.082,140.791L95.082,1825.97L2403.11,1825.97ZM465.581,1680.52L491.248,1676.36C491.248,1678.51 491.29,1680.4 491.39,1682.04C491.473,1683.67 491.723,1685.45 492.115,1687.39C492.506,1689.31 493.04,1690.9 493.715,1692.12C494.39,1693.35 495.34,1694.38 496.573,1695.22C497.798,1696.06 499.248,1696.47 500.915,1696.47C505.923,1696.47 508.431,1693.79 508.431,1688.41C508.431,1681.05 503.498,1673.71 493.615,1666.43L485.756,1660.81C483.256,1659.06 481.248,1657.61 479.765,1656.43C478.281,1655.26 476.54,1653.68 474.515,1651.7C472.498,1649.7 470.923,1647.79 469.79,1645.93C468.648,1644.09 467.673,1641.86 466.865,1639.24C466.048,1636.62 465.648,1633.86 465.648,1630.94C465.648,1622.4 468.873,1615.65 475.315,1610.68C481.765,1605.7 490.315,1603.22 500.981,1603.22C509.848,1603.22 517.381,1605.87 523.598,1611.17C529.806,1616.48 532.923,1622.87 532.923,1630.36L532.848,1631.11L532.848,1632.86L506.69,1635.91C506.69,1635.48 506.723,1634.81 506.79,1633.89C506.865,1632.98 506.898,1632.23 506.898,1631.64C506.898,1630.23 506.781,1628.89 506.556,1627.61C506.315,1626.32 505.94,1625.03 505.406,1623.75C504.865,1622.46 504.04,1621.44 502.94,1620.68C501.823,1619.92 500.481,1619.53 498.898,1619.53C496.123,1619.53 494.031,1620.45 492.64,1622.29C491.248,1624.11 490.548,1626.28 490.548,1628.78C490.548,1630.95 490.956,1633.01 491.773,1634.91C492.581,1636.82 493.815,1638.61 495.456,1640.26C497.098,1641.92 498.623,1643.29 500.006,1644.39C501.406,1645.48 503.256,1646.81 505.573,1648.4C507.898,1649.96 509.54,1651.13 510.515,1651.87C514.09,1654.52 517.098,1657.01 519.556,1659.32C522.015,1661.65 524.34,1664.27 526.515,1667.19C528.69,1670.11 530.331,1673.26 531.423,1676.65C532.515,1680.06 533.056,1683.72 533.056,1687.65C533.056,1695.02 529.923,1701.05 523.665,1705.75C517.406,1710.45 509.798,1712.79 500.848,1712.79C495.048,1712.79 489.898,1711.89 485.398,1710.1C480.906,1708.31 477.273,1705.87 474.515,1702.8C471.756,1699.71 469.631,1696.31 468.156,1692.56C466.665,1688.82 465.806,1684.81 465.581,1680.52ZM1977.06,1680.52L2002.73,1676.36C2002.73,1678.51 2002.77,1680.4 2002.87,1682.04C2002.96,1683.67 2003.2,1685.45 2003.6,1687.39C2003.98,1689.31 2004.52,1690.9 2005.2,1692.12C2005.87,1693.35 2006.82,1694.38 2008.05,1695.22C2009.27,1696.06 2010.73,1696.47 2012.4,1696.47C2017.41,1696.47 2019.91,1693.79 2019.91,1688.41C2019.91,1681.05 2014.97,1673.71 2005.09,1666.43L1997.23,1660.81C1994.73,1659.06 1992.74,1657.61 1991.26,1656.43C1989.77,1655.26 1988.02,1653.68 1986,1651.7C1983.98,1649.7 1982.41,1647.79 1981.27,1645.93C1980.14,1644.09 1979.15,1641.86 1978.35,1639.24C1977.54,1636.62 1977.13,1633.86 1977.13,1630.94C1977.13,1622.4 1980.35,1615.65 1986.79,1610.68C1993.24,1605.7 2001.81,1603.22 2012.47,1603.22C2021.32,1603.22 2028.86,1605.87 2035.07,1611.17C2041.29,1616.48 2044.4,1622.87 2044.4,1630.36L2044.32,1631.11L2044.32,1632.86L2018.17,1635.91C2018.17,1635.48 2018.21,1634.81 2018.28,1633.89C2018.34,1632.98 2018.37,1632.23 2018.37,1631.64C2018.37,1630.23 2018.27,1628.89 2018.03,1627.61C2017.8,1626.32 2017.42,1625.03 2016.88,1623.75C2016.35,1622.46 2015.53,1621.44 2014.41,1620.68C2013.3,1619.92 2011.96,1619.53 2010.38,1619.53C2007.6,1619.53 2005.51,1620.45 2004.12,1622.29C2002.73,1624.11 2002.03,1626.28 2002.03,1628.78C2002.03,1630.95 2002.44,1633.01 2003.26,1634.91C2004.06,1636.82 2005.29,1638.61 2006.94,1640.26C2008.59,1641.92 2010.1,1643.29 2011.5,1644.39C2012.88,1645.48 2014.74,1646.81 2017.06,1648.4C2019.37,1649.96 2021.02,1651.13 2022,1651.87C2025.57,1654.52 2028.58,1657.01 2031.04,1659.32C2033.5,1661.65 2035.82,1664.27 2038,1667.19C2040.17,1670.11 2041.82,1673.26 2042.9,1676.65C2043.99,1680.06 2044.54,1683.72 2044.54,1687.65C2044.54,1695.02 2041.41,1701.05 2035.15,1705.75C2028.88,1710.45 2021.28,1712.79 2012.32,1712.79C2006.53,1712.79 2001.37,1711.89 1996.88,1710.1C1992.38,1708.31 1988.76,1705.87 1986,1702.8C1983.24,1699.71 1981.12,1696.31 1979.63,1692.56C1978.15,1688.82 1977.29,1684.81 1977.06,1680.52ZM782.826,1676.02L782.826,1640.64C782.826,1615.77 795.017,1603.34 819.409,1603.34C843.859,1603.34 856.084,1615.77 856.084,1640.64L856.084,1675.49C856.084,1679.7 855.709,1683.59 854.967,1687.15C854.217,1690.72 852.959,1694.1 851.167,1697.3C849.384,1700.5 847.109,1703.21 844.351,1705.45C841.592,1707.7 838.101,1709.46 833.876,1710.75C829.659,1712.03 824.842,1712.68 819.409,1712.68C814.034,1712.68 809.234,1712.04 805.017,1710.78C800.792,1709.51 797.317,1707.8 794.576,1705.63C791.851,1703.47 789.584,1700.82 787.792,1697.68C786.009,1694.54 784.734,1691.2 783.976,1687.65C783.201,1684.11 782.826,1680.22 782.826,1676.02ZM1102.16,1671.52L1102.16,1605.39L1127.49,1605.39L1127.49,1670.88C1127.49,1674.62 1127.51,1677.33 1127.55,1679.03C1127.6,1680.73 1127.71,1682.79 1127.9,1685.23C1128.09,1687.67 1128.41,1689.37 1128.87,1690.34C1129.35,1691.31 1129.98,1692.37 1130.8,1693.5C1131.6,1694.63 1132.66,1695.38 1133.95,1695.72C1135.25,1696.07 1136.84,1696.25 1138.68,1696.25C1140.54,1696.25 1142.11,1696.07 1143.41,1695.72C1144.71,1695.38 1145.76,1694.64 1146.58,1693.53C1147.4,1692.42 1148.03,1691.38 1148.5,1690.4C1148.95,1689.42 1149.29,1687.73 1149.47,1685.34C1149.65,1682.94 1149.77,1680.92 1149.81,1679.26C1149.86,1677.61 1149.89,1674.92 1149.89,1671.23L1149.89,1605.39L1175.2,1605.39L1175.2,1671.52C1175.2,1674.87 1175.09,1677.91 1174.86,1680.63C1174.62,1683.37 1174.19,1686.19 1173.54,1689.12C1172.89,1692.03 1172,1694.62 1170.9,1696.86C1169.78,1699.1 1168.3,1701.24 1166.44,1703.29C1164.59,1705.34 1162.4,1707.03 1159.87,1708.35C1157.35,1709.67 1154.29,1710.73 1150.72,1711.5C1147.15,1712.29 1143.14,1712.67 1138.68,1712.67C1134.24,1712.67 1130.22,1712.29 1126.65,1711.5C1123.08,1710.73 1120.04,1709.67 1117.54,1708.35C1115.03,1707.03 1112.85,1705.34 1111,1703.29C1109.14,1701.24 1107.65,1699.1 1106.54,1696.86C1105.44,1694.62 1104.55,1692.03 1103.87,1689.12C1103.2,1686.19 1102.74,1683.37 1102.51,1680.63C1102.28,1677.91 1102.16,1674.87 1102.16,1671.52ZM1412.32,1675.49L1412.32,1640.64C1412.32,1615.77 1424.43,1603.34 1448.64,1603.34C1453.74,1603.34 1458.27,1603.91 1462.24,1605.06C1466.2,1606.21 1469.52,1607.81 1472.21,1609.83C1474.91,1611.86 1477.12,1614.35 1478.86,1617.31C1480.6,1620.27 1481.86,1623.5 1482.61,1626.96C1483.38,1630.43 1483.76,1634.25 1483.76,1638.41L1483.76,1647.48L1458.86,1647.48L1458.86,1637.78C1458.86,1635.86 1458.81,1634.22 1458.71,1632.84C1458.63,1631.45 1458.38,1629.88 1457.99,1628.11C1457.6,1626.33 1457.06,1624.88 1456.4,1623.78C1455.72,1622.66 1454.72,1621.72 1453.41,1620.94C1452.08,1620.16 1450.5,1619.77 1448.64,1619.77C1441.31,1619.77 1437.65,1624.96 1437.65,1635.31L1437.65,1680.75C1437.65,1691.08 1441.31,1696.25 1448.64,1696.25C1450.81,1696.25 1452.64,1695.71 1454.13,1694.66C1455.61,1693.61 1456.68,1692.12 1457.33,1690.2C1457.98,1688.26 1458.41,1686.37 1458.66,1684.52C1458.89,1682.67 1459.01,1680.56 1459.01,1678.18L1459.01,1667.36L1483.76,1667.36L1483.76,1676.25C1483.67,1680.26 1483.28,1683.96 1482.58,1687.36C1481.89,1690.75 1480.71,1694.05 1479.03,1697.23C1477.36,1700.44 1475.24,1703.13 1472.66,1705.34C1470.09,1707.54 1466.76,1709.31 1462.69,1710.66C1458.61,1712.01 1453.92,1712.67 1448.64,1712.67C1443.21,1712.67 1438.4,1712.02 1434.2,1710.71C1430.01,1709.41 1426.56,1707.66 1423.84,1705.46C1421.12,1703.26 1418.89,1700.55 1417.12,1697.32C1415.36,1694.11 1414.11,1690.73 1413.4,1687.18C1412.68,1683.64 1412.32,1679.74 1412.32,1675.49ZM252.504,1677.71L252.504,1640.64C252.504,1615.77 264.812,1603.34 289.446,1603.34C294.637,1603.34 299.262,1603.91 303.321,1605.06C307.379,1606.22 310.779,1607.81 313.512,1609.83C316.246,1611.86 318.496,1614.35 320.254,1617.31C322.012,1620.27 323.304,1623.5 324.087,1626.96C324.871,1630.43 325.262,1634.25 325.262,1638.41L325.262,1644.61L301.054,1644.61L301.054,1637.26C301.054,1635.42 301.004,1633.81 300.887,1632.43C300.762,1631.05 300.479,1629.51 300.012,1627.81C299.554,1626.11 298.921,1624.72 298.137,1623.63C297.354,1622.53 296.212,1621.62 294.721,1620.88C293.246,1620.14 291.479,1619.77 289.446,1619.77C281.696,1619.77 277.821,1624.96 277.821,1635.31L277.821,1680.76C277.821,1691.08 281.696,1696.25 289.446,1696.25C297.137,1696.25 300.987,1690.89 300.987,1680.17L300.987,1671.75L286.662,1671.75L286.662,1656.49L326.304,1656.49L326.304,1710.63L308.921,1710.63L305.721,1703.26C303.587,1706.06 300.546,1708.34 296.604,1710.07C292.662,1711.81 288.604,1712.67 284.429,1712.67C279.937,1712.67 275.846,1711.98 272.154,1710.61C268.471,1709.21 265.429,1707.38 263.046,1705.1C260.646,1702.82 258.646,1700.14 257.021,1697.06C255.404,1693.99 254.246,1690.83 253.546,1687.62C252.846,1684.41 252.504,1681.11 252.504,1677.71ZM1555.11,1605.39L1529.78,1605.39L1529.78,1710.63L1555.11,1710.63L1555.11,1605.39ZM1932.29,1605.39L1906.97,1605.39L1906.97,1710.63L1932.29,1710.63L1932.29,1605.39ZM1364.85,1605.39L1339.52,1605.39L1339.52,1710.63L1364.85,1710.63L1364.85,1605.39ZM1695.77,1710.63L1722.83,1605.39L1745.23,1605.39L1772.22,1710.63L1747.25,1710.63L1742.1,1688.11L1725.75,1688.11L1720.88,1710.63L1695.77,1710.63ZM2176.78,1710.63L2203.83,1605.39L2226.24,1605.39L2253.23,1710.63L2228.26,1710.63L2223.11,1688.11L2206.76,1688.11L2201.89,1710.63L2176.78,1710.63ZM665.294,1710.63L692.361,1605.39L714.761,1605.39L741.744,1710.63L716.777,1710.63L711.627,1688.11L695.277,1688.11L690.419,1710.63L665.294,1710.63ZM1223.72,1710.63L1223.72,1605.33L1241.96,1605.33L1269.43,1660.4L1269.43,1605.33L1290.44,1605.33L1290.44,1710.63L1272.91,1710.63L1245.5,1652.22L1245.5,1710.63L1223.72,1710.63ZM1814.48,1710.63L1814.48,1605.39L1839.8,1605.39L1839.8,1696.01L1864.7,1696.01L1864.7,1710.63L1814.48,1710.63ZM374.407,1710.63L374.407,1605.39L426.657,1605.39L426.657,1620L399.732,1620L399.732,1648.65L418.799,1648.65L418.799,1663.62L399.732,1663.62L399.732,1696.01L426.657,1696.01L426.657,1710.63L374.407,1710.63ZM966.265,1710.63L966.265,1605.39L996.598,1605.39L1009.96,1675.55L1024.36,1605.39L1053.65,1605.39L1053.65,1710.63L1035.01,1710.63L1034.45,1636.6C1033.05,1644.21 1030.62,1656.55 1027.14,1673.62C1023.67,1690.69 1021.22,1703.03 1019.83,1710.63L1000.91,1710.63L985.54,1636.14L984.981,1710.63L966.265,1710.63ZM589.231,1710.63L589.231,1621.29L570.856,1621.29L570.856,1605.39L632.564,1605.39L632.564,1621.29L614.547,1621.29L614.547,1710.63L589.231,1710.63ZM2100.71,1710.63L2100.71,1621.29L2082.35,1621.29L2082.35,1605.39L2144.05,1605.39L2144.05,1621.29L2126.04,1621.29L2126.04,1710.63L2100.71,1710.63ZM1604.18,1710.62L1604.18,1605.39L1634.44,1605.39C1645.34,1605.39 1653.27,1607.94 1658.24,1613.04C1663.2,1618.16 1665.68,1625.53 1665.68,1635.2C1665.68,1639.96 1665.13,1644.09 1664.04,1647.6C1662.95,1651.12 1661.43,1654 1659.48,1656.28C1657.54,1658.57 1655.04,1660.39 1651.98,1661.78C1648.92,1663.17 1645.6,1664.13 1642.03,1664.7C1638.45,1665.27 1634.33,1665.57 1629.65,1665.61L1629.65,1710.62L1604.18,1710.62ZM830.751,1680.81L830.751,1635.32C830.751,1624.95 826.976,1619.77 819.409,1619.77C817.142,1619.77 815.217,1620.25 813.634,1621.2C812.059,1622.15 810.901,1623.46 810.159,1625.12C809.417,1626.78 808.892,1628.41 808.592,1630.03C808.292,1631.65 808.142,1633.41 808.142,1635.32L808.142,1680.81C808.142,1691.15 811.901,1696.31 819.409,1696.31C826.976,1696.31 830.751,1691.15 830.751,1680.81ZM1727.49,1675.02L1740.43,1675.02L1734.1,1635.96L1727.49,1675.02ZM2208.5,1675.02L2221.43,1675.02L2215.11,1635.96L2208.5,1675.02ZM697.019,1675.02L709.961,1675.02L703.627,1635.96L697.019,1675.02ZM1629.72,1650.58C1631.06,1650.58 1632.26,1650.52 1633.3,1650.38C1634.34,1650.24 1635.26,1650.09 1636.04,1649.91C1636.83,1649.73 1637.53,1649.41 1638.13,1648.94C1638.73,1648.48 1639.23,1648.07 1639.62,1647.72C1640.02,1647.37 1640.36,1646.79 1640.64,1645.99C1640.92,1645.2 1641.13,1644.54 1641.26,1644.03C1641.4,1643.53 1641.51,1642.71 1641.58,1641.58C1641.65,1640.45 1641.68,1639.54 1641.68,1638.86L1641.68,1634.8C1641.68,1633.28 1641.67,1632.13 1641.65,1631.34C1641.63,1630.57 1641.54,1629.57 1641.4,1628.36C1641.26,1627.16 1641.03,1626.25 1640.73,1625.65C1640.43,1625.04 1639.99,1624.35 1639.42,1623.57C1638.83,1622.79 1638.13,1622.23 1637.3,1621.88C1636.47,1621.53 1635.41,1621.21 1634.13,1620.93C1632.86,1620.67 1631.38,1620.53 1629.72,1620.53L1629.72,1650.58ZM692.219,1596.74L680.594,1596.74C680.594,1594.75 680.686,1593 680.844,1591.47C681.002,1589.95 681.369,1588.4 681.919,1586.8C682.477,1585.2 683.202,1583.87 684.119,1582.82C685.019,1581.76 686.252,1580.9 687.836,1580.25C689.411,1579.58 691.294,1579.26 693.477,1579.26C696.852,1579.26 700.927,1579.82 705.677,1580.95C710.436,1582.08 713.344,1582.65 714.402,1582.65C715.152,1582.65 715.719,1582.5 716.119,1582.2C716.502,1581.91 716.727,1581.62 716.777,1581.33C716.819,1581.04 716.844,1580.58 716.844,1579.95L727.627,1579.95C727.627,1591.57 724.011,1597.38 716.777,1597.38C714.452,1597.38 710.894,1596.66 706.094,1595.25C701.302,1593.82 697.811,1593.11 695.627,1593.11C694.936,1593.11 694.352,1593.2 693.894,1593.37C693.419,1593.55 693.086,1593.71 692.877,1593.86C692.669,1594.03 692.511,1594.34 692.394,1594.81C692.277,1595.27 692.219,1595.56 692.219,1595.69L692.219,1596.74ZM819.703,1432.91L586.378,1432.91C547.003,1432.91 515.086,1401.04 515.086,1361.73L515.086,688.191C515.086,686.299 513.545,684.766 511.653,684.766L302.428,684.766C263.053,684.766 231.128,652.899 231.128,613.591L231.128,410.958C231.128,371.649 263.053,339.783 302.428,339.783L1101.79,339.783C1141.16,339.783 1173.08,371.649 1173.08,410.958L1173.08,613.591C1173.08,652.899 1141.16,684.766 1101.79,684.766L894.436,684.766C892.536,684.766 891.003,686.299 891.003,688.191L891.003,1361.73C891.003,1401.04 859.078,1432.91 819.703,1432.91ZM1718.33,339.782C1417.19,339.782 1173.08,584.49 1173.08,886.34C1173.08,1188.19 1417.19,1432.91 1718.33,1432.91C2019.46,1432.91 2263.58,1188.19 2263.58,886.34C2263.58,584.49 2019.46,339.782 1718.33,339.782ZM1947.57,110.948L1947.57,56.948C1947.57,18.981 1966.19,0.006 2003.42,0.006C2040.73,0.006 2059.39,18.981 2059.39,56.948L2059.39,110.139C2059.39,116.564 2058.82,122.506 2057.69,127.939C2056.55,133.389 2054.63,138.556 2051.9,143.431C2049.17,148.306 2045.7,152.456 2041.5,155.873C2037.29,159.298 2031.95,161.998 2025.51,163.956C2019.06,165.923 2011.71,166.906 2003.42,166.906C1995.21,166.906 1987.89,165.931 1981.45,163.998C1975,162.064 1969.7,159.448 1965.52,156.148C1961.35,152.848 1957.89,148.798 1955.16,144.006C1952.44,139.214 1950.49,134.123 1949.32,128.698C1948.15,123.289 1947.57,117.364 1947.57,110.948ZM655.973,110.948L655.973,56.948C655.973,18.981 674.59,0.006 711.823,0.006C749.14,0.006 767.79,18.981 767.79,56.948L767.79,110.139C767.79,116.564 767.223,122.506 766.09,127.939C764.956,133.389 763.031,138.556 760.306,143.431C757.573,148.306 754.106,152.456 749.898,155.873C745.69,159.298 740.356,161.998 733.915,163.956C727.473,165.923 720.115,166.906 711.823,166.906C703.615,166.906 696.29,165.931 689.848,163.998C683.406,162.064 678.098,159.448 673.923,156.148C669.748,152.848 666.29,148.798 663.565,144.006C660.84,139.214 658.89,134.123 657.723,128.698C656.556,123.289 655.973,117.364 655.973,110.948ZM1494.19,110.948L1494.19,56.948C1494.19,18.981 1512.81,0.006 1550.04,0.006C1587.35,0.006 1606.01,18.981 1606.01,56.948L1606.01,110.139C1606.01,116.564 1605.44,122.506 1604.31,127.939C1603.18,133.389 1601.25,138.556 1598.53,143.431C1595.79,148.306 1592.33,152.456 1588.12,155.873C1583.9,159.298 1578.58,161.998 1572.13,163.956C1565.68,165.923 1558.34,166.906 1550.04,166.906C1541.84,166.906 1534.5,165.931 1528.07,163.998C1521.63,162.064 1516.31,159.448 1512.13,156.148C1507.96,152.848 1504.51,148.798 1501.78,144.006C1499.06,139.214 1497.11,134.123 1495.94,128.698C1494.78,123.289 1494.19,117.364 1494.19,110.948ZM472.32,113.533L472.32,56.95C472.32,18.983 491.111,0 528.711,0C536.636,0 543.686,0.883 549.895,2.633C556.078,4.392 561.261,6.817 565.445,9.908C569.62,13.008 573.053,16.817 575.753,21.333C578.436,25.85 580.386,30.758 581.586,36.058C582.786,41.358 583.395,47.183 583.395,53.558L583.395,63.017L546.445,63.017L546.445,51.767C546.445,48.975 546.353,46.525 546.178,44.4C546.003,42.292 545.553,39.942 544.853,37.358C544.136,34.775 543.178,32.642 541.978,30.975C540.77,29.308 539.036,27.908 536.778,26.783C534.511,25.65 531.82,25.083 528.711,25.083C516.886,25.083 510.97,33 510.97,48.825L510.97,118.167C510.97,133.933 516.886,141.817 528.711,141.817C540.453,141.817 546.336,133.642 546.336,117.275L546.336,104.433L524.453,104.433L524.453,81.133L584.986,81.133L584.986,163.775L558.428,163.775L553.553,152.533C550.295,156.825 545.653,160.283 539.645,162.933C533.628,165.575 527.428,166.9 521.061,166.9C514.186,166.9 507.945,165.842 502.32,163.733C496.686,161.625 492.053,158.825 488.411,155.35C484.761,151.858 481.695,147.775 479.22,143.075C476.745,138.367 474.97,133.567 473.911,128.658C472.853,123.75 472.32,118.708 472.32,113.533ZM1148.54,163.78L1148.54,3.13L1190.59,3.13C1200.15,3.13 1208.56,3.888 1215.81,5.405C1223.07,6.922 1229.42,9.297 1234.88,12.547C1240.33,15.788 1244.47,20.155 1247.29,25.672C1250.12,31.172 1251.55,37.755 1251.55,45.438C1251.55,48.763 1251.41,51.738 1251.12,54.363C1250.84,56.972 1250.17,59.972 1249.16,63.322C1248.12,66.688 1246.73,69.663 1244.96,72.247C1243.19,74.847 1240.64,77.388 1237.32,79.888C1233.98,82.388 1230.06,84.472 1225.53,86.13C1237,116.713 1246.98,142.597 1255.48,163.78L1215.44,163.78L1193.57,89.788L1187.2,89.788L1187.2,163.78L1148.54,163.78ZM1319.88,163.778L1319.88,3.036L1347.69,3.036L1389.64,87.111L1389.64,3.036L1421.71,3.036L1421.71,163.778L1394.95,163.778L1353.11,74.611L1353.11,163.778L1319.88,163.778ZM1002.79,163.777L1002.79,3.127L1082.53,3.127L1082.53,25.436L1041.45,25.436L1041.45,69.177L1070.53,69.177L1070.53,92.019L1041.45,92.019L1041.45,141.469L1082.53,141.469L1082.53,163.777L1002.79,163.777ZM864.801,163.777L829.642,3.127L866.284,3.127L883.167,100.502L901.859,3.127L937.959,3.127L900.159,163.777L864.801,163.777ZM1774.21,163.776L1774.21,3.126L1814.14,3.126C1826.89,3.126 1837.39,4.101 1845.63,6.034C1853.88,7.968 1860.35,11.143 1865.05,15.576C1869.77,20.009 1873.03,25.326 1874.83,31.509C1876.64,37.701 1877.54,45.584 1877.54,55.168L1877.54,107.818C1877.54,113.534 1877.33,118.509 1876.89,122.768C1876.48,127.026 1875.68,131.193 1874.51,135.259C1873.35,139.343 1871.75,142.793 1869.74,145.618C1867.72,148.443 1865.11,151.076 1861.93,153.509C1858.75,155.959 1854.9,157.893 1850.4,159.318C1845.91,160.743 1840.64,161.843 1834.58,162.618C1828.53,163.393 1821.58,163.776 1813.72,163.776L1774.21,163.776ZM729.14,118.256L729.14,48.823C729.14,32.998 723.365,25.089 711.823,25.089C708.356,25.089 705.423,25.806 703.015,27.264C700.615,28.731 698.831,30.714 697.715,33.248C696.565,35.781 695.773,38.273 695.315,40.748C694.856,43.223 694.623,45.914 694.623,48.823L694.623,118.256C694.623,134.023 700.365,141.906 711.823,141.906C723.365,141.906 729.14,134.023 729.14,118.256ZM1567.36,118.256L1567.36,48.823C1567.36,32.998 1561.59,25.089 1550.04,25.089C1546.58,25.089 1543.63,25.806 1541.24,27.264C1538.83,28.731 1537.05,30.714 1535.93,33.248C1534.79,35.781 1533.99,38.273 1533.53,40.748C1533.07,43.223 1532.84,45.914 1532.84,48.823L1532.84,118.256C1532.84,134.023 1538.58,141.906 1550.04,141.906C1561.59,141.906 1567.36,134.023 1567.36,118.256ZM2020.74,118.256L2020.74,48.823C2020.74,32.998 2014.96,25.089 2003.42,25.089C1999.95,25.089 1997.02,25.806 1994.61,27.264C1992.2,28.731 1990.43,30.714 1989.3,33.248C1988.16,35.781 1987.37,38.273 1986.9,40.748C1986.45,43.223 1986.22,45.914 1986.22,48.823L1986.22,118.256C1986.22,134.023 1991.96,141.906 2003.42,141.906C2014.96,141.906 2020.74,134.023 2020.74,118.256ZM1814.35,141.018C1818.03,141.018 1820.94,140.976 1823.06,140.884C1825.19,140.801 1827.31,140.576 1829.44,140.218C1831.55,139.859 1833.11,139.368 1834.1,138.743C1835.1,138.118 1836.02,137.209 1836.87,136.018C1837.72,134.826 1838.27,133.418 1838.51,131.784C1838.76,130.151 1838.89,128.109 1838.89,125.676L1838.89,39.184C1838.89,33.884 1837.01,30.384 1833.25,28.651C1829.5,26.934 1823.2,26.043 1814.35,25.976L1814.35,141.018ZM1187.2,69.98L1198.23,69.98C1201.21,69.98 1203.77,69.138 1205.88,67.48C1208.01,65.813 1209.55,63.705 1210.5,61.147C1211.46,58.58 1212.13,56.23 1212.52,54.088C1212.91,51.955 1213.1,49.93 1213.1,48.022C1213.1,46.113 1212.94,44.155 1212.62,42.138C1212.31,40.113 1211.74,37.863 1210.92,35.388C1210.12,32.922 1208.77,30.905 1206.89,29.322C1205.02,27.755 1202.73,26.955 1200.04,26.955L1187.2,26.955L1187.2,69.98Z" style="fill:rgb(46,48,146);fill-rule:nonzero;"/>
    <path d="M2069.8,887.831C2002.69,895.581 1935.59,903.331 1868.48,911.081C1868.24,912.223 1867.99,913.381 1867.73,914.523C1882.92,923.556 1898.09,932.598 1916.53,943.573L1855.28,943.573C1869.86,957.189 1882.74,969.248 1895.63,981.289C1895.24,982.398 1894.84,983.506 1894.45,984.614C1878,980.414 1861.55,976.223 1845.12,972.039C1844.23,973.081 1843.33,974.123 1842.43,975.173C1884.54,1028.16 1926.63,1081.15 1968.73,1134.14C1968.11,1134.78 1967.5,1135.43 1966.89,1136.07L1806.21,1008.92C1805.38,1009.53 1804.56,1010.15 1803.73,1010.75C1807.93,1027.54 1812.16,1044.32 1816.37,1061.11C1815.38,1061.71 1814.41,1062.32 1813.42,1062.93C1801.92,1050.7 1790.43,1038.46 1776.23,1023.36L1776.23,1077.04C1775,1077.41 1773.78,1077.79 1772.55,1078.16C1763.87,1063.83 1755.18,1049.5 1746.49,1035.16C1745.43,1035.17 1744.38,1035.19 1743.34,1035.2L1720.15,1234.21C1718.96,1234.27 1717.78,1234.32 1716.59,1234.39C1708.87,1168.11 1701.15,1101.82 1693.43,1035.55L1690.34,1034.64C1681.76,1049.07 1673.18,1063.51 1664.59,1077.95C1663.63,1077.76 1662.67,1077.6 1661.71,1077.41L1661.71,1027.54C1660.55,1027.01 1659.38,1026.46 1658.22,1025.93C1646.56,1038.26 1634.9,1050.59 1623.25,1062.93C1622.24,1062.3 1621.23,1061.67 1620.21,1061.06C1624.46,1044.28 1628.71,1027.51 1632.96,1010.75C1632.07,1010.18 1631.17,1009.62 1630.28,1009.06C1576.84,1051.36 1523.41,1093.66 1469.98,1135.97C1469.29,1135.38 1468.62,1134.78 1467.95,1134.18C1510.06,1081.19 1552.16,1028.19 1594.26,975.189C1593.59,974.164 1592.89,973.139 1592.2,972.114C1575.52,976.223 1558.83,980.331 1542.14,984.448C1541.68,983.556 1541.21,982.673 1540.74,981.789C1553.65,969.656 1566.54,957.523 1581.38,943.573L1520.49,943.573C1538.59,932.564 1553.74,923.364 1568.89,914.164C1568.6,913.123 1568.3,912.089 1568.01,911.048C1500.94,903.298 1433.88,895.548 1366.81,887.806C1366.82,886.814 1366.84,885.814 1366.84,884.823C1433.97,877.064 1501.09,869.314 1568.23,861.556C1568.43,860.498 1568.65,859.439 1568.88,858.373C1553.74,849.239 1538.6,840.098 1523.47,830.973C1523.79,830.014 1524.09,829.056 1524.4,828.106C1542.22,828.889 1560.04,829.673 1577.85,830.448C1578.45,829.514 1579.04,828.573 1579.63,827.631C1566.65,815.298 1553.67,802.956 1540.68,790.614C1541.2,789.756 1541.72,788.898 1542.24,788.048C1558.67,792.214 1575.09,796.373 1591.53,800.539C1592.43,799.514 1593.34,798.498 1594.24,797.481C1552.16,744.498 1510.08,691.514 1468,638.531L1469.82,636.589C1523.33,678.923 1576.84,721.256 1630.34,763.598C1631.14,762.964 1631.94,762.339 1632.75,761.706C1628.63,744.914 1624.53,728.139 1620.42,711.348C1621.38,710.814 1622.34,710.273 1623.31,709.748C1634.84,721.989 1646.38,734.223 1660.83,749.531L1660.83,695.531C1661.96,695.206 1663.09,694.889 1664.23,694.564L1690.29,737.664C1691.33,737.581 1692.34,737.489 1693.37,737.414C1701.09,671.064 1708.83,604.714 1716.55,538.372L1720.12,538.298L1743.27,737.223C1744.34,737.456 1745.4,737.689 1746.46,737.914C1755.02,723.481 1763.57,709.039 1772.13,694.598C1773.19,694.848 1774.27,695.098 1775.34,695.348L1775.34,745.256C1776.42,745.698 1777.5,746.148 1778.59,746.598C1790.11,734.406 1801.63,722.231 1813.15,710.048C1814.26,710.531 1815.38,711.014 1816.49,711.489C1812.26,728.089 1808.03,744.681 1803.8,761.281C1804.59,762.073 1805.38,762.881 1806.18,763.681C1859.71,721.339 1913.24,679.006 1966.77,636.656C1967.43,637.256 1968.09,637.856 1968.76,638.439C1926.63,691.448 1884.53,744.456 1842.41,797.464C1843.1,798.489 1843.79,799.514 1844.49,800.539C1861.18,796.414 1877.88,792.306 1894.57,788.181C1895.02,789.081 1895.47,789.973 1895.93,790.873C1883.03,802.998 1870.13,815.131 1855.3,829.064L1916.44,829.064C1898.09,840.014 1882.87,849.089 1867.65,858.164L1868.74,861.606L2069.85,884.839C2069.83,885.839 2069.81,886.831 2069.8,887.831ZM548.841,557.439C519.216,557.439 496.008,534.789 496.008,505.881C496.008,477.556 518.716,456.064 548.825,455.889C565.066,455.889 579.058,462.189 589.316,474.106L591.4,476.523L574.1,490.439L572.158,488.023C566.308,480.723 558.458,477.023 548.841,477.023C532.283,477.173 519.775,489.581 519.775,505.881C519.775,523.231 532.275,536.306 548.841,536.306C559.083,536.306 567.241,532.514 573.075,525.031L575.075,522.456L592.283,537.373L590.233,539.706C580.225,551.139 565.516,557.439 548.841,557.439ZM433.383,557.437C403.316,557.437 379.758,535.203 379.758,506.82C379.758,478.253 403.316,455.887 433.383,455.887C463.533,455.887 487.15,478.253 487.15,506.82C487.15,535.203 463.533,557.437 433.383,557.437ZM913.356,556.348L890.223,556.348L890.223,456.982L913.356,456.982L913.356,556.348ZM691.901,556.348L667.009,556.348L660.101,537.807L625.326,537.807L618.259,556.348L593.534,556.348L633.009,456.665L652.601,456.665L691.901,556.348ZM349.878,556.347L326.736,556.347L326.736,477.797L296.936,477.797L296.936,456.98L379.686,456.98L379.686,477.797L349.878,477.797L349.878,556.347ZM1018.16,556.347L1000.05,556.347L953.364,495.238L953.364,556.347L930.706,556.347L930.706,456.98L950.239,456.98L995.981,516.847L995.981,456.98L1018.16,456.98L1018.16,556.347ZM850.146,556.347L827.013,556.347L827.013,477.797L797.205,477.797L797.205,456.98L879.963,456.98L879.963,477.797L850.146,477.797L850.146,556.347ZM1071.55,556.347L1033.93,556.347L1033.93,535.522L1070.91,535.522C1081.66,535.522 1083.82,531.58 1083.82,525.213C1083.82,516.922 1081.69,514.888 1072.96,514.888L1065.9,514.888C1037.91,514.888 1032.05,499.397 1032.05,486.405C1032.05,472.98 1038.13,456.98 1067.15,456.98L1104.29,456.98L1104.29,477.797L1067.77,477.797C1056.5,477.797 1055.49,479.872 1055.49,485.78C1055.49,491.447 1056.61,493.755 1067.77,493.755L1074.36,493.755C1095.59,493.755 1107.27,504.922 1107.27,525.213C1107.27,544.705 1093.91,556.347 1071.55,556.347ZM786.935,556.347L768.81,556.347L722.126,495.238L722.126,556.347L699.468,556.347L699.468,456.98L719.001,456.98L764.751,516.847L764.751,456.98L786.935,456.98L786.935,556.347ZM433.383,477.02C416.366,477.02 403.525,489.828 403.525,506.82C403.525,523.628 416.366,536.295 433.383,536.295C450.5,536.295 463.4,523.628 463.4,506.82C463.4,489.828 450.5,477.02 433.383,477.02ZM631.617,517.29L653.517,517.29L642.626,488.915L631.617,517.29Z" style="fill:rgb(255,196,11);fill-rule:nonzero;"/>
</svg>
