<?xml version="1.0" encoding="UTF-8" standalone="no"?>
<!DOCTYPE svg PUBLIC "-//W3C//DTD SVG 1.1//EN" "http://www.w3.org/Graphics/SVG/1.1/DTD/svg11.dtd">
<svg width="100%" height="100%" viewBox="0 0 57 57" version="1.1" xmlns="http://www.w3.org/2000/svg" xmlns:xlink="http://www.w3.org/1999/xlink" xml:space="preserve" xmlns:serif="http://www.serif.com/" style="fill-rule:evenodd;clip-rule:evenodd;stroke-linejoin:round;stroke-miterlimit:2;">
    <path id="Caminho_3440" d="M28.25,0C12.753,0 -0,12.753 0,28.25C0,43.747 12.753,56.5 28.25,56.5C43.747,56.5 56.5,43.747 56.5,28.25C56.5,12.753 43.747,0 28.25,0ZM45.962,38.089C45.962,41.562 43.105,44.42 39.632,44.422L17.632,44.422C14.158,44.421 11.3,41.563 11.299,38.089L11.299,32.996C11.299,29.522 14.157,26.664 17.631,26.664L39.632,26.664C43.105,26.665 45.963,29.524 45.962,32.997L45.962,38.089ZM37.979,31.8C37.269,31.771 36.576,32.03 36.059,32.519C35.56,33.004 35.289,33.678 35.313,34.374L35.313,38.318C35.271,39.044 35.515,39.758 35.992,40.307C36.477,40.803 37.154,41.067 37.847,41.031C38.567,41.086 39.278,40.84 39.81,40.353C40.291,39.789 40.528,39.057 40.471,38.319L40.471,37.868L38.671,37.868L38.671,38.268C38.706,38.611 38.645,38.957 38.497,39.268C38.341,39.436 38.115,39.52 37.888,39.494C37.658,39.517 37.432,39.416 37.294,39.23C37.155,38.929 37.097,38.597 37.124,38.266L37.124,36.616L40.476,36.616L40.476,34.376C40.523,33.679 40.291,32.991 39.831,32.465C39.332,31.997 38.661,31.756 37.979,31.8ZM26.279,38.683C26.122,38.865 25.939,39.022 25.736,39.151C25.592,39.255 25.423,39.318 25.247,39.335C25.112,39.348 24.978,39.296 24.887,39.196C24.803,39.062 24.765,38.905 24.777,38.747L24.777,32.017L23.025,32.017L23.025,39.354C22.996,39.769 23.104,40.182 23.332,40.53C23.558,40.799 23.899,40.944 24.249,40.92C24.607,40.914 24.958,40.818 25.269,40.642C25.649,40.429 25.99,40.154 26.28,39.829L26.28,40.79L28.033,40.79L28.033,32.018L26.28,32.018L26.28,38.683L26.279,38.683ZM32.685,31.909C32.402,31.912 32.125,31.983 31.876,32.118C31.591,32.275 31.337,32.482 31.126,32.729L31.126,28.898L29.353,28.898L29.353,40.789L31.125,40.789L31.125,40.117C31.329,40.368 31.584,40.573 31.873,40.717C32.161,40.849 32.475,40.914 32.792,40.907C33.245,40.935 33.686,40.75 33.982,40.407C34.283,39.994 34.429,39.488 34.396,38.978L34.396,34.11C34.437,33.53 34.281,32.953 33.954,32.472C33.647,32.09 33.174,31.88 32.685,31.909ZM16.188,30.628L18.233,30.628L18.233,40.789L20.21,40.789L20.21,30.628L22.255,30.628L22.255,28.898L16.188,28.898L16.188,30.628ZM32.585,38.736C32.602,38.947 32.549,39.159 32.432,39.336C32.312,39.469 32.137,39.538 31.959,39.522C31.813,39.521 31.669,39.489 31.536,39.428C31.38,39.351 31.24,39.246 31.122,39.118L31.122,33.653C31.225,33.542 31.347,33.451 31.482,33.385C31.597,33.327 31.725,33.297 31.854,33.298C32.061,33.286 32.263,33.37 32.401,33.524C32.537,33.722 32.602,33.961 32.585,34.201L32.585,38.736ZM37.828,33.332L37.833,33.332C37.856,33.332 37.879,33.333 37.902,33.335C38.124,33.314 38.343,33.405 38.485,33.577C38.628,33.813 38.693,34.089 38.669,34.364L38.669,35.251L37.123,35.251L37.123,34.364C37.097,34.089 37.16,33.814 37.302,33.577C37.434,33.422 37.627,33.334 37.828,33.332ZM25.483,16.162C25.458,15.474 25.754,14.811 26.283,14.371C26.897,13.904 27.657,13.669 28.427,13.708C29.161,13.679 29.88,13.929 30.437,14.408C30.953,14.865 31.239,15.529 31.217,16.218L31.217,21.208C31.257,21.936 30.978,22.647 30.453,23.153C29.863,23.647 29.106,23.897 28.338,23.853C27.579,23.89 26.836,23.63 26.265,23.129C25.737,22.616 25.454,21.901 25.487,21.166L25.487,16.162L25.483,16.162ZM32.814,13.952L34.786,13.952L34.786,21.362C34.77,21.538 34.815,21.715 34.913,21.862C35.014,21.974 35.163,22.032 35.313,22.019C35.511,22 35.7,21.932 35.864,21.819C36.091,21.676 36.296,21.499 36.471,21.295L36.471,13.952L38.448,13.952L38.448,23.616L36.472,23.616L36.472,22.545C36.149,22.909 35.765,23.214 35.336,23.445C34.985,23.64 34.592,23.746 34.191,23.755C33.798,23.781 33.415,23.62 33.159,23.32C32.901,22.938 32.779,22.48 32.814,22.02L32.814,13.952ZM20.105,10.518L21.548,15.752L21.689,15.752L23.062,10.518L25.321,10.518L22.735,18.184L22.735,23.618L20.512,23.618L20.512,18.425L17.865,10.517L20.105,10.518ZM28.326,22.185C28.559,22.198 28.788,22.12 28.965,21.968C29.127,21.807 29.213,21.585 29.202,21.357L29.202,16.091C29.208,15.892 29.118,15.701 28.96,15.58C28.779,15.441 28.554,15.37 28.326,15.38C28.112,15.372 27.903,15.443 27.739,15.58C27.59,15.707 27.507,15.895 27.515,16.091L27.515,21.357C27.5,21.581 27.577,21.801 27.726,21.968C27.887,22.121 28.105,22.2 28.326,22.185Z" style="fill:rgb(45,48,146);fill-rule:nonzero;"/>
</svg>
