<?xml version="1.0" encoding="UTF-8" standalone="no"?>
<!DOCTYPE svg PUBLIC "-//W3C//DTD SVG 1.1//EN" "http://www.w3.org/Graphics/SVG/1.1/DTD/svg11.dtd">
<svg width="100%" height="100%" viewBox="0 0 480 464" version="1.1" xmlns="http://www.w3.org/2000/svg" xmlns:xlink="http://www.w3.org/1999/xlink" xml:space="preserve" xmlns:serif="http://www.serif.com/" style="fill-rule:evenodd;clip-rule:evenodd;stroke-linejoin:round;stroke-miterlimit:2;">
    <g transform="matrix(1,0,0,1,-16,-24)">
        <g>
            <path d="M339.76,121.216L312,138.566L312,96C312,91.611 308.389,88 304,88L246.782,88C250.221,77.758 246.147,66.401 236.982,60.68L180.24,25.216C178.969,24.421 177.499,24 176,24L16,24L16,40L88,40L88,136L16,136L16,152L92.253,152L120.259,185.607C127.845,194.734 139.121,200.015 150.988,200L200,200L200,248L216,248L216,200L221.578,200C236.073,200 248,188.072 248,173.578C248,168.362 246.456,163.261 243.563,158.921L228.281,136L296,136L296,148.566L283.018,156.68C276.171,160.959 272,168.485 272,176.559C272,189.418 282.582,200 295.441,200L313.052,200L276.438,254.921C273.544,259.261 272,264.362 272,269.578C272,284.072 283.927,296 298.422,296L324,296L343.873,322.498C348.886,329.198 353.184,336.405 356.697,344L320,344L320,360L362.785,360C365.155,367.821 366.729,375.862 367.481,384L352,384L352,400L367.89,400C367.533,408.097 366.361,416.138 364.391,424L312,424L312,440L359.207,440C354.829,450.884 348.886,461.07 341.565,470.237L340.155,472L272,472L272,488L344,488C346.429,488 348.73,486.894 350.247,484.998L354.06,480.232C392.859,431.732 393.94,362.587 356.674,312.898L344,296L369.012,296C380.879,296.015 392.155,290.734 399.74,281.607L427.747,248L496,248L496,232L432,232L432,136L496,136L496,120L344,120C342.501,120 341.031,120.421 339.76,121.216ZM232,173.578C231.994,179.293 227.293,183.994 221.578,184L220,184L174.4,123.2L161.6,132.8L200,184L180,184L134.4,123.2L121.6,132.8L160,184L150.988,184C143.868,184.009 137.102,180.84 132.551,175.364L104,141.104L104,40L173.706,40L228.502,74.248C230.676,75.606 232,77.995 232,80.558C232,84.641 228.641,88 224.559,88L191.999,88C187.611,88 184,91.611 184,96C184,97.579 184.468,99.123 185.344,100.438L230.25,167.796C231.393,169.508 232.002,171.52 232,173.578ZM217.615,120L206.948,104L296,104L296,120L217.615,120ZM416,136L416,237.104L387.448,271.365C382.897,276.841 376.132,280.009 369.012,280L360,280L398.4,228.8L385.6,219.2L340,280L320,280L358.4,228.8L345.6,219.2L300,280L298.422,280C292.704,279.999 288,275.295 288,269.577C288,267.52 288.609,265.508 289.75,263.796L334.656,196.437C335.532,195.123 336,193.579 336,192C336,187.611 332.389,184 328.001,184L295.441,184C291.359,184 288,180.641 288,176.559C288,173.995 289.324,171.606 291.498,170.248L346.294,136L416,136Z" style="fill:white;fill-rule:nonzero;"/>
            <path d="M38.142,366.544C8.817,395.87 8.817,444.13 38.142,473.456L50.343,485.657C51.843,487.157 53.879,488 56,488L240,488C242.121,488 244.157,487.157 245.657,485.657L257.858,473.456C287.183,444.13 287.183,395.87 257.858,366.544C246.391,355.14 239.956,339.605 240,323.432L240,305.889L255.155,275.578C255.711,274.467 256,273.241 256,271.999C256,267.611 252.389,264 248.001,264C248.001,264 248,264 248,264L48,264C48,264 47.999,264 47.999,264C43.611,264 40,267.611 40,271.999C40,273.241 40.289,274.467 40.845,275.578L56,305.889L56,323.432C56.044,339.605 49.609,355.14 38.142,366.544ZM72,323.432L72,312L96,312L96,296L68.944,296L60.944,280L235.056,280L227.056,296L152,296L152,312L224,312L224,323.432C223.951,342.959 231.39,361.781 244.774,376L192,376L192,392L257.044,392C261.632,400.618 264.022,410.237 264,420C264,421.342 263.94,422.673 263.853,424L224,424L224,440L260.574,440C257.605,448.333 252.812,455.899 246.544,462.142L236.687,472L59.313,472L49.456,462.142C43.189,455.899 38.395,448.333 35.426,440L120,440L120,424L32.148,424C32.06,422.673 32,421.342 32,420C31.957,404.191 38.247,389.006 49.456,377.858C63.932,363.46 72.056,343.848 72,323.432Z" style="fill:white;fill-rule:nonzero;"/>
            <rect x="120" y="296" width="16" height="16" style="fill:white;"/>
            <rect x="80" y="376" width="16" height="16" style="fill:white;"/>
            <rect x="112" y="376" width="64" height="16" style="fill:white;"/>
            <rect x="136" y="424" width="72" height="16" style="fill:white;"/>
            <rect x="280" y="344" width="24" height="16" style="fill:white;"/>
            <rect x="296" y="384" width="40" height="16" style="fill:white;"/>
        </g>
    </g>
</svg>
