<?xml version="1.0" encoding="UTF-8" standalone="no"?>
<!DOCTYPE svg PUBLIC "-//W3C//DTD SVG 1.1//EN" "http://www.w3.org/Graphics/SVG/1.1/DTD/svg11.dtd">
<svg width="100%" height="100%" viewBox="0 0 80 80" version="1.1" xmlns="http://www.w3.org/2000/svg" xmlns:xlink="http://www.w3.org/1999/xlink" xml:space="preserve" xmlns:serif="http://www.serif.com/" style="fill-rule:evenodd;clip-rule:evenodd;stroke-linejoin:round;stroke-miterlimit:2;">
    <g transform="matrix(1,0,0,1,-10,-10)">
        <path d="M89,88L11,88C10.447,88 10,88.448 10,89C10,89.552 10.447,90 11,90L89,90C89.553,90 90,89.552 90,89C90,88.448 89.553,88 89,88ZM12.246,84.347C12.425,84.656 12.755,84.847 13.112,84.847L26.77,84.847C27.127,84.847 27.457,84.656 27.636,84.347C27.814,84.037 27.814,83.656 27.636,83.347L20.807,71.52C20.449,70.9 19.432,70.9 19.074,71.52L12.246,83.347C12.067,83.656 12.067,84.037 12.246,84.347ZM59.153,71.52L52.325,83.347C52.146,83.656 52.146,84.037 52.325,84.347C52.504,84.656 52.834,84.847 53.191,84.847L66.848,84.847C67.205,84.847 67.535,84.656 67.714,84.347C67.893,84.037 67.893,83.656 67.714,83.347L60.886,71.52C60.528,70.9 59.511,70.9 59.153,71.52ZM80.926,71.52C80.747,71.21 80.417,71.02 80.06,71.02C79.702,71.02 79.372,71.21 79.193,71.52L72.364,83.347C72.186,83.656 72.186,84.037 72.364,84.347C72.543,84.656 72.873,84.847 73.23,84.847L86.888,84.847C87.245,84.847 87.575,84.656 87.754,84.347C87.933,84.037 87.933,83.656 87.754,83.347L80.926,71.52ZM39.114,71.52L32.286,83.347C32.107,83.656 32.107,84.037 32.286,84.347C32.465,84.656 32.795,84.847 33.152,84.847L46.809,84.847C47.166,84.847 47.496,84.656 47.675,84.347C47.854,84.037 47.854,83.656 47.675,83.347L40.847,71.52C40.489,70.9 39.472,70.9 39.114,71.52ZM54.924,82.847L60.02,74.02L65.115,82.847L54.924,82.847ZM74.963,82.847L80.06,74.02L85.155,82.847L74.963,82.847ZM34.885,82.847L39.98,74.02L45.076,82.847L34.885,82.847ZM19.94,74.02L25.037,82.847L14.845,82.847L19.94,74.02ZM29.999,60.732L29.998,60.732C29.65,60.732 29.328,60.913 29.146,61.209L24.385,68.981C24.187,69.302 24.188,69.707 24.386,70.027L29.159,77.792C29.341,78.088 29.663,78.268 30.011,78.268L30.012,78.268C30.359,78.268 30.682,78.087 30.863,77.791L35.626,70.019C35.823,69.698 35.822,69.293 35.625,68.973L30.851,61.208C30.669,60.912 30.347,60.732 29.999,60.732ZM70.09,60.732L70.089,60.732C69.741,60.732 69.419,60.913 69.237,61.209L64.475,68.981C64.277,69.302 64.278,69.707 64.476,70.027L69.25,77.792C69.432,78.088 69.754,78.268 70.102,78.268L70.103,78.268C70.45,78.268 70.772,78.087 70.954,77.791L75.716,70.019C75.913,69.698 75.912,69.293 75.715,68.973L70.941,61.208C70.76,60.912 70.438,60.732 70.09,60.732ZM49.994,60.732L49.993,60.732C49.646,60.732 49.323,60.913 49.142,61.209L44.379,68.981C44.182,69.302 44.183,69.707 44.38,70.027L49.154,77.792C49.336,78.088 49.658,78.268 50.006,78.268L50.007,78.268C50.354,78.268 50.677,78.087 50.858,77.791L55.621,70.019C55.818,69.698 55.817,69.293 55.62,68.973L50.846,61.208C50.664,60.912 50.342,60.732 49.994,60.732ZM30.01,75.356L26.41,69.502L30.001,63.644L33.6,69.498L30.01,75.356ZM70.1,75.356L66.501,69.502L70.091,63.644L73.69,69.498L70.1,75.356ZM50.005,75.356L46.405,69.502L49.995,63.644L53.595,69.498L50.005,75.356ZM26.77,54.153L13.112,54.153C12.755,54.153 12.425,54.344 12.246,54.653C12.067,54.963 12.067,55.344 12.246,55.653L19.074,67.48C19.253,67.79 19.583,67.98 19.94,67.98C20.298,67.98 20.628,67.79 20.807,67.48L27.636,55.653C27.814,55.344 27.814,54.963 27.636,54.653C27.457,54.344 27.127,54.153 26.77,54.153ZM87.754,54.653C87.575,54.344 87.245,54.153 86.888,54.153L73.23,54.153C72.873,54.153 72.543,54.344 72.364,54.653C72.186,54.963 72.186,55.344 72.364,55.653L79.193,67.48C79.372,67.79 79.702,67.98 80.06,67.98C80.417,67.98 80.747,67.79 80.926,67.48L87.754,55.653C87.933,55.344 87.933,54.963 87.754,54.653ZM46.809,54.153L33.152,54.153C32.795,54.153 32.465,54.344 32.286,54.653C32.107,54.963 32.107,55.344 32.286,55.653L39.114,67.48C39.293,67.79 39.623,67.98 39.98,67.98C40.338,67.98 40.668,67.79 40.847,67.48L47.675,55.653C47.854,55.344 47.854,54.963 47.675,54.653C47.496,54.344 47.166,54.153 46.809,54.153ZM66.848,54.153L53.191,54.153C52.834,54.153 52.504,54.344 52.325,54.653C52.146,54.963 52.146,55.344 52.325,55.653L59.153,67.48C59.332,67.79 59.662,67.98 60.02,67.98C60.377,67.98 60.707,67.79 60.886,67.48L67.714,55.653C67.893,55.344 67.893,54.963 67.714,54.653C67.535,54.344 67.205,54.153 66.848,54.153ZM19.94,64.98L14.845,56.153L25.037,56.153L19.94,64.98ZM60.02,64.98L54.924,56.153L65.115,56.153L60.02,64.98ZM39.98,64.98L34.885,56.153L45.076,56.153L39.98,64.98ZM80.06,64.98L74.963,56.153L85.155,56.153L80.06,64.98ZM89,49L11,49C10.447,49 10,49.448 10,50C10,50.552 10.447,51 11,51L89,51C89.553,51 90,50.552 90,50C90,49.448 89.553,49 89,49ZM12.246,45.347C12.425,45.656 12.755,45.847 13.112,45.847L26.77,45.847C27.127,45.847 27.457,45.656 27.636,45.347C27.814,45.037 27.814,44.656 27.636,44.347L20.807,32.52C20.449,31.9 19.432,31.9 19.074,32.52L12.246,44.347C12.067,44.656 12.067,45.037 12.246,45.347ZM53.191,45.847L66.848,45.847C67.205,45.847 67.535,45.656 67.714,45.347C67.893,45.037 67.893,44.656 67.714,44.347L60.886,32.52C60.528,31.9 59.511,31.9 59.153,32.52L52.325,44.347C52.146,44.656 52.146,45.037 52.325,45.347C52.504,45.656 52.834,45.847 53.191,45.847ZM73.23,45.847L86.888,45.847C87.245,45.847 87.575,45.656 87.754,45.347C87.933,45.037 87.933,44.656 87.754,44.347L80.926,32.52C80.747,32.21 80.417,32.02 80.06,32.02C79.702,32.02 79.372,32.21 79.193,32.52L72.364,44.347C72.186,44.656 72.186,45.037 72.364,45.347C72.543,45.656 72.873,45.847 73.23,45.847ZM33.152,45.847L46.809,45.847C47.166,45.847 47.496,45.656 47.675,45.347C47.854,45.037 47.854,44.656 47.675,44.347L40.847,32.52C40.489,31.9 39.472,31.9 39.114,32.52L32.286,44.347C32.107,44.656 32.107,45.037 32.286,45.347C32.465,45.656 32.795,45.847 33.152,45.847ZM19.94,35.02L25.037,43.847L14.845,43.847L19.94,35.02ZM39.98,35.02L45.076,43.847L34.885,43.847L39.98,35.02ZM60.02,35.02L65.115,43.847L54.924,43.847L60.02,35.02ZM80.06,35.02L85.155,43.847L74.963,43.847L80.06,35.02ZM70.102,39.268L70.103,39.268C70.45,39.268 70.772,39.087 70.954,38.791L75.716,31.019C75.913,30.698 75.912,30.293 75.715,29.973L70.941,22.208C70.76,21.912 70.438,21.732 70.09,21.732L70.089,21.732C69.741,21.732 69.419,21.913 69.237,22.209L64.475,29.981C64.277,30.302 64.278,30.707 64.476,31.027L69.25,38.792C69.432,39.088 69.754,39.268 70.102,39.268ZM50.006,39.268L50.007,39.268C50.354,39.268 50.677,39.087 50.858,38.791L55.621,31.019C55.818,30.698 55.817,30.293 55.62,29.973L50.846,22.208C50.664,21.912 50.342,21.732 49.994,21.732L49.993,21.732C49.646,21.732 49.323,21.913 49.142,22.209L44.379,29.981C44.182,30.302 44.183,30.707 44.38,31.027L49.154,38.792C49.336,39.088 49.658,39.268 50.006,39.268ZM30.011,39.268L30.012,39.268C30.359,39.268 30.682,39.087 30.863,38.791L35.626,31.019C35.823,30.698 35.822,30.293 35.625,29.973L30.851,22.208C30.669,21.912 30.347,21.732 29.999,21.732L29.998,21.732C29.65,21.732 29.328,21.913 29.146,22.209L24.385,29.981C24.187,30.302 24.188,30.707 24.386,31.027L29.159,38.792C29.341,39.088 29.663,39.268 30.011,39.268ZM49.995,24.644L53.595,30.498L50.005,36.356L46.405,30.502L49.995,24.644ZM30.001,24.644L33.6,30.498L30.01,36.356L26.41,30.502L30.001,24.644ZM70.091,24.644L73.69,30.498L70.1,36.356L66.501,30.502L70.091,24.644ZM60.02,28.98C60.377,28.98 60.707,28.79 60.886,28.48L67.714,16.653C67.893,16.344 67.893,15.963 67.714,15.653C67.535,15.344 67.205,15.153 66.848,15.153L53.191,15.153C52.834,15.153 52.504,15.344 52.325,15.653C52.146,15.963 52.146,16.344 52.325,16.653L59.153,28.48C59.332,28.79 59.662,28.98 60.02,28.98ZM39.98,28.98C40.338,28.98 40.668,28.79 40.847,28.48L47.675,16.653C47.854,16.344 47.854,15.963 47.675,15.653C47.496,15.344 47.166,15.153 46.809,15.153L33.152,15.153C32.795,15.153 32.465,15.344 32.286,15.653C32.107,15.963 32.107,16.344 32.286,16.653L39.114,28.48C39.293,28.79 39.623,28.98 39.98,28.98ZM19.074,28.48C19.253,28.79 19.583,28.98 19.94,28.98C20.298,28.98 20.628,28.79 20.807,28.48L27.636,16.653C27.814,16.344 27.814,15.963 27.636,15.653C27.457,15.344 27.127,15.153 26.77,15.153L13.112,15.153C12.755,15.153 12.425,15.344 12.246,15.653C12.067,15.963 12.067,16.344 12.246,16.653L19.074,28.48ZM87.754,15.653C87.575,15.344 87.245,15.153 86.888,15.153L73.23,15.153C72.873,15.153 72.543,15.344 72.364,15.653C72.186,15.963 72.186,16.344 72.364,16.653L79.193,28.48C79.372,28.79 79.702,28.98 80.06,28.98C80.417,28.98 80.747,28.79 80.926,28.48L87.754,16.653C87.933,16.344 87.933,15.963 87.754,15.653ZM80.06,25.98L74.963,17.153L85.155,17.153L80.06,25.98ZM65.115,17.153L60.02,25.98L54.924,17.153L65.115,17.153ZM45.076,17.153L39.98,25.98L34.885,17.153L45.076,17.153ZM25.037,17.153L19.94,25.98L14.845,17.153L25.037,17.153ZM11,12L89,12C89.553,12 90,11.552 90,11C90,10.448 89.553,10 89,10L11,10C10.447,10 10,10.448 10,11C10,11.552 10.447,12 11,12Z" style="fill:white;fill-rule:nonzero;"/>
    </g>
</svg>
