<?xml version="1.0" encoding="UTF-8" standalone="no"?>
<!DOCTYPE svg PUBLIC "-//W3C//DTD SVG 1.1//EN" "http://www.w3.org/Graphics/SVG/1.1/DTD/svg11.dtd">
<svg width="100%" height="100%" viewBox="0 0 64 64" version="1.1" xmlns="http://www.w3.org/2000/svg" xmlns:xlink="http://www.w3.org/1999/xlink" xml:space="preserve" xmlns:serif="http://www.serif.com/" style="fill-rule:evenodd;clip-rule:evenodd;stroke-linejoin:round;stroke-miterlimit:2;">
    <path d="M17.085,37.151L21.32,54.969L21.32,58.76C21.32,60.046 22.364,61.09 23.65,61.09L40.94,61.09C42.226,61.09 43.27,60.046 43.27,58.76C43.27,58.76 43.27,54.77 43.27,54.77C43.27,54.654 43.262,54.54 43.245,54.429L47.845,36.762C51.048,33.116 52.99,28.338 52.99,23.11C52.99,11.685 43.715,2.41 32.29,2.41C20.865,2.41 11.59,11.685 11.59,23.11C11.59,28.526 13.675,33.46 17.085,37.151ZM42.219,54.403L42.27,56.804L42.27,58.76C42.27,59.494 41.674,60.09 40.94,60.09C40.94,60.09 23.65,60.09 23.65,60.09C22.916,60.09 22.32,59.494 22.32,58.76L22.32,54.77C22.32,54.036 22.916,53.44 23.65,53.44L40.94,53.44C41.547,53.44 42.059,53.847 42.219,54.403ZM18.429,38.479L21.928,53.201C22.354,52.734 22.968,52.44 23.65,52.44L31.79,52.44L31.79,47.05L30.33,47.05C29.188,47.05 28.26,46.122 28.26,44.98C28.26,44.98 28.26,44.38 28.26,44.38C28.26,44.049 28.338,43.736 28.476,43.459C24.655,42.746 21.202,40.982 18.429,38.479ZM46.432,38.22C43.551,40.918 39.9,42.802 35.846,43.505C35.971,43.771 36.04,44.067 36.04,44.38L36.04,44.98C36.04,46.122 35.112,47.05 33.97,47.05L32.79,47.05L32.79,52.44L40.94,52.44C41.569,52.44 42.14,52.69 42.559,53.095L46.432,38.22ZM29.565,43.632C29.376,43.825 29.26,44.089 29.26,44.38L29.26,44.98C29.26,45.571 29.739,46.05 30.33,46.05L31.79,46.05L31.79,43.804C31.038,43.786 30.295,43.728 29.565,43.632ZM34.764,43.663C34.114,43.741 33.456,43.788 32.79,43.804L32.79,46.05L33.97,46.05C34.561,46.05 35.04,45.571 35.04,44.98L35.04,44.38C35.04,44.104 34.936,43.853 34.764,43.663ZM32.29,4.41C34.345,4.41 36.208,5.708 37.748,7.805C40.283,11.256 41.9,16.833 41.9,23.11C41.9,29.387 40.283,34.964 37.748,38.415C36.208,40.512 34.345,41.81 32.29,41.81C30.235,41.81 28.372,40.512 26.832,38.415C24.297,34.964 22.68,29.387 22.68,23.11C22.68,16.833 24.297,11.256 26.832,7.805C28.372,5.708 30.235,4.41 32.29,4.41ZM26.201,5.426C18.866,7.953 13.59,14.92 13.59,23.11C13.59,31.3 18.866,38.267 26.201,40.794C25.862,40.426 25.534,40.027 25.22,39.599C22.486,35.878 20.68,29.88 20.68,23.11C20.68,16.34 22.486,10.342 25.22,6.621C25.534,6.193 25.862,5.794 26.201,5.426ZM38.379,5.426C38.718,5.794 39.046,6.193 39.36,6.621C42.094,10.342 43.9,16.34 43.9,23.11C43.9,29.88 42.094,35.878 39.36,39.599C39.046,40.027 38.718,40.426 38.379,40.794C45.714,38.267 50.99,31.3 50.99,23.11C50.99,14.92 45.714,7.953 38.379,5.426Z" style="fill:white;"/>
</svg>
