<?xml version="1.0" encoding="UTF-8" standalone="no"?>
<!DOCTYPE svg PUBLIC "-//W3C//DTD SVG 1.1//EN" "http://www.w3.org/Graphics/SVG/1.1/DTD/svg11.dtd">
<svg width="100%" height="100%" viewBox="0 0 64 80" version="1.1" xmlns="http://www.w3.org/2000/svg" xmlns:xlink="http://www.w3.org/1999/xlink" xml:space="preserve" xmlns:serif="http://www.serif.com/" style="fill-rule:evenodd;clip-rule:evenodd;stroke-linejoin:round;stroke-miterlimit:2;">
    <g transform="matrix(1,0,0,1,-18.1533,-10)">
        <path d="M31.605,33.275C23.182,39.976 18.153,50.885 18.153,62.458C18.153,67.528 19.116,72.463 20.907,76.982C20.921,77.02 20.933,77.057 20.95,77.093C22.863,81.875 25.707,86.186 29.355,89.678C29.542,89.855 29.789,89.955 30.047,89.955L69.953,89.955C70.211,89.955 70.458,89.855 70.645,89.678C74.294,86.185 77.138,81.873 79.051,77.09C79.067,77.057 79.078,77.022 79.091,76.987C80.883,72.467 81.847,67.53 81.847,62.458C81.847,50.622 76.638,39.571 67.913,32.896C64.762,30.485 62.865,27.007 62.63,23.257C66.529,22.752 69.552,19.41 69.552,15.376L69.552,11C69.552,10.447 69.104,10 68.552,10L30.335,10C29.782,10 29.335,10.447 29.335,11L29.335,15.376C29.335,19.419 32.37,22.767 36.281,23.26C36.277,27.205 34.529,30.948 31.605,33.275ZM69.548,87.955L30.452,87.955C27.48,85.038 25.092,81.532 23.362,77.661L76.638,77.661C74.908,81.532 72.52,85.038 69.548,87.955ZM70.207,75.661L58.576,75.661L64.392,57.701L70.207,75.661ZM55.827,75.661L44.194,75.661L50.012,57.701L55.827,75.661ZM41.444,75.661L29.808,75.661L35.625,57.7L41.444,75.661ZM77.458,75.661L72.956,75.661L79.301,56.056C79.658,58.146 79.847,60.287 79.847,62.458C79.847,67.057 79.011,71.535 77.458,75.661ZM20.704,56.06L27.057,75.661L22.542,75.661C20.989,71.535 20.153,67.057 20.153,62.458C20.153,60.291 20.346,58.151 20.704,56.06ZM28.433,73.417L22.61,55.454L34.25,55.454L28.433,73.417ZM42.819,73.416L37,55.454L48.637,55.454L42.819,73.416ZM57.201,73.415L51.386,55.454L63.017,55.454L57.201,73.415ZM65.766,55.454L77.395,55.454L71.582,73.414L65.766,55.454ZM38.277,23.322L60.656,23.322C60.912,27.673 63.065,31.706 66.698,34.484C72.668,39.052 76.881,45.81 78.753,53.454L21.253,53.454C23.082,46.014 27.131,39.39 32.85,34.84C36.232,32.15 38.254,27.849 38.277,23.322ZM31.335,15.376L31.335,12L67.552,12L67.552,15.376C67.552,18.654 64.884,21.322 61.605,21.322L37.281,21.322C34.003,21.322 31.335,18.654 31.335,15.376Z" style="fill:white;fill-rule:nonzero;"/>
    </g>
</svg>
