<?xml version="1.0" encoding="UTF-8" standalone="no"?>
<!DOCTYPE svg PUBLIC "-//W3C//DTD SVG 1.1//EN" "http://www.w3.org/Graphics/SVG/1.1/DTD/svg11.dtd">
<svg width="100%" height="100%" viewBox="0 0 81 80" version="1.1" xmlns="http://www.w3.org/2000/svg" xmlns:xlink="http://www.w3.org/1999/xlink" xml:space="preserve" xmlns:serif="http://www.serif.com/" style="fill-rule:evenodd;clip-rule:evenodd;stroke-linejoin:round;stroke-miterlimit:2;">
    <g transform="matrix(1,0,0,1,-10,-10)">
        <path d="M11,90L89,90C89.553,90 90,89.552 90,89C90,88.448 89.553,88 89,88L11,88C10.447,88 10,88.448 10,89C10,89.552 10.447,90 11,90ZM11,82.654C11.553,82.654 12,82.206 12,81.654L12,70.348C12,69.795 11.553,69.348 11,69.348C10.447,69.348 10,69.795 10,70.348L10,81.654C10,82.206 10.447,82.654 11,82.654ZM18.667,70.348L18.667,81.654C18.667,82.206 19.114,82.654 19.667,82.654C20.22,82.654 20.667,82.206 20.667,81.654L20.667,70.348C20.667,69.795 20.22,69.348 19.667,69.348C19.114,69.348 18.667,69.795 18.667,70.348ZM27.333,70.348L27.333,81.654C27.333,82.206 27.78,82.654 28.333,82.654C28.886,82.654 29.333,82.206 29.333,81.654L29.333,70.348C29.333,69.795 28.886,69.348 28.333,69.348C27.78,69.348 27.333,69.795 27.333,70.348ZM36,70.348L36,81.654C36,82.206 36.447,82.654 37,82.654C37.553,82.654 38,82.206 38,81.654L38,70.348C38,69.795 37.553,69.348 37,69.348C36.447,69.348 36,69.795 36,70.348ZM44.667,70.348L44.667,81.654C44.667,82.206 45.114,82.654 45.667,82.654C46.22,82.654 46.667,82.206 46.667,81.654L46.667,70.348C46.667,69.795 46.22,69.348 45.667,69.348C45.114,69.348 44.667,69.795 44.667,70.348ZM53.333,70.348L53.333,81.654C53.333,82.206 53.78,82.654 54.333,82.654C54.886,82.654 55.333,82.206 55.333,81.654L55.333,70.348C55.333,69.795 54.886,69.348 54.333,69.348C53.78,69.348 53.333,69.795 53.333,70.348ZM62,70.348L62,81.654C62,82.206 62.447,82.654 63,82.654C63.553,82.654 64,82.206 64,81.654L64,70.348C64,69.795 63.553,69.348 63,69.348C62.447,69.348 62,69.795 62,70.348ZM70.667,70.348L70.667,81.654C70.667,82.206 71.114,82.654 71.667,82.654C72.22,82.654 72.667,82.206 72.667,81.654L72.667,70.348C72.667,69.795 72.22,69.348 71.667,69.348C71.114,69.348 70.667,69.795 70.667,70.348ZM79.333,70.348L79.333,81.654C79.333,82.206 79.78,82.654 80.333,82.654C80.886,82.654 81.333,82.206 81.333,81.654L81.333,70.348C81.333,69.795 80.886,69.348 80.333,69.348C79.78,69.348 79.333,69.795 79.333,70.348ZM89,69.348C88.447,69.348 88,69.795 88,70.348L88,81.654C88,82.206 88.447,82.654 89,82.654C89.553,82.654 90,82.206 90,81.654L90,70.348C90,69.795 89.553,69.348 89,69.348ZM11,64L89,64C89.553,64 90,63.552 90,63C90,62.448 89.553,62 89,62L11,62C10.447,62 10,62.448 10,63C10,63.552 10.447,64 11,64ZM66.919,40.624L66.918,40.624C66.57,40.625 66.248,40.805 66.066,41.102L60.933,49.482C60.735,49.804 60.736,50.208 60.934,50.529L66.087,58.906C66.269,59.202 66.591,59.382 66.938,59.382L66.939,59.382C67.287,59.381 67.609,59.201 67.791,58.904L72.924,50.523C73.121,50.202 73.12,49.798 72.923,49.477L67.771,41.1C67.589,40.804 67.267,40.624 66.919,40.624ZM83.847,40.624L83.846,40.624C83.498,40.625 83.176,40.805 82.994,41.102L77.861,49.482C77.664,49.804 77.665,50.208 77.862,50.529L83.016,58.906C83.197,59.202 83.52,59.382 83.867,59.382L83.868,59.382C84.216,59.381 84.538,59.201 84.72,58.904L89.853,50.523C90.05,50.202 90.049,49.798 89.852,49.477L84.698,41.1C84.517,40.804 84.194,40.624 83.847,40.624ZM15.302,58.906C15.483,59.202 15.806,59.382 16.153,59.382L16.154,59.382C16.502,59.381 16.824,59.201 17.006,58.904L22.139,50.523C22.336,50.202 22.335,49.798 22.138,49.477L16.984,41.1C16.803,40.804 16.48,40.624 16.133,40.624L16.132,40.624C15.784,40.625 15.462,40.805 15.28,41.102L10.147,49.482C9.95,49.804 9.951,50.208 10.148,50.529L15.302,58.906ZM33.062,40.624L33.061,40.624C32.713,40.625 32.391,40.805 32.209,41.102L27.076,49.482C26.879,49.804 26.88,50.208 27.077,50.529L32.229,58.906C32.411,59.202 32.733,59.382 33.081,59.382L33.082,59.382C33.43,59.381 33.752,59.201 33.934,58.904L39.067,50.523C39.265,50.202 39.264,49.798 39.066,49.477L33.913,41.1C33.731,40.804 33.409,40.624 33.062,40.624ZM49.99,40.624L49.989,40.624C49.642,40.625 49.319,40.805 49.138,41.102L44.004,49.482C43.807,49.804 43.808,50.208 44.005,50.529L49.158,58.906C49.34,59.202 49.662,59.382 50.01,59.382L50.011,59.382C50.358,59.381 50.681,59.201 50.862,58.904L55.996,50.523C56.193,50.202 56.192,49.798 55.995,49.477L50.842,41.1C50.66,40.804 50.338,40.624 49.99,40.624ZM50.008,56.47L46.03,50.004L49.992,43.536L53.97,50.002L50.008,56.47ZM66.937,56.47L62.959,50.004L66.921,43.536L70.898,50.002L66.937,56.47ZM83.865,56.47L79.888,50.004L83.849,43.536L87.826,50.002L83.865,56.47ZM33.079,56.47L29.102,50.004L33.063,43.536L37.041,50.002L33.079,56.47ZM16.135,43.536L20.112,50.002L16.151,56.47L12.174,50.004L16.135,43.536ZM11,38L89,38C89.553,38 90,37.552 90,37C90,36.448 89.553,36 89,36L11,36C10.447,36 10,36.448 10,37C10,37.552 10.447,38 11,38ZM11,30.652C11.553,30.652 12,30.205 12,29.652L12,18.346C12,17.794 11.553,17.346 11,17.346C10.447,17.346 10,17.794 10,18.346L10,29.652C10,30.205 10.447,30.652 11,30.652ZM62,18.346L62,29.652C62,30.205 62.447,30.652 63,30.652C63.553,30.652 64,30.205 64,29.652L64,18.346C64,17.794 63.553,17.346 63,17.346C62.447,17.346 62,17.794 62,18.346ZM70.667,18.346L70.667,29.652C70.667,30.205 71.114,30.652 71.667,30.652C72.22,30.652 72.667,30.205 72.667,29.652L72.667,18.346C72.667,17.794 72.22,17.346 71.667,17.346C71.114,17.346 70.667,17.794 70.667,18.346ZM79.333,18.346L79.333,29.652C79.333,30.205 79.78,30.652 80.333,30.652C80.886,30.652 81.333,30.205 81.333,29.652L81.333,18.346C81.333,17.794 80.886,17.346 80.333,17.346C79.78,17.346 79.333,17.794 79.333,18.346ZM89,17.346C88.447,17.346 88,17.794 88,18.346L88,29.652C88,30.205 88.447,30.652 89,30.652C89.553,30.652 90,30.205 90,29.652L90,18.346C90,17.794 89.553,17.346 89,17.346ZM18.667,18.346L18.667,29.652C18.667,30.205 19.114,30.652 19.667,30.652C20.22,30.652 20.667,30.205 20.667,29.652L20.667,18.346C20.667,17.794 20.22,17.346 19.667,17.346C19.114,17.346 18.667,17.794 18.667,18.346ZM27.333,18.346L27.333,29.652C27.333,30.205 27.78,30.652 28.333,30.652C28.886,30.652 29.333,30.205 29.333,29.652L29.333,18.346C29.333,17.794 28.886,17.346 28.333,17.346C27.78,17.346 27.333,17.794 27.333,18.346ZM36,18.346L36,29.652C36,30.205 36.447,30.652 37,30.652C37.553,30.652 38,30.205 38,29.652L38,18.346C38,17.794 37.553,17.346 37,17.346C36.447,17.346 36,17.794 36,18.346ZM44.667,18.346L44.667,29.652C44.667,30.205 45.114,30.652 45.667,30.652C46.22,30.652 46.667,30.205 46.667,29.652L46.667,18.346C46.667,17.794 46.22,17.346 45.667,17.346C45.114,17.346 44.667,17.794 44.667,18.346ZM53.333,18.346L53.333,29.652C53.333,30.205 53.78,30.652 54.333,30.652C54.886,30.652 55.333,30.205 55.333,29.652L55.333,18.346C55.333,17.794 54.886,17.346 54.333,17.346C53.78,17.346 53.333,17.794 53.333,18.346ZM11,12L89,12C89.553,12 90,11.552 90,11C90,10.448 89.553,10 89,10L11,10C10.447,10 10,10.448 10,11C10,11.552 10.447,12 11,12Z" style="fill:white;fill-rule:nonzero;"/>
    </g>
</svg>
