<svg id="Line" xmlns="http://www.w3.org/2000/svg" viewBox="0 0 64 64"><defs><style>.cls-1{fill:none;stroke:#231f20;stroke-linecap:round;stroke-linejoin:round;stroke-width:2px;}</style></defs><title>Icon Line_8</title><rect class="cls-1" x="28.51" y="3.83" width="8.02" height="4.2"/><rect class="cls-1" x="28.51" y="16.8" width="8.02" height="3.82"/><rect class="cls-1" x="28.51" y="29.39" width="8.02" height="3.82"/><rect class="cls-1" x="28.51" y="41.99" width="8.02" height="19.17"/><polygon class="cls-1" points="54.66 37.61 48.27 41.99 15.97 41.99 15.97 33.22 48.27 33.22 54.66 37.61"/><polygon class="cls-1" points="47.76 20.62 47.76 29.39 17.63 29.39 11.67 25.02 17.63 20.62 47.76 20.62"/><polygon class="cls-1" points="53.59 12.42 47.55 16.8 17.03 16.8 17.03 8.03 47.55 8.03 53.59 12.42"/><line class="cls-1" x1="21.11" y1="12.98" x2="45.16" y2="12.98"/><line class="cls-1" x1="43.33" y1="25.63" x2="21.11" y2="25.63"/><line class="cls-1" x1="43.63" y1="37.6" x2="21.41" y2="37.6"/></svg>