<?xml version="1.0" encoding="UTF-8" standalone="no"?>
<!DOCTYPE svg PUBLIC "-//W3C//DTD SVG 1.1//EN" "http://www.w3.org/Graphics/SVG/1.1/DTD/svg11.dtd">
<svg width="100%" height="100%" viewBox="0 0 241 55" version="1.1" xmlns="http://www.w3.org/2000/svg" xmlns:xlink="http://www.w3.org/1999/xlink" xml:space="preserve" xmlns:serif="http://www.serif.com/" style="fill-rule:evenodd;clip-rule:evenodd;stroke-linejoin:round;stroke-miterlimit:2;">
    <g id="Camada_2">
        <g id="Camada_1-2">
            <g transform="matrix(1.00542,0,0,1,-0.609097,0)">
                <path d="M223.87,2.24L223.98,7.35L230.47,7.35L230.58,12.24L238.18,12.24L238.72,36.12L231.11,36.12L231.22,41.01L224.73,41.01L224.84,46.12L18.13,46.12L18.02,41.01L12.93,41.01L12.82,36.12L5.21,36.12L4.68,12.24L12.29,12.24L12.18,7.35L17.27,7.35L17.16,2.24L223.87,2.24Z" style="fill:rgb(0,117,0);fill-rule:nonzero;"/>
            </g>
            <g>
                <path d="M225.3,5.76L224.5,7.38L224.39,2.27L225.19,0.64L225.3,5.76Z" style="fill:rgb(128,128,128);fill-rule:nonzero;"/>
                <path d="M231.78,5.76L230.98,7.38L224.5,7.38L225.3,5.76L231.78,5.76Z" style="fill:rgb(128,128,128);fill-rule:nonzero;"/>
                <path d="M239.5,10.64L238.7,12.27L231.09,12.27L231.89,10.64L239.5,10.64Z" style="fill:rgb(128,128,128);fill-rule:nonzero;"/>
                <path d="M231.89,10.64L231.09,12.27L230.98,7.38L231.78,5.76L231.89,10.64Z" style="fill:rgb(128,128,128);fill-rule:nonzero;"/>
                <path d="M240.03,34.53L239.23,36.15L238.7,12.27L239.5,10.64L240.03,34.53Z" style="fill:rgb(128,128,128);fill-rule:nonzero;"/>
                <path d="M240.69,35.16L239.9,36.79L232.28,36.79L233.08,35.16L240.69,35.16Z" style="fill:rgb(128,128,128);fill-rule:nonzero;"/>
                <path d="M232.53,39.4L231.73,41.03L231.62,36.15L232.42,34.53L232.53,39.4Z" style="fill:rgb(128,128,128);fill-rule:nonzero;"/>
                <path d="M233.19,40.05L232.39,41.67L225.91,41.67L226.71,40.05L233.19,40.05Z" style="fill:rgb(128,128,128);fill-rule:nonzero;"/>
                <path d="M226.16,44.53L225.36,46.15L225.25,41.03L226.05,39.4L226.16,44.53Z" style="fill:rgb(128,128,128);fill-rule:nonzero;"/>
                <path d="M225.19,0.64L224.39,2.27L16.95,2.27L17.75,0.64L225.19,0.64Z" style="fill:rgb(128,128,128);fill-rule:nonzero;"/>
                <path d="M17.19,5.12L16.39,6.74L16.28,1.63L17.08,0L17.19,5.12Z" style="fill:rgb(128,128,128);fill-rule:nonzero;"/>
                <path d="M17.86,5.76L17.06,7.38L11.97,7.38L12.77,5.76L17.86,5.76Z" style="fill:rgb(128,128,128);fill-rule:nonzero;"/>
                <path d="M12.22,10L11.42,11.63L11.31,6.74L12.11,5.12L12.22,10Z" style="fill:rgb(128,128,128);fill-rule:nonzero;"/>
                <path d="M12.88,10.64L12.07,12.27L4.47,12.27L5.27,10.64L12.88,10.64Z" style="fill:rgb(128,128,128);fill-rule:nonzero;"/>
                <path d="M5.17,35.16L4.37,36.79L3.81,11.63L4.61,10L5.17,35.16Z" style="fill:rgb(128,128,128);fill-rule:nonzero;"/>
                <path d="M12.78,35.16L11.97,36.79L4.37,36.79L5.17,35.16L12.78,35.16Z" style="fill:rgb(128,128,128);fill-rule:nonzero;"/>
                <path d="M12.88,40.05L12.08,41.67L11.97,36.79L12.78,35.16L12.88,40.05Z" style="fill:rgb(128,128,128);fill-rule:nonzero;"/>
                <path d="M17.97,40.05L17.17,41.67L12.08,41.67L12.88,40.05L17.97,40.05Z" style="fill:rgb(128,128,128);fill-rule:nonzero;"/>
                <path d="M226.82,45.16L226.02,46.79L17.28,46.79L18.08,45.16L226.82,45.16Z" style="fill:rgb(128,128,128);fill-rule:nonzero;"/>
                <path d="M18.08,45.16L17.28,46.79L17.17,41.67L17.97,40.05L18.08,45.16Z" style="fill:rgb(128,128,128);fill-rule:nonzero;"/>
                <path d="M232.52,10L240.14,10L240.7,35.16L233.08,35.16L233.19,40.05L226.71,40.05L226.82,45.16L18.08,45.16L18,40.05L12.88,40.05L12.77,35.16L5.17,35.16L4.61,10L12.22,10L12.11,5.11L17.19,5.11L17.08,0L225.82,0L225.93,5.11L232.41,5.11L232.52,10ZM240,34.53L239.47,10.64L231.86,10.64L231.75,5.76L225.3,5.76L225.19,0.64L17.75,0.64L17.86,5.76L12.77,5.76L12.87,10.64L5.27,10.64L5.8,34.53L13.41,34.53L13.51,39.4L18.61,39.4L18.72,44.53L226.16,44.53L226.05,39.4L232.53,39.4L232.42,34.53L240,34.53" style="fill:rgb(236,236,236);fill-rule:nonzero;"/>
            </g>
        </g>
        <g transform="matrix(2.38514,0,0,2.38514,71.8431,30.1171)">
            <g>
                <path d="M0.001,-5.999L0.001,-0.001L6.599,-0.001L6.599,-1.199L2.399,-1.199L2.399,-2.401L4.199,-2.401L4.199,-3.599L2.399,-3.599L2.399,-4.801L6.599,-4.801L6.599,-5.999L0.001,-5.999Z" style="fill:white;fill-rule:nonzero;stroke:rgb(0,127,0);stroke-width:0.42px;"/>
                <path d="M7.801,-5.999L7.801,-0.001L13.8,-0.001L13.8,-0.6L14.399,-0.6L14.399,-5.4L13.8,-5.4L13.8,-5.999L7.801,-5.999ZM10.199,-4.801L12.001,-4.801L12.001,-1.199L10.199,-1.199L10.199,-4.801Z" style="fill:white;fill-rule:nonzero;stroke:rgb(0,127,0);stroke-width:0.42px;"/>
                <rect x="15.601" y="-5.999" width="2.398" height="5.999" style="fill:white;fill-rule:nonzero;stroke:rgb(0,127,0);stroke-width:0.42px;"/>
                <path d="M23.999,-0.001L23.999,-4.801L26.399,-4.801L26.399,-5.999L19.201,-5.999L19.201,-4.801L21.601,-4.801L21.601,-0.001L23.999,-0.001Z" style="fill:white;fill-rule:nonzero;stroke:rgb(0,127,0);stroke-width:0.42px;"/>
                <path d="M29.999,-0.001L29.999,-1.801L31.801,-1.801L31.801,-0.001L34.199,-0.001L34.199,-5.4L33.6,-5.4L33.6,-5.999L28.2,-5.999L28.2,-5.4L27.601,-5.4L27.601,-0.001L29.999,-0.001ZM31.801,-2.999L29.999,-2.999L29.999,-4.801L31.801,-4.801L31.801,-2.999Z" style="fill:white;fill-rule:nonzero;stroke:rgb(0,127,0);stroke-width:0.42px;"/>
                <path d="M37.799,-1.199L37.799,-5.999L35.401,-5.999L35.401,-0.001L40.799,-0.001L40.799,-1.199L37.799,-1.199Z" style="fill:white;fill-rule:nonzero;stroke:rgb(0,127,0);stroke-width:0.42px;"/>
            </g>
        </g>
    </g>
</svg>
