<?xml version="1.0" encoding="UTF-8" standalone="no"?>
<!DOCTYPE svg PUBLIC "-//W3C//DTD SVG 1.1//EN" "http://www.w3.org/Graphics/SVG/1.1/DTD/svg11.dtd">
<svg width="100%" height="100%" viewBox="0 0 241 55" version="1.1" xmlns="http://www.w3.org/2000/svg" xmlns:xlink="http://www.w3.org/1999/xlink" xml:space="preserve" xmlns:serif="http://www.serif.com/" style="fill-rule:evenodd;clip-rule:evenodd;stroke-miterlimit:10;">
    <g id="Camada_2">
        <g id="Camada_1-2">
            <g transform="matrix(1.00542,0,0,1,-0.609097,0)">
                <path d="M223.87,2.24L223.98,7.35L230.47,7.35L230.58,12.24L238.18,12.24L238.72,36.12L231.11,36.12L231.22,41.01L224.73,41.01L224.84,46.12L18.13,46.12L18.02,41.01L12.93,41.01L12.82,36.12L5.21,36.12L4.68,12.24L12.29,12.24L12.18,7.35L17.27,7.35L17.16,2.24L223.87,2.24Z" style="fill:rgb(0,117,0);fill-rule:nonzero;"/>
            </g>
            <g>
                <path d="M225.3,5.76L224.5,7.38L224.39,2.27L225.19,0.64L225.3,5.76Z" style="fill:rgb(128,128,128);fill-rule:nonzero;"/>
                <path d="M231.78,5.76L230.98,7.38L224.5,7.38L225.3,5.76L231.78,5.76Z" style="fill:rgb(128,128,128);fill-rule:nonzero;"/>
                <path d="M239.5,10.64L238.7,12.27L231.09,12.27L231.89,10.64L239.5,10.64Z" style="fill:rgb(128,128,128);fill-rule:nonzero;"/>
                <path d="M231.89,10.64L231.09,12.27L230.98,7.38L231.78,5.76L231.89,10.64Z" style="fill:rgb(128,128,128);fill-rule:nonzero;"/>
                <path d="M240.03,34.53L239.23,36.15L238.7,12.27L239.5,10.64L240.03,34.53Z" style="fill:rgb(128,128,128);fill-rule:nonzero;"/>
                <path d="M240.69,35.16L239.9,36.79L232.28,36.79L233.08,35.16L240.69,35.16Z" style="fill:rgb(128,128,128);fill-rule:nonzero;"/>
                <path d="M232.53,39.4L231.73,41.03L231.62,36.15L232.42,34.53L232.53,39.4Z" style="fill:rgb(128,128,128);fill-rule:nonzero;"/>
                <path d="M233.19,40.05L232.39,41.67L225.91,41.67L226.71,40.05L233.19,40.05Z" style="fill:rgb(128,128,128);fill-rule:nonzero;"/>
                <path d="M226.16,44.53L225.36,46.15L225.25,41.03L226.05,39.4L226.16,44.53Z" style="fill:rgb(128,128,128);fill-rule:nonzero;"/>
                <path d="M225.19,0.64L224.39,2.27L16.95,2.27L17.75,0.64L225.19,0.64Z" style="fill:rgb(128,128,128);fill-rule:nonzero;"/>
                <path d="M17.19,5.12L16.39,6.74L16.28,1.63L17.08,0L17.19,5.12Z" style="fill:rgb(128,128,128);fill-rule:nonzero;"/>
                <path d="M17.86,5.76L17.06,7.38L11.97,7.38L12.77,5.76L17.86,5.76Z" style="fill:rgb(128,128,128);fill-rule:nonzero;"/>
                <path d="M12.22,10L11.42,11.63L11.31,6.74L12.11,5.12L12.22,10Z" style="fill:rgb(128,128,128);fill-rule:nonzero;"/>
                <path d="M12.88,10.64L12.07,12.27L4.47,12.27L5.27,10.64L12.88,10.64Z" style="fill:rgb(128,128,128);fill-rule:nonzero;"/>
                <path d="M5.17,35.16L4.37,36.79L3.81,11.63L4.61,10L5.17,35.16Z" style="fill:rgb(128,128,128);fill-rule:nonzero;"/>
                <path d="M12.78,35.16L11.97,36.79L4.37,36.79L5.17,35.16L12.78,35.16Z" style="fill:rgb(128,128,128);fill-rule:nonzero;"/>
                <path d="M12.88,40.05L12.08,41.67L11.97,36.79L12.78,35.16L12.88,40.05Z" style="fill:rgb(128,128,128);fill-rule:nonzero;"/>
                <path d="M17.97,40.05L17.17,41.67L12.08,41.67L12.88,40.05L17.97,40.05Z" style="fill:rgb(128,128,128);fill-rule:nonzero;"/>
                <path d="M226.82,45.16L226.02,46.79L17.28,46.79L18.08,45.16L226.82,45.16Z" style="fill:rgb(128,128,128);fill-rule:nonzero;"/>
                <path d="M18.08,45.16L17.28,46.79L17.17,41.67L17.97,40.05L18.08,45.16Z" style="fill:rgb(128,128,128);fill-rule:nonzero;"/>
                <path d="M232.52,10L240.14,10L240.7,35.16L233.08,35.16L233.19,40.05L226.71,40.05L226.82,45.16L18.08,45.16L18,40.05L12.88,40.05L12.77,35.16L5.17,35.16L4.61,10L12.22,10L12.11,5.11L17.19,5.11L17.08,0L225.82,0L225.93,5.11L232.41,5.11L232.52,10ZM240,34.53L239.47,10.64L231.86,10.64L231.75,5.76L225.3,5.76L225.19,0.64L17.75,0.64L17.86,5.76L12.77,5.76L12.87,10.64L5.27,10.64L5.8,34.53L13.41,34.53L13.51,39.4L18.61,39.4L18.72,44.53L226.16,44.53L226.05,39.4L232.53,39.4L232.42,34.53L240,34.53" style="fill:rgb(236,236,236);fill-rule:nonzero;"/>
            </g>
            <g transform="matrix(1,0,0,1,37.02,30.51)">
                <path d="M14.704,-0.002L14.704,-1.472L16.174,-1.472L16.174,-7.351L14.704,-7.351L14.704,-8.821L5.88,-8.821L5.88,-11.766L16.174,-11.766L16.174,-14.703L1.471,-14.703L1.471,-13.233L0.002,-13.233L0.002,-7.354L1.471,-7.354L1.471,-5.884L10.295,-5.884L10.295,-2.939L0.002,-2.939L0.002,-0.002L14.704,-0.002Z" style="fill:white;fill-rule:nonzero;stroke:rgb(0,127,0);stroke-width:0.65px;"/>
                <path d="M24.997,-0.002L24.997,-4.413L29.412,-4.413L29.412,-0.002L35.29,-0.002L35.29,-13.234L33.821,-13.234L33.821,-14.703L20.588,-14.703L20.588,-13.234L19.118,-13.234L19.118,-0.002L24.997,-0.002ZM29.412,-7.351L24.997,-7.351L24.997,-11.766L29.412,-11.766L29.412,-7.351Z" style="fill:white;fill-rule:nonzero;stroke:rgb(0,127,0);stroke-width:0.65px;"/>
                <rect x="38.235" y="-14.703" width="5.878" height="14.701" style="fill:white;fill-rule:nonzero;stroke:rgb(0,127,0);stroke-width:0.65px;"/>
                <path d="M47.058,-14.703L47.058,-0.002L61.76,-0.002L61.76,-1.472L63.23,-1.472L63.23,-7.351L61.76,-7.351L61.76,-8.825L63.23,-8.825L63.23,-13.233L61.76,-13.233L61.76,-14.703L47.058,-14.703ZM57.351,-8.821L52.936,-8.821L52.936,-11.766L57.351,-11.766L57.351,-8.821ZM52.936,-5.884L57.351,-5.884L57.351,-2.939L52.936,-2.939L52.936,-5.884Z" style="fill:white;fill-rule:nonzero;stroke:rgb(0,127,0);stroke-width:0.65px;"/>
                <path d="M72.053,-0.002L72.053,-4.413L76.468,-4.413L76.468,-0.002L82.346,-0.002L82.346,-13.234L80.877,-13.234L80.877,-14.703L67.644,-14.703L67.644,-13.234L66.174,-13.234L66.174,-0.002L72.053,-0.002ZM76.468,-7.351L72.053,-7.351L72.053,-11.766L76.468,-11.766L76.468,-7.351Z" style="fill:white;fill-rule:nonzero;stroke:rgb(0,127,0);stroke-width:0.65px;"/>
                <path d="M102.933,-0.002L102.933,-7.354L104.407,-7.354L104.407,-5.884L107.345,-5.884L107.345,-7.354L108.819,-7.354L108.819,-0.002L114.697,-0.002L114.697,-14.703L108.819,-14.703L108.819,-13.233L107.345,-13.233L107.345,-11.762L104.407,-11.762L104.407,-13.233L102.933,-13.233L102.933,-14.703L97.055,-14.703L97.055,-0.002L102.933,-0.002Z" style="fill:white;fill-rule:nonzero;stroke:rgb(0,127,0);stroke-width:0.65px;"/>
                <path d="M123.52,-0.002L123.52,-4.413L127.935,-4.413L127.935,-0.002L133.814,-0.002L133.814,-13.234L132.344,-13.234L132.344,-14.703L119.111,-14.703L119.111,-13.234L117.642,-13.234L117.642,-0.002L123.52,-0.002ZM127.935,-7.351L123.52,-7.351L123.52,-11.766L127.935,-11.766L127.935,-7.351Z" style="fill:white;fill-rule:nonzero;stroke:rgb(0,127,0);stroke-width:0.65px;"/>
                <rect x="136.758" y="-14.703" width="5.878" height="14.701" style="fill:white;fill-rule:nonzero;stroke:rgb(0,127,0);stroke-width:0.65px;"/>
                <path d="M160.284,-0.002L160.284,-1.472L161.753,-1.472L161.753,-7.351L160.284,-7.351L160.284,-8.821L151.46,-8.821L151.46,-11.766L161.753,-11.766L161.753,-14.703L147.051,-14.703L147.051,-13.233L145.581,-13.233L145.581,-7.354L147.051,-7.354L147.051,-5.884L155.875,-5.884L155.875,-2.939L145.581,-2.939L145.581,-0.002L160.284,-0.002Z" style="fill:white;fill-rule:nonzero;stroke:rgb(0,127,0);stroke-width:0.65px;"/>
            </g>
        </g>
    </g>
</svg>
