<?xml version="1.0" encoding="UTF-8" standalone="no"?>
<!DOCTYPE svg PUBLIC "-//W3C//DTD SVG 1.1//EN" "http://www.w3.org/Graphics/SVG/1.1/DTD/svg11.dtd">
<svg width="100%" height="100%" viewBox="0 0 241 55" version="1.1" xmlns="http://www.w3.org/2000/svg" xmlns:xlink="http://www.w3.org/1999/xlink" xml:space="preserve" xmlns:serif="http://www.serif.com/" style="fill-rule:evenodd;clip-rule:evenodd;stroke-linejoin:round;stroke-miterlimit:2;">
    <g id="Camada_2">
        <g id="Camada_1-2">
            <g transform="matrix(1.00564,0,0,1,-0.571967,0)">
                <path d="M223.87,2.24L223.98,7.35L230.47,7.35L230.58,12.24L238.18,12.24L238.72,36.12L231.11,36.12L231.22,41.01L224.73,41.01L224.84,46.12L18.13,46.12L18.02,41.01L12.93,41.01L12.82,36.12L5.21,36.12L4.68,12.24L12.29,12.24L12.18,7.35L17.27,7.35L17.16,2.24L223.87,2.24Z" style="fill:rgb(9,211,115);fill-rule:nonzero;"/>
            </g>
            <g>
                <path d="M225.3,5.76L224.5,7.38L224.39,2.27L225.19,0.64L225.3,5.76Z" style="fill:rgb(128,128,128);fill-rule:nonzero;"/>
                <path d="M231.78,5.76L230.98,7.38L224.5,7.38L225.3,5.76L231.78,5.76Z" style="fill:rgb(128,128,128);fill-rule:nonzero;"/>
                <path d="M239.5,10.64L238.7,12.27L231.09,12.27L231.89,10.64L239.5,10.64Z" style="fill:rgb(128,128,128);fill-rule:nonzero;"/>
                <path d="M231.89,10.64L231.09,12.27L230.98,7.38L231.78,5.76L231.89,10.64Z" style="fill:rgb(128,128,128);fill-rule:nonzero;"/>
                <path d="M240.03,34.53L239.23,36.15L238.7,12.27L239.5,10.64L240.03,34.53Z" style="fill:rgb(128,128,128);fill-rule:nonzero;"/>
                <path d="M240.69,35.16L239.9,36.79L232.28,36.79L233.08,35.16L240.69,35.16Z" style="fill:rgb(128,128,128);fill-rule:nonzero;"/>
                <path d="M232.53,39.4L231.73,41.03L231.62,36.15L232.42,34.53L232.53,39.4Z" style="fill:rgb(128,128,128);fill-rule:nonzero;"/>
                <path d="M233.19,40.05L232.39,41.67L225.91,41.67L226.71,40.05L233.19,40.05Z" style="fill:rgb(128,128,128);fill-rule:nonzero;"/>
                <path d="M226.16,44.53L225.36,46.15L225.25,41.03L226.05,39.4L226.16,44.53Z" style="fill:rgb(128,128,128);fill-rule:nonzero;"/>
                <path d="M225.19,0.64L224.39,2.27L16.95,2.27L17.75,0.64L225.19,0.64Z" style="fill:rgb(128,128,128);fill-rule:nonzero;"/>
                <path d="M17.19,5.12L16.39,6.74L16.28,1.63L17.08,0L17.19,5.12Z" style="fill:rgb(128,128,128);fill-rule:nonzero;"/>
                <path d="M17.86,5.76L17.06,7.38L11.97,7.38L12.77,5.76L17.86,5.76Z" style="fill:rgb(128,128,128);fill-rule:nonzero;"/>
                <path d="M12.22,10L11.42,11.63L11.31,6.74L12.11,5.12L12.22,10Z" style="fill:rgb(128,128,128);fill-rule:nonzero;"/>
                <path d="M12.88,10.64L12.07,12.27L4.47,12.27L5.27,10.64L12.88,10.64Z" style="fill:rgb(128,128,128);fill-rule:nonzero;"/>
                <path d="M5.17,35.16L4.37,36.79L3.81,11.63L4.61,10L5.17,35.16Z" style="fill:rgb(128,128,128);fill-rule:nonzero;"/>
                <path d="M12.78,35.16L11.97,36.79L4.37,36.79L5.17,35.16L12.78,35.16Z" style="fill:rgb(128,128,128);fill-rule:nonzero;"/>
                <path d="M12.88,40.05L12.08,41.67L11.97,36.79L12.78,35.16L12.88,40.05Z" style="fill:rgb(128,128,128);fill-rule:nonzero;"/>
                <path d="M17.97,40.05L17.17,41.67L12.08,41.67L12.88,40.05L17.97,40.05Z" style="fill:rgb(128,128,128);fill-rule:nonzero;"/>
                <path d="M226.82,45.16L226.02,46.79L17.28,46.79L18.08,45.16L226.82,45.16Z" style="fill:rgb(128,128,128);fill-rule:nonzero;"/>
                <path d="M18.08,45.16L17.28,46.79L17.17,41.67L17.97,40.05L18.08,45.16Z" style="fill:rgb(128,128,128);fill-rule:nonzero;"/>
                <path d="M232.52,10L240.14,10L240.7,35.16L233.08,35.16L233.19,40.05L226.71,40.05L226.82,45.16L18.08,45.16L18,40.05L12.88,40.05L12.77,35.16L5.17,35.16L4.61,10L12.22,10L12.11,5.11L17.19,5.11L17.08,0L225.82,0L225.93,5.11L232.41,5.11L232.52,10ZM240,34.53L239.47,10.64L231.86,10.64L231.75,5.76L225.3,5.76L225.19,0.64L17.75,0.64L17.86,5.76L12.77,5.76L12.87,10.64L5.27,10.64L5.8,34.53L13.41,34.53L13.51,39.4L18.61,39.4L18.72,44.53L226.16,44.53L226.05,39.4L232.53,39.4L232.42,34.53L240,34.53" style="fill:rgb(236,236,236);fill-rule:nonzero;"/>
            </g>
            <g transform="matrix(1,0,0,1,25.9373,30.7475)">
                <rect x="0.002" y="-14.703" width="5.878" height="14.701" style="fill:rgb(34,101,62);"/>
                <path d="M14.703,-0.002L14.703,-7.354L16.177,-7.354L16.177,-5.884L17.646,-5.884L17.646,-4.413L19.115,-4.413L19.115,-2.943L20.589,-2.943L20.589,-0.002L26.467,-0.002L26.467,-14.703L20.589,-14.703L20.589,-8.821L19.115,-8.821L19.115,-10.292L17.646,-10.292L17.646,-11.762L16.177,-11.762L16.177,-13.233L14.703,-13.233L14.703,-14.703L8.825,-14.703L8.825,-0.002L14.703,-0.002Z" style="fill:rgb(34,101,62);fill-rule:nonzero;"/>
                <path d="M44.114,-0.002L44.114,-1.472L45.584,-1.472L45.584,-7.351L44.114,-7.351L44.114,-8.821L35.29,-8.821L35.29,-11.766L45.584,-11.766L45.584,-14.703L30.881,-14.703L30.881,-13.233L29.412,-13.233L29.412,-7.354L30.881,-7.354L30.881,-5.884L39.705,-5.884L39.705,-2.939L29.412,-2.939L29.412,-0.002L44.114,-0.002Z" style="fill:rgb(34,101,62);fill-rule:nonzero;"/>
                <path d="M49.998,-14.703L49.998,-13.234L48.528,-13.234L48.528,-1.47L49.998,-1.47L49.998,-0.002L64.7,-0.002L64.7,-2.939L54.407,-2.939L54.407,-11.766L64.7,-11.766L64.7,-14.703L49.998,-14.703Z" style="fill:rgb(34,101,62);fill-rule:nonzero;"/>
                <path d="M82.347,-14.703L67.645,-14.703L67.645,-0.002L73.523,-0.002L73.523,-4.413L77.938,-4.413L77.938,-0.002L83.817,-0.002L83.817,-4.41L82.347,-4.41L82.347,-5.884L83.817,-5.884L83.817,-13.233L82.347,-13.233L82.347,-14.703ZM73.523,-11.766L77.938,-11.766L77.938,-7.351L73.523,-7.351L73.523,-11.766Z" style="fill:rgb(34,101,62);fill-rule:nonzero;"/>
                <path d="M86.761,-14.703L86.761,-0.002L102.933,-0.002L102.933,-2.939L92.64,-2.939L92.64,-5.884L97.051,-5.884L97.051,-8.821L92.64,-8.821L92.64,-11.766L102.933,-11.766L102.933,-14.703L86.761,-14.703Z" style="fill:rgb(34,101,62);fill-rule:nonzero;"/>
                <path d="M119.111,-0.002L119.111,-1.472L120.581,-1.472L120.581,-2.941L122.051,-2.941L122.051,-4.41L123.52,-4.41L123.52,-14.703L117.642,-14.703L117.642,-4.41L116.17,-4.41L116.17,-2.939L113.228,-2.939L113.228,-4.41L111.756,-4.41L111.756,-14.703L105.878,-14.703L105.878,-4.41L107.347,-4.41L107.347,-2.941L108.817,-2.941L108.817,-1.472L110.287,-1.472L110.287,-0.002L119.111,-0.002Z" style="fill:rgb(34,101,62);fill-rule:nonzero;"/>
                <path d="M132.343,-0.002L132.343,-4.413L136.758,-4.413L136.758,-0.002L142.637,-0.002L142.637,-13.234L141.167,-13.234L141.167,-14.703L127.934,-14.703L127.934,-13.234L126.465,-13.234L126.465,-0.002L132.343,-0.002ZM136.758,-7.351L132.343,-7.351L132.343,-11.766L136.758,-11.766L136.758,-7.351Z" style="fill:rgb(34,101,62);fill-rule:nonzero;"/>
                <rect x="145.581" y="-7.351" width="8.819" height="2.937" style="fill:rgb(34,101,62);"/>
                <path d="M172.048,-0.002L172.048,-1.472L173.517,-1.472L173.517,-7.351L172.048,-7.351L172.048,-8.821L163.224,-8.821L163.224,-11.766L173.517,-11.766L173.517,-14.703L158.815,-14.703L158.815,-13.233L157.345,-13.233L157.345,-7.354L158.815,-7.354L158.815,-5.884L167.639,-5.884L167.639,-2.939L157.345,-2.939L157.345,-0.002L172.048,-0.002Z" style="fill:rgb(34,101,62);fill-rule:nonzero;"/>
                <path d="M176.462,-14.703L176.462,-0.002L192.634,-0.002L192.634,-2.939L182.34,-2.939L182.34,-5.884L186.752,-5.884L186.752,-8.821L182.34,-8.821L182.34,-11.766L192.634,-11.766L192.634,-14.703L176.462,-14.703Z" style="fill:rgb(34,101,62);fill-rule:nonzero;"/>
            </g>
        </g>
    </g>
</svg>
