<?xml version="1.0" encoding="UTF-8" standalone="no"?>
<!DOCTYPE svg PUBLIC "-//W3C//DTD SVG 1.1//EN" "http://www.w3.org/Graphics/SVG/1.1/DTD/svg11.dtd">
<svg width="100%" height="100%" viewBox="0 0 1016 515" version="1.1" xmlns="http://www.w3.org/2000/svg" xmlns:xlink="http://www.w3.org/1999/xlink" xml:space="preserve" xmlns:serif="http://www.serif.com/" style="fill-rule:evenodd;clip-rule:evenodd;stroke-linejoin:round;stroke-miterlimit:2;">
    <g transform="matrix(1,0,0,1,-0.26,0)">
        <g id="Camada_1-2">
            <rect x="0.26" y="0" width="1015.22" height="514.99" style="fill:rgb(125,223,255);"/>
            <g opacity="0.3">
                <rect x="803.53" y="14.17" width="22.75" height="22.75" style="fill:white;"/>
                <rect x="871.77" y="14.17" width="22.75" height="22.75" style="fill:white;"/>
                <rect x="849.02" y="14.17" width="22.75" height="22.75" style="fill:white;"/>
                <rect x="803.53" y="36.92" width="22.75" height="22.75" style="fill:white;"/>
                <rect x="780.78" y="36.92" width="22.75" height="22.75" style="fill:white;"/>
                <rect x="894.52" y="36.92" width="22.75" height="22.75" style="fill:white;"/>
                <rect x="871.77" y="36.92" width="22.75" height="22.75" style="fill:white;"/>
                <rect x="849.02" y="36.92" width="22.75" height="22.75" style="fill:white;"/>
                <rect x="826.28" y="36.92" width="22.75" height="22.75" style="fill:white;"/>
                <rect x="826.28" y="59.66" width="22.75" height="22.75" style="fill:white;"/>
                <rect x="803.53" y="59.66" width="22.75" height="22.75" style="fill:white;"/>
                <rect x="780.78" y="59.66" width="22.75" height="22.75" style="fill:white;"/>
                <rect x="894.52" y="59.66" width="22.75" height="22.75" style="fill:white;"/>
                <rect x="871.77" y="59.66" width="22.75" height="22.75" style="fill:white;"/>
                <rect x="849.02" y="59.66" width="22.75" height="22.75" style="fill:white;"/>
                <rect x="826.28" y="59.66" width="22.75" height="22.75" style="fill:white;"/>
                <rect x="826.28" y="82.41" width="22.75" height="22.75" style="fill:white;"/>
                <rect x="803.53" y="82.41" width="22.75" height="22.75" style="fill:white;"/>
                <rect x="871.77" y="82.41" width="22.75" height="22.75" style="fill:white;"/>
                <rect x="849.02" y="82.41" width="22.75" height="22.75" style="fill:white;"/>
                <rect x="826.28" y="82.41" width="22.75" height="22.75" style="fill:white;"/>
            </g>
            <g opacity="0.3">
                <rect x="201.42" y="20.78" width="22.75" height="22.75" style="fill:white;"/>
                <rect x="178.68" y="20.78" width="22.75" height="22.75" style="fill:white;"/>
                <rect x="224.17" y="43.53" width="22.75" height="22.75" style="fill:white;"/>
                <rect x="201.42" y="43.53" width="22.75" height="22.75" style="fill:white;"/>
                <rect x="178.68" y="43.53" width="22.75" height="22.75" style="fill:white;"/>
                <rect x="178.68" y="66.28" width="22.75" height="22.75" style="fill:white;"/>
            </g>
            <g opacity="0.3">
                <g transform="matrix(-1,-7.65714e-16,7.65714e-16,-1,288.94,155.47)">
                    <rect x="133.1" y="66.36" width="22.75" height="22.75" style="fill:white;"/>
                </g>
                <g transform="matrix(-1,-7.65714e-16,7.65714e-16,-1,334.44,155.47)">
                    <rect x="155.85" y="66.36" width="22.75" height="22.75" style="fill:white;"/>
                </g>
                <g transform="matrix(-1,-7.65714e-16,7.65714e-16,-1,243.45,109.98)">
                    <rect x="110.35" y="43.62" width="22.75" height="22.75" style="fill:white;"/>
                </g>
                <g transform="matrix(-1,-7.65714e-16,7.65714e-16,-1,288.94,109.98)">
                    <rect x="133.1" y="43.62" width="22.75" height="22.75" style="fill:white;"/>
                </g>
                <g transform="matrix(-1,-7.65714e-16,7.65714e-16,-1,334.44,109.98)">
                    <rect x="155.85" y="43.62" width="22.75" height="22.75" style="fill:white;"/>
                </g>
                <g transform="matrix(-1,-7.65714e-16,7.65714e-16,-1,334.44,64.48)">
                    <rect x="155.85" y="20.87" width="22.75" height="22.75" style="fill:white;"/>
                </g>
            </g>
            <g opacity="0.3">
                <g transform="matrix(-1,-7.65714e-16,7.65714e-16,-1,1009.31,131.41)">
                    <rect x="498.1" y="59.15" width="13.11" height="13.11" style="fill:white;"/>
                </g>
                <g transform="matrix(-1,-7.65714e-16,7.65714e-16,-1,1035.53,131.41)">
                    <rect x="511.21" y="59.15" width="13.11" height="13.11" style="fill:white;"/>
                </g>
                <g transform="matrix(-1,-7.65714e-16,7.65714e-16,-1,1087.97,105.19)">
                    <rect x="537.43" y="46.04" width="13.11" height="13.11" style="fill:white;"/>
                </g>
                <g transform="matrix(-1,-7.65714e-16,7.65714e-16,-1,983.09,105.19)">
                    <rect x="484.99" y="46.04" width="13.11" height="13.11" style="fill:white;"/>
                </g>
                <g transform="matrix(-1,-7.65714e-16,7.65714e-16,-1,1009.31,105.19)">
                    <rect x="498.1" y="46.04" width="13.11" height="13.11" style="fill:white;"/>
                </g>
                <g transform="matrix(-1,-7.65714e-16,7.65714e-16,-1,1035.53,105.19)">
                    <rect x="511.21" y="46.04" width="13.11" height="13.11" style="fill:white;"/>
                </g>
                <g transform="matrix(-1,-7.65714e-16,7.65714e-16,-1,1061.75,105.19)">
                    <rect x="524.32" y="46.04" width="13.11" height="13.11" style="fill:white;"/>
                </g>
                <g transform="matrix(-1,-7.65714e-16,7.65714e-16,-1,1061.75,78.97)">
                    <rect x="524.32" y="32.93" width="13.11" height="13.11" style="fill:white;"/>
                </g>
                <g transform="matrix(-1,-7.65714e-16,7.65714e-16,-1,1087.97,78.97)">
                    <rect x="537.43" y="32.93" width="13.11" height="13.11" style="fill:white;"/>
                </g>
                <g transform="matrix(-1,-7.65714e-16,7.65714e-16,-1,1114.2,78.97)">
                    <rect x="550.54" y="32.93" width="13.11" height="13.11" style="fill:white;"/>
                </g>
                <g transform="matrix(-1,-7.65714e-16,7.65714e-16,-1,1009.31,78.97)">
                    <rect x="498.1" y="32.93" width="13.11" height="13.11" style="fill:white;"/>
                </g>
                <g transform="matrix(-1,-7.65714e-16,7.65714e-16,-1,1035.53,78.97)">
                    <rect x="511.21" y="32.93" width="13.11" height="13.11" style="fill:white;"/>
                </g>
                <g transform="matrix(-1,-7.65714e-16,7.65714e-16,-1,1061.75,78.97)">
                    <rect x="524.32" y="32.93" width="13.11" height="13.11" style="fill:white;"/>
                </g>
                <g transform="matrix(-1,-7.65714e-16,7.65714e-16,-1,1087.97,52.75)">
                    <rect x="537.43" y="19.82" width="13.11" height="13.11" style="fill:white;"/>
                </g>
                <g transform="matrix(-1,-7.65714e-16,7.65714e-16,-1,1035.53,52.75)">
                    <rect x="511.21" y="19.82" width="13.11" height="13.11" style="fill:white;"/>
                </g>
            </g>
            <g opacity="0.3">
                <rect x="934.49" y="304.81" width="24.35" height="24.35" style="fill:white;"/>
                <rect x="910.14" y="304.81" width="24.35" height="24.35" style="fill:white;"/>
                <rect x="958.83" y="329.16" width="24.35" height="24.35" style="fill:white;"/>
                <rect x="934.49" y="329.16" width="24.35" height="24.35" style="fill:white;"/>
                <rect x="910.14" y="329.16" width="24.35" height="24.35" style="fill:white;"/>
                <rect x="910.14" y="353.5" width="24.35" height="24.35" style="fill:white;"/>
            </g>
            <g opacity="0.3">
                <g transform="matrix(-1,-7.65714e-16,7.65714e-16,-1,1747.06,731.54)">
                    <rect x="861.36" y="353.6" width="24.35" height="24.35" style="fill:white;"/>
                </g>
                <g transform="matrix(-1,-7.65714e-16,7.65714e-16,-1,1795.75,731.54)">
                    <rect x="885.7" y="353.6" width="24.35" height="24.35" style="fill:white;"/>
                </g>
                <g transform="matrix(-1,-7.65714e-16,7.65714e-16,-1,1698.36,682.85)">
                    <rect x="837.01" y="329.25" width="24.35" height="24.35" style="fill:white;"/>
                </g>
                <g transform="matrix(-1,-7.65714e-16,7.65714e-16,-1,1747.06,682.85)">
                    <rect x="861.36" y="329.25" width="24.35" height="24.35" style="fill:white;"/>
                </g>
                <g transform="matrix(-1,-7.65714e-16,7.65714e-16,-1,1795.75,682.85)">
                    <rect x="885.7" y="329.25" width="24.35" height="24.35" style="fill:white;"/>
                </g>
                <g transform="matrix(-1,-7.65714e-16,7.65714e-16,-1,1795.75,634.15)">
                    <rect x="885.7" y="304.9" width="24.35" height="24.35" style="fill:white;"/>
                </g>
            </g>
            <g opacity="0.3">
                <rect x="84.68" y="320.56" width="16.94" height="16.94" style="fill:white;"/>
                <rect x="135.51" y="320.56" width="16.94" height="16.94" style="fill:white;"/>
                <rect x="118.57" y="320.56" width="16.94" height="16.94" style="fill:white;"/>
                <rect x="84.68" y="337.51" width="16.94" height="16.94" style="fill:white;"/>
                <rect x="67.74" y="337.51" width="16.94" height="16.94" style="fill:white;"/>
                <rect x="152.46" y="337.51" width="16.94" height="16.94" style="fill:white;"/>
                <rect x="135.51" y="337.51" width="16.94" height="16.94" style="fill:white;"/>
                <rect x="118.57" y="337.51" width="16.94" height="16.94" style="fill:white;"/>
                <rect x="101.62" y="337.51" width="16.94" height="16.94" style="fill:white;"/>
                <rect x="101.62" y="354.45" width="16.94" height="16.94" style="fill:white;"/>
                <rect x="84.68" y="354.45" width="16.94" height="16.94" style="fill:white;"/>
                <rect x="67.74" y="354.45" width="16.94" height="16.94" style="fill:white;"/>
                <rect x="152.46" y="354.45" width="16.94" height="16.94" style="fill:white;"/>
                <rect x="135.51" y="354.45" width="16.94" height="16.94" style="fill:white;"/>
                <rect x="118.57" y="354.45" width="16.94" height="16.94" style="fill:white;"/>
                <rect x="101.62" y="354.45" width="16.94" height="16.94" style="fill:white;"/>
                <rect x="101.62" y="371.4" width="16.94" height="16.94" style="fill:white;"/>
                <rect x="84.68" y="371.4" width="16.94" height="16.94" style="fill:white;"/>
                <rect x="135.51" y="371.4" width="16.94" height="16.94" style="fill:white;"/>
                <rect x="118.57" y="371.4" width="16.94" height="16.94" style="fill:white;"/>
                <rect x="101.62" y="371.4" width="16.94" height="16.94" style="fill:white;"/>
            </g>
            <g opacity="0.3">
                <g transform="matrix(-1,-7.65714e-16,7.65714e-16,-1,976.72,750.9)">
                    <rect x="481.82" y="368.91" width="13.07" height="13.07" style="fill:white;"/>
                </g>
                <g transform="matrix(-1,-7.65714e-16,7.65714e-16,-1,1002.86,750.9)">
                    <rect x="494.89" y="368.91" width="13.07" height="13.07" style="fill:white;"/>
                </g>
                <g transform="matrix(-1,-7.65714e-16,7.65714e-16,-1,1055.16,724.75)">
                    <rect x="521.04" y="355.84" width="13.07" height="13.07" style="fill:white;"/>
                </g>
                <g transform="matrix(-1,-7.65714e-16,7.65714e-16,-1,950.57,724.75)">
                    <rect x="468.75" y="355.84" width="13.07" height="13.07" style="fill:white;"/>
                </g>
                <g transform="matrix(-1,-7.65714e-16,7.65714e-16,-1,976.72,724.75)">
                    <rect x="481.82" y="355.84" width="13.07" height="13.07" style="fill:white;"/>
                </g>
                <g transform="matrix(-1,-7.65714e-16,7.65714e-16,-1,1002.86,724.75)">
                    <rect x="494.89" y="355.84" width="13.07" height="13.07" style="fill:white;"/>
                </g>
                <g transform="matrix(-1,-7.65714e-16,7.65714e-16,-1,1029.01,724.75)">
                    <rect x="507.97" y="355.84" width="13.07" height="13.07" style="fill:white;"/>
                </g>
                <g transform="matrix(-1,-7.65714e-16,7.65714e-16,-1,1029.01,698.61)">
                    <rect x="507.97" y="342.77" width="13.07" height="13.07" style="fill:white;"/>
                </g>
                <g transform="matrix(-1,-7.65714e-16,7.65714e-16,-1,1055.16,698.61)">
                    <rect x="521.04" y="342.77" width="13.07" height="13.07" style="fill:white;"/>
                </g>
                <g transform="matrix(-1,-7.65714e-16,7.65714e-16,-1,1081.31,698.61)">
                    <rect x="534.12" y="342.77" width="13.07" height="13.07" style="fill:white;"/>
                </g>
                <g transform="matrix(-1,-7.65714e-16,7.65714e-16,-1,976.72,698.61)">
                    <rect x="481.82" y="342.77" width="13.07" height="13.07" style="fill:white;"/>
                </g>
                <g transform="matrix(-1,-7.65714e-16,7.65714e-16,-1,1002.86,698.61)">
                    <rect x="494.89" y="342.77" width="13.07" height="13.07" style="fill:white;"/>
                </g>
                <g transform="matrix(-1,-7.65714e-16,7.65714e-16,-1,1029.01,698.61)">
                    <rect x="507.97" y="342.77" width="13.07" height="13.07" style="fill:white;"/>
                </g>
                <g transform="matrix(-1,-7.65714e-16,7.65714e-16,-1,1055.16,672.46)">
                    <rect x="521.04" y="329.69" width="13.07" height="13.07" style="fill:white;"/>
                </g>
                <g transform="matrix(-1,-7.65714e-16,7.65714e-16,-1,1002.86,672.46)">
                    <rect x="494.89" y="329.69" width="13.07" height="13.07" style="fill:white;"/>
                </g>
            </g>
        </g>
    </g>
</svg>
