<?xml version="1.0" encoding="UTF-8" standalone="no"?>
<!DOCTYPE svg PUBLIC "-//W3C//DTD SVG 1.1//EN" "http://www.w3.org/Graphics/SVG/1.1/DTD/svg11.dtd">
<svg width="100%" height="100%" viewBox="0 0 228 73" version="1.1" xmlns="http://www.w3.org/2000/svg" xmlns:xlink="http://www.w3.org/1999/xlink" xml:space="preserve" xmlns:serif="http://www.serif.com/" style="fill-rule:evenodd;clip-rule:evenodd;stroke-linejoin:round;stroke-miterlimit:2;">
    <g transform="matrix(1,0,0,1,-194.371,-150.758)">
        <g transform="matrix(2.54564,0,0,2.54564,-465.037,-470.503)">
            <g transform="matrix(12,0,0,12,258.926,253.048)">
                <path d="M0.009,-0.157C0.009,0.01 0.095,0.125 0.219,0.125C0.397,0.125 0.599,-0.113 0.599,-0.15C0.599,-0.171 0.591,-0.175 0.585,-0.175C0.571,-0.175 0.397,0.086 0.257,0.086C0.161,0.086 0.124,-0.035 0.124,-0.127C0.124,-0.33 0.303,-0.692 0.434,-0.692C0.496,-0.692 0.515,-0.609 0.515,-0.552C0.515,-0.41 0.398,-0.265 0.398,-0.227C0.398,-0.217 0.406,-0.193 0.424,-0.193C0.48,-0.193 0.565,-0.427 0.565,-0.569C0.565,-0.682 0.511,-0.75 0.411,-0.75C0.181,-0.75 0.009,-0.393 0.009,-0.157Z" style="fill:white;fill-rule:nonzero;"/>
            </g>
            <g transform="matrix(12,0,0,12,265.562,253.048)">
                <path d="M-0.014,-0.081C-0.014,0 0.027,0.085 0.121,0.085C0.186,0.085 0.239,0.045 0.277,-0.01C0.367,-0.024 0.459,-0.112 0.459,-0.15C0.459,-0.161 0.456,-0.175 0.445,-0.175C0.426,-0.175 0.372,-0.084 0.304,-0.059C0.325,-0.105 0.337,-0.157 0.337,-0.203C0.337,-0.301 0.285,-0.391 0.176,-0.391C0.071,-0.391 0.036,-0.309 0.035,-0.229C0.002,-0.192 -0.014,-0.13 -0.014,-0.081ZM0.188,-0.331C0.228,-0.331 0.282,-0.294 0.282,-0.208C0.282,-0.158 0.264,-0.103 0.238,-0.058C0.176,-0.081 0.125,-0.164 0.125,-0.21C0.125,-0.223 0.12,-0.331 0.188,-0.331ZM0.093,-0.121C0.1,-0.088 0.146,-0.034 0.208,-0.015C0.184,0.014 0.158,0.033 0.136,0.033C0.101,0.033 0.083,-0.012 0.083,-0.059C0.083,-0.079 0.083,-0.1 0.093,-0.121Z" style="fill:white;fill-rule:nonzero;"/>
            </g>
            <g transform="matrix(12,0,0,12,270.638,253.048)">
                <path d="M-0.017,-0.08C-0.017,-0.033 -0.024,0.016 0.037,0.016C0.065,0.016 0.088,-0.013 0.1,-0.035C0.131,-0.091 0.165,-0.175 0.213,-0.22C0.207,-0.164 0.175,-0.098 0.175,-0.035C0.175,0.012 0.193,0.108 0.253,0.108C0.303,0.108 0.446,-0.117 0.446,-0.151C0.446,-0.166 0.438,-0.175 0.432,-0.175C0.413,-0.175 0.302,0.043 0.273,0.05C0.257,-0 0.324,-0.168 0.324,-0.259C0.324,-0.303 0.292,-0.326 0.267,-0.326C0.208,-0.326 0.145,-0.191 0.099,-0.125C0.113,-0.18 0.173,-0.301 0.173,-0.345C0.173,-0.368 0.157,-0.402 0.128,-0.402C0.054,-0.402 -0.017,-0.142 -0.017,-0.08Z" style="fill:white;fill-rule:nonzero;"/>
            </g>
            <g transform="matrix(12,0,0,12,275.438,253.048)">
                <path d="M-0.012,-0.068C-0.012,-0.033 0.012,0.037 0.055,0.037C0.073,0.037 0.083,-0.038 0.087,-0.052C0.101,-0.106 0.203,-0.259 0.239,-0.276C0.21,-0.159 0.149,-0.052 0.149,0.071C0.149,0.121 0.177,0.187 0.242,0.187C0.326,0.187 0.506,-0.124 0.506,-0.15C0.506,-0.163 0.5,-0.175 0.492,-0.175C0.472,-0.175 0.316,0.128 0.248,0.128C0.244,0.128 0.241,0.127 0.238,0.125L0.238,0.117C0.238,0.041 0.346,-0.126 0.346,-0.227C0.346,-0.283 0.321,-0.339 0.257,-0.339C0.223,-0.339 0.161,-0.256 0.141,-0.232C0.183,-0.347 0.252,-0.492 0.306,-0.602C0.31,-0.611 0.323,-0.633 0.323,-0.643C0.323,-0.668 0.29,-0.682 0.269,-0.682C0.205,-0.682 0.046,-0.299 0.026,-0.24C0.009,-0.19 -0.012,-0.121 -0.012,-0.068Z" style="fill:white;fill-rule:nonzero;"/>
            </g>
            <g transform="matrix(12,0,0,12,280.958,253.048)">
                <path d="M0.148,0.1C0.271,0.1 0.406,-0.123 0.406,-0.15C0.406,-0.157 0.403,-0.175 0.392,-0.175C0.376,-0.175 0.276,0.061 0.155,0.061C0.122,0.061 0.105,0.005 0.105,-0.043C0.105,-0.063 0.108,-0.09 0.114,-0.118C0.182,-0.12 0.304,-0.165 0.304,-0.25C0.304,-0.287 0.281,-0.35 0.199,-0.35C0.064,-0.35 -0.002,-0.182 -0.002,-0.073C-0.002,0.008 0.034,0.1 0.148,0.1ZM0.123,-0.158C0.142,-0.23 0.175,-0.3 0.219,-0.3C0.25,-0.3 0.255,-0.264 0.255,-0.251C0.255,-0.204 0.188,-0.162 0.123,-0.158Z" style="fill:white;fill-rule:nonzero;"/>
            </g>
            <g transform="matrix(12,0,0,12,285.278,253.048)">
                <path d="M0.111,0.102C0.109,0.105 0.107,0.108 0.105,0.111C0.092,0.134 0.062,0.179 0.062,0.204C0.062,0.216 0.073,0.219 0.088,0.219C0.105,0.219 0.127,0.215 0.142,0.215C0.172,0.215 0.169,0.24 0.169,0.251C0.169,0.28 0.148,0.322 0.121,0.322C0.092,0.322 0.094,0.27 0.078,0.27C0.065,0.27 0.06,0.28 0.06,0.3C0.06,0.333 0.092,0.358 0.131,0.358C0.189,0.358 0.228,0.304 0.228,0.252C0.228,0.189 0.172,0.178 0.136,0.177C0.137,0.169 0.184,0.121 0.188,0.107C0.285,0.082 0.406,-0.124 0.406,-0.15C0.406,-0.16 0.402,-0.175 0.392,-0.175C0.37,-0.175 0.285,0.061 0.164,0.061C0.131,0.061 0.118,-0.014 0.118,-0.059C0.118,-0.151 0.174,-0.409 0.258,-0.409C0.29,-0.409 0.301,-0.372 0.301,-0.344C0.301,-0.267 0.221,-0.217 0.221,-0.203C0.221,-0.188 0.231,-0.181 0.245,-0.181C0.29,-0.181 0.339,-0.298 0.339,-0.363C0.339,-0.43 0.286,-0.471 0.226,-0.471C0.076,-0.471 -0.002,-0.213 -0.002,-0.084C-0.002,-0.004 0.028,0.077 0.111,0.102L0.111,0.102Z" style="fill:white;fill-rule:nonzero;"/>
            </g>
            <g transform="matrix(12,0,0,12,289.598,253.048)">
                <path d="M-0.003,-0.127C-0.003,-0.064 0.036,-0.041 0.065,-0.041C0.128,-0.041 0.2,-0.153 0.216,-0.175C0.21,-0.155 0.156,0.002 0.156,0.056C0.156,0.09 0.177,0.17 0.259,0.17C0.344,0.17 0.506,-0.14 0.506,-0.15C0.506,-0.164 0.499,-0.175 0.492,-0.175C0.478,-0.175 0.315,0.12 0.264,0.125C0.259,0.117 0.256,0.101 0.256,0.088C0.256,-0.044 0.401,-0.285 0.401,-0.325C0.401,-0.368 0.375,-0.391 0.333,-0.391C0.322,-0.391 0.299,-0.362 0.29,-0.354C0.282,-0.404 0.251,-0.427 0.218,-0.427C0.089,-0.427 -0.003,-0.235 -0.003,-0.127ZM0.091,-0.109C0.096,-0.179 0.179,-0.349 0.253,-0.349C0.259,-0.349 0.26,-0.332 0.26,-0.326C0.26,-0.264 0.159,-0.12 0.091,-0.109Z" style="fill:white;fill-rule:nonzero;"/>
            </g>
            <g transform="matrix(12,0,0,12,298.31,253.048)">
                <path d="M-0.014,-0.081C-0.014,0 0.027,0.085 0.121,0.085C0.186,0.085 0.239,0.045 0.277,-0.01C0.367,-0.024 0.459,-0.112 0.459,-0.15C0.459,-0.161 0.456,-0.175 0.445,-0.175C0.426,-0.175 0.372,-0.084 0.304,-0.059C0.325,-0.105 0.337,-0.157 0.337,-0.203C0.337,-0.301 0.285,-0.391 0.176,-0.391C0.071,-0.391 0.036,-0.309 0.035,-0.229C0.002,-0.192 -0.014,-0.13 -0.014,-0.081ZM0.188,-0.331C0.228,-0.331 0.282,-0.294 0.282,-0.208C0.282,-0.158 0.264,-0.103 0.238,-0.058C0.176,-0.081 0.125,-0.164 0.125,-0.21C0.125,-0.223 0.12,-0.331 0.188,-0.331ZM0.093,-0.121C0.1,-0.088 0.146,-0.034 0.208,-0.015C0.184,0.014 0.158,0.033 0.136,0.033C0.101,0.033 0.083,-0.012 0.083,-0.059C0.083,-0.079 0.083,-0.1 0.093,-0.121Z" style="fill:white;fill-rule:nonzero;"/>
            </g>
        </g>
        <g transform="matrix(4.20038,0,0,4.20038,-893.192,-840.913)">
            <g transform="matrix(12,0,0,12,258.926,253.048)">
                <path d="M0.136,-0L0.136,-0.746L0.007,-0.746L0.007,-0.879L0.44,-0.879L0.44,-0.746L0.313,-0.746L0.313,-0L0.136,-0Z" style="fill:white;fill-rule:nonzero;"/>
            </g>
            <g transform="matrix(12,0,0,12,264.182,253.048)">
                <path d="M0.041,-0.289L0.041,-0.584C0.041,-0.792 0.127,-0.896 0.298,-0.896C0.469,-0.896 0.555,-0.792 0.555,-0.584L0.555,-0.293C0.555,-0.258 0.553,-0.226 0.547,-0.196C0.542,-0.166 0.533,-0.138 0.521,-0.111C0.508,-0.085 0.492,-0.062 0.473,-0.043C0.454,-0.024 0.429,-0.01 0.399,0.001C0.37,0.012 0.336,0.017 0.298,0.017C0.26,0.017 0.226,0.012 0.197,0.001C0.167,-0.009 0.143,-0.024 0.124,-0.042C0.104,-0.06 0.088,-0.082 0.076,-0.108C0.063,-0.134 0.054,-0.162 0.049,-0.192C0.044,-0.222 0.041,-0.254 0.041,-0.289ZM0.377,-0.249L0.377,-0.629C0.377,-0.715 0.351,-0.759 0.298,-0.759C0.282,-0.759 0.268,-0.755 0.257,-0.747C0.246,-0.739 0.238,-0.728 0.233,-0.714C0.228,-0.7 0.224,-0.687 0.222,-0.673C0.22,-0.66 0.219,-0.645 0.219,-0.629L0.219,-0.249C0.219,-0.163 0.245,-0.12 0.298,-0.12C0.351,-0.12 0.377,-0.163 0.377,-0.249Z" style="fill:white;fill-rule:nonzero;"/>
            </g>
            <g transform="matrix(12,0,0,12,271.336,253.048)">
                <path d="M0.041,-0.293L0.041,-0.584C0.041,-0.792 0.126,-0.896 0.296,-0.896C0.332,-0.896 0.364,-0.891 0.391,-0.882C0.419,-0.872 0.443,-0.859 0.461,-0.842C0.48,-0.825 0.496,-0.804 0.508,-0.779C0.52,-0.755 0.529,-0.728 0.534,-0.699C0.54,-0.67 0.542,-0.638 0.542,-0.603L0.542,-0.527L0.368,-0.527L0.368,-0.608C0.368,-0.624 0.367,-0.638 0.367,-0.65C0.366,-0.661 0.364,-0.674 0.362,-0.689C0.359,-0.704 0.355,-0.716 0.35,-0.725C0.346,-0.735 0.339,-0.743 0.329,-0.749C0.32,-0.756 0.309,-0.759 0.296,-0.759C0.244,-0.759 0.219,-0.715 0.219,-0.629L0.219,-0.25C0.219,-0.163 0.244,-0.12 0.296,-0.12C0.311,-0.12 0.324,-0.125 0.334,-0.133C0.345,-0.142 0.352,-0.155 0.357,-0.171C0.361,-0.187 0.365,-0.203 0.366,-0.218C0.368,-0.233 0.369,-0.251 0.369,-0.271L0.369,-0.361L0.542,-0.361L0.542,-0.287C0.542,-0.254 0.539,-0.223 0.534,-0.194C0.529,-0.166 0.521,-0.139 0.509,-0.112C0.498,-0.085 0.483,-0.063 0.465,-0.044C0.447,-0.026 0.423,-0.011 0.395,0C0.366,0.011 0.333,0.017 0.296,0.017C0.258,0.017 0.224,0.012 0.195,0.001C0.165,-0.01 0.141,-0.025 0.122,-0.043C0.103,-0.062 0.087,-0.084 0.075,-0.111C0.062,-0.138 0.054,-0.166 0.049,-0.196C0.044,-0.225 0.041,-0.258 0.041,-0.293Z" style="fill:white;fill-rule:nonzero;"/>
            </g>
            <g transform="matrix(12,0,0,12,278.215,253.048)">
                <path d="M0.227,-0.297L0.318,-0.297L0.273,-0.624L0.227,-0.297ZM0.004,-0L0.194,-0.879L0.352,-0.879L0.541,-0L0.366,-0L0.33,-0.188L0.215,-0.188L0.181,-0L0.004,-0Z" style="fill:white;fill-rule:nonzero;"/>
            </g>
            <g transform="matrix(12,0,0,12,284.76,253.048)">
                <path d="M0.052,-0L0.052,-0.879L0.18,-0.879L0.373,-0.419L0.373,-0.879L0.521,-0.879L0.521,-0L0.397,-0L0.205,-0.488L0.205,-0L0.052,-0Z" style="fill:white;fill-rule:nonzero;"/>
            </g>
            <g transform="matrix(12,0,0,12,291.633,253.048)">
                <path d="M0.136,-0L0.136,-0.746L0.007,-0.746L0.007,-0.879L0.44,-0.879L0.44,-0.746L0.313,-0.746L0.313,-0L0.136,-0Z" style="fill:white;fill-rule:nonzero;"/>
            </g>
            <g transform="matrix(12,0,0,12,296.994,253.048)">
                <rect x="0.052" y="-0.879" width="0.178" height="0.879" style="fill:white;fill-rule:nonzero;"/>
            </g>
            <g transform="matrix(12,0,0,12,300.381,253.048)">
                <path d="M0.052,-0L0.052,-0.879L0.18,-0.879L0.373,-0.419L0.373,-0.879L0.521,-0.879L0.521,-0L0.397,-0L0.205,-0.488L0.205,-0L0.052,-0Z" style="fill:white;fill-rule:nonzero;"/>
            </g>
            <g transform="matrix(12,0,0,12,307.254,253.048)">
                <path d="M0.022,-0.251L0.202,-0.286C0.202,-0.268 0.202,-0.252 0.203,-0.239C0.204,-0.225 0.205,-0.21 0.208,-0.194C0.211,-0.178 0.215,-0.165 0.219,-0.155C0.224,-0.144 0.231,-0.136 0.24,-0.129C0.248,-0.122 0.258,-0.118 0.27,-0.118C0.305,-0.118 0.323,-0.141 0.323,-0.186C0.323,-0.247 0.288,-0.308 0.219,-0.369L0.164,-0.416C0.146,-0.431 0.132,-0.443 0.122,-0.453C0.111,-0.462 0.099,-0.476 0.085,-0.492C0.071,-0.509 0.059,-0.525 0.052,-0.54C0.044,-0.556 0.037,-0.574 0.031,-0.596C0.025,-0.618 0.022,-0.641 0.022,-0.666C0.022,-0.737 0.045,-0.793 0.09,-0.835C0.136,-0.876 0.196,-0.897 0.271,-0.897C0.333,-0.897 0.386,-0.875 0.429,-0.831C0.473,-0.786 0.495,-0.733 0.495,-0.67L0.494,-0.664L0.494,-0.649L0.311,-0.624L0.312,-0.66C0.312,-0.671 0.311,-0.683 0.31,-0.693C0.308,-0.704 0.305,-0.715 0.302,-0.726C0.298,-0.736 0.292,-0.745 0.284,-0.751C0.276,-0.758 0.267,-0.761 0.256,-0.761C0.236,-0.761 0.222,-0.753 0.212,-0.738C0.202,-0.722 0.197,-0.704 0.197,-0.684C0.197,-0.665 0.2,-0.648 0.206,-0.632C0.212,-0.616 0.22,-0.601 0.232,-0.588C0.243,-0.574 0.254,-0.562 0.264,-0.553C0.273,-0.544 0.286,-0.533 0.303,-0.52C0.319,-0.507 0.331,-0.497 0.337,-0.491C0.362,-0.469 0.384,-0.448 0.401,-0.428C0.418,-0.409 0.434,-0.387 0.45,-0.363C0.465,-0.338 0.476,-0.312 0.484,-0.284C0.492,-0.255 0.496,-0.225 0.496,-0.192C0.496,-0.13 0.474,-0.08 0.43,-0.041C0.386,-0.002 0.332,0.018 0.27,0.018C0.229,0.018 0.193,0.011 0.161,-0.004C0.13,-0.019 0.104,-0.04 0.085,-0.065C0.065,-0.091 0.05,-0.12 0.04,-0.151C0.03,-0.182 0.024,-0.216 0.022,-0.251Z" style="fill:white;fill-rule:nonzero;"/>
            </g>
        </g>
    </g>
</svg>
