<?xml version="1.0" encoding="UTF-8" standalone="no"?>
<!DOCTYPE svg PUBLIC "-//W3C//DTD SVG 1.1//EN" "http://www.w3.org/Graphics/SVG/1.1/DTD/svg11.dtd">
<svg width="100%" height="100%" viewBox="0 0 91 53" version="1.1" xmlns="http://www.w3.org/2000/svg" xmlns:xlink="http://www.w3.org/1999/xlink" xml:space="preserve" xmlns:serif="http://www.serif.com/" style="fill-rule:evenodd;clip-rule:evenodd;stroke-linejoin:round;stroke-miterlimit:2;">
    <g transform="matrix(1,0,0,1,-4.912,-23.932)">
        <g>
            <path d="M16.754,58.341L23.351,62.739L23.273,62.784L25.371,64.086L26.129,64.592L26.158,64.575L40.277,73.334C43.219,75.159 46.578,76.07 49.936,76.07C53.376,76.07 56.816,75.113 59.805,73.204L83.189,58.263L84.766,60.51L95.087,53.265L74.499,23.932L64.178,31.177L67.35,35.696L52.744,35.696L49.831,38.937L45.065,35.696L32.65,35.696L35.822,31.177L25.501,23.932L4.912,53.263L15.233,60.508L16.754,58.341ZM73.767,28.11L90.909,52.531L85.498,56.329L68.356,31.908L73.767,28.11ZM54.081,38.695L69.455,38.695L81.464,55.803L58.19,70.674C53.251,73.83 46.841,73.874 41.859,70.783L29.092,62.863L34.744,59.566L45.437,53.328L47.717,54.545C53.684,57.727 60.904,56.652 65.686,51.871L66.968,50.589L52.335,40.639L54.081,38.695ZM44.142,38.695L62.169,50.953C58.405,53.743 53.372,54.16 49.129,51.897L45.371,49.893L26.236,61.056L18.507,55.903L18.607,55.702L30.545,38.695L44.142,38.695ZM9.091,52.531L26.233,28.11L31.644,31.908L14.502,56.329L9.091,52.531Z" style="fill:white;fill-rule:nonzero;"/>
        </g>
    </g>
</svg>
