<?xml version="1.0" encoding="UTF-8" standalone="no"?>
<!DOCTYPE svg PUBLIC "-//W3C//DTD SVG 1.1//EN" "http://www.w3.org/Graphics/SVG/1.1/DTD/svg11.dtd">
<svg width="100%" height="100%" viewBox="0 0 79 99" version="1.1" xmlns="http://www.w3.org/2000/svg" xmlns:xlink="http://www.w3.org/1999/xlink" xml:space="preserve" xmlns:serif="http://www.serif.com/" style="fill-rule:evenodd;clip-rule:evenodd;stroke-linejoin:round;stroke-miterlimit:2;">
    <g transform="matrix(1,0,0,1,-10.52,-1)">
        <path d="M71.08,25.51C71.08,26.881 72.209,28.01 73.58,28.01L79.18,28.01C80.551,28.01 81.68,26.881 81.68,25.51C81.68,24.139 80.551,23.01 79.18,23.01L73.58,23.01C72.209,23.01 71.08,24.139 71.08,25.51Z" style="fill:rgb(43,71,139);fill-rule:nonzero;"/>
        <path d="M32.66,25.51C32.66,26.881 33.789,28.01 35.16,28.01L40.76,28.01C42.131,28.01 43.26,26.881 43.26,25.51C43.26,24.139 42.131,23.01 40.76,23.01L35.16,23.01C33.789,23.01 32.66,24.139 32.66,25.51Z" style="fill:rgb(43,71,139);fill-rule:nonzero;"/>
        <path d="M59.67,9.1L59.67,3.5C59.67,2.129 58.541,1 57.17,1C55.799,1 54.67,2.129 54.67,3.5L54.67,9.1C54.67,10.471 55.799,11.6 57.17,11.6C58.541,11.6 59.67,10.471 59.67,9.1Z" style="fill:rgb(43,71,139);fill-rule:nonzero;"/>
        <path d="M71,8.18L67,12.18C66.531,12.649 66.267,13.286 66.267,13.95C66.267,15.323 67.397,16.453 68.77,16.453C69.434,16.453 70.071,16.189 70.54,15.72L74.54,11.72C75.009,11.251 75.273,10.614 75.273,9.95C75.273,8.577 74.143,7.447 72.77,7.447C72.106,7.447 71.469,7.711 71,8.18Z" style="fill:rgb(43,71,139);fill-rule:nonzero;"/>
        <path d="M45.57,16.41L45.574,16.41C46.946,16.41 48.074,15.281 48.074,13.91C48.074,13.246 47.81,12.609 47.34,12.14L43.34,8.14C42.871,7.671 42.234,7.407 41.57,7.407C40.197,7.407 39.067,8.537 39.067,9.91C39.067,10.574 39.331,11.211 39.8,11.68L43.8,15.68C44.269,16.149 44.907,16.412 45.57,16.41Z" style="fill:rgb(43,71,139);fill-rule:nonzero;"/>
        <path d="M15.52,45.24C12.777,45.24 10.52,47.497 10.52,50.24L10.52,94C10.52,96.743 12.777,99 15.52,99L30,99C32.616,99.006 34.817,96.959 35,94.35L38.1,96.21C41.051,97.981 44.428,98.918 47.87,98.92L69,98.92C71.556,98.947 74.089,98.443 76.44,97.44C83.19,94.44 84.25,89.17 83.75,85.67C87.292,82.696 88.596,77.791 87,73.45C88.673,71.426 89.561,68.865 89.5,66.24C89.391,64.183 88.678,62.204 87.45,60.55C89.019,56.937 88.093,52.699 85.16,50.07C84.953,49.877 84.737,49.693 84.51,49.52C83.373,48.674 82.061,48.093 80.67,47.82L80.56,47.82C73.93,46.41 69.47,46.32 62.91,46.32C62.66,44.81 62.67,41.64 64.65,35.67C66.48,30.14 66.32,25.57 64.17,22.08C62.376,19.257 59.417,17.372 56.1,16.94L55.79,16.94C53.438,16.899 51.329,18.431 50.64,20.68C50.605,20.798 50.578,20.918 50.56,21.04L49.81,26.44C49.584,28.062 49.112,29.64 48.41,31.12L41.12,46.43C40.014,48.99 37.729,50.857 35,51.43L35,50.24C35,47.497 32.743,45.24 30,45.24L15.52,45.24ZM15.52,94L15.52,50.24L30,50.24L30,94L15.52,94ZM35.52,56.46C40.017,55.671 43.822,52.657 45.62,48.46L52.85,33.19C53.769,31.249 54.386,29.178 54.68,27.05L55.45,22C55.486,21.965 55.531,21.941 55.58,21.93C57.343,22.209 58.909,23.219 59.89,24.71C61.21,26.85 61.21,30.1 59.89,34.1C57.95,39.94 57.35,44.55 58.09,47.81C58.558,49.873 60.415,51.345 62.53,51.33C69.14,51.33 73.22,51.39 79.53,52.72L79.63,52.72C80.297,52.841 80.928,53.107 81.48,53.5L81.8,53.77C84.36,56.08 82.74,59.04 82.4,59.59C81.742,60.619 81.93,61.986 82.84,62.8C83.813,63.785 84.411,65.08 84.53,66.46C84.471,68.32 83.658,70.079 82.28,71.33C81.513,72.141 81.378,73.372 81.95,74.33C82.06,74.52 84.63,78.99 79.54,82.73C78.668,83.386 78.312,84.535 78.66,85.57C78.93,86.37 79.99,90.47 74.5,92.88C72.76,93.607 70.886,93.962 69,93.92L47.83,93.92C45.297,93.916 42.811,93.225 40.64,91.92L35,88.54L35,56.54L35.52,56.46Z" style="fill:rgb(43,71,139);fill-rule:nonzero;"/>
        <circle cx="22.76" cy="86.22" r="3.05" style="fill:rgb(43,71,139);"/>
    </g>
</svg>
