<?xml version="1.0" encoding="UTF-8" standalone="no"?>
<!DOCTYPE svg PUBLIC "-//W3C//DTD SVG 1.1//EN" "http://www.w3.org/Graphics/SVG/1.1/DTD/svg11.dtd">
<svg width="100%" height="100%" viewBox="0 0 90 90" version="1.1" xmlns="http://www.w3.org/2000/svg" xmlns:xlink="http://www.w3.org/1999/xlink" xml:space="preserve" xmlns:serif="http://www.serif.com/" style="fill-rule:evenodd;clip-rule:evenodd;stroke-linejoin:round;stroke-miterlimit:2;">
    <g transform="matrix(1,0,0,1,-5.00012,-5.00029)">
        <rect x="18.406" y="19.15" width="29.532" height="3.7" style="fill:rgb(43,71,139);"/>
        <rect x="18.406" y="32.004" width="29.532" height="3.7" style="fill:rgb(43,71,139);"/>
        <rect x="18.406" y="44.858" width="29.532" height="3.7" style="fill:rgb(43,71,139);"/>
        <rect x="18.406" y="57.712" width="29.532" height="3.7" style="fill:rgb(43,71,139);"/>
        <rect x="18.406" y="70.566" width="43.191" height="3.7" style="fill:rgb(43,71,139);"/>
        <path d="M75.202,30.202C75.135,30.202 75.069,30.212 75.002,30.212L75.002,21.5C75.002,20.837 74.738,20.201 74.27,19.733L60.27,5.733C59.801,5.264 59.165,5 58.502,5L7.5,5C6.129,5 5,6.129 5,7.5L5,92.5C5,93.871 6.129,95 7.5,95C8.182,95 8.835,94.72 9.307,94.227L12.917,90.451L16.528,94.227C17.525,95.208 19.146,95.208 20.143,94.227L23.751,90.451L27.361,94.227C28.358,95.207 29.979,95.207 30.975,94.227L34.585,90.451L38.193,94.227C38.665,94.72 39.318,95 40.001,95C40.683,95 41.336,94.72 41.808,94.227L45.418,90.451L49.028,94.227C50.025,95.208 51.646,95.208 52.643,94.227L56.251,90.451L59.861,94.227C60.333,94.72 60.986,95 61.668,95C62.35,95 63.003,94.72 63.475,94.227L67.086,90.451L70.694,94.227C71.166,94.72 71.819,95 72.502,95C73.873,95 75.002,93.871 75.002,92.5L75.002,69.788C75.069,69.789 75.135,69.798 75.202,69.798C86.05,69.779 94.966,60.848 94.966,50C94.966,39.152 86.05,30.221 75.202,30.202ZM70.002,86.266L68.894,85.106C68.422,84.613 67.769,84.333 67.087,84.333C66.404,84.333 65.751,84.613 65.279,85.106L61.668,88.882L58.058,85.106C57.586,84.613 56.933,84.333 56.251,84.333C55.568,84.333 54.915,84.613 54.443,85.106L50.835,88.882L47.225,85.106C46.229,84.126 44.608,84.126 43.611,85.106L40.001,88.882L36.393,85.106C35.921,84.613 35.268,84.333 34.586,84.333C33.903,84.333 33.25,84.613 32.778,85.106L29.168,88.882L25.558,85.106C24.561,84.126 22.94,84.126 21.943,85.106L18.335,88.882L14.724,85.106C13.728,84.125 12.106,84.125 11.11,85.106L10,86.267L10,10L57.351,10L57.351,22.649L70.002,22.649L70.002,30.919C61.413,33.247 55.406,41.102 55.406,50C55.406,58.899 61.413,66.753 70.002,69.082L70.002,86.266ZM75.86,47.964C81.62,49.82 82.829,52.724 82.829,54.832C82.829,57.839 80.576,60.226 77.337,60.95L77.337,63.866L73.059,63.866L73.059,60.901C69.893,60.081 67.577,57.533 67.577,54.521L71.854,54.521C71.854,55.79 73.44,56.902 75.247,56.902C76.849,56.902 78.552,56.177 78.552,54.832C78.552,53.918 76.979,52.82 74.546,52.036C68.785,50.177 67.577,47.275 67.577,45.167C67.577,42.163 69.825,39.778 73.059,39.052L73.059,36.134L77.337,36.134L77.337,39.096C80.508,39.913 82.829,42.463 82.829,45.479L78.552,45.479C78.552,44.21 76.966,43.097 75.158,43.097C73.557,43.097 71.854,43.823 71.854,45.167C71.854,46.082 73.426,47.179 75.86,47.964Z" style="fill:rgb(43,71,139);fill-rule:nonzero;"/>
    </g>
</svg>
