<?xml version="1.0" encoding="UTF-8" standalone="no"?>
<!DOCTYPE svg PUBLIC "-//W3C//DTD SVG 1.1//EN" "http://www.w3.org/Graphics/SVG/1.1/DTD/svg11.dtd">
<svg width="100%" height="100%" viewBox="0 0 98 65" version="1.1" xmlns="http://www.w3.org/2000/svg" xmlns:xlink="http://www.w3.org/1999/xlink" xml:space="preserve" xmlns:serif="http://www.serif.com/" style="fill-rule:evenodd;clip-rule:evenodd;stroke-linejoin:round;stroke-miterlimit:2;">
    <g transform="matrix(1,0,0,1,-1.4,-17.7)">
        <path d="M64.1,29.8L68.7,29.8C69.2,29.8 69.7,30.2 69.7,30.8L69.2,49.6C69.2,50.1 68.8,50.4 68.4,50.4L64.6,50.4C64.1,50.4 63.8,50 63.8,49.6L63.3,30.8C63.2,30.2 63.6,29.8 64.1,29.8ZM69.7,57C69.7,57.8 69.1,58.4 68.3,58.4L64.6,58.4C63.8,58.4 63.2,57.8 63.2,57L63.2,54.6C63.2,53.8 63.8,53.2 64.6,53.2L68.3,53.2C69.1,53.2 69.7,53.8 69.7,54.6L69.7,57ZM1.4,28.2C1.4,26 3.2,24.2 5.4,24.2L23,24.2C25.2,24.2 27,26 27,28.2C27,30.4 25.2,32.2 23,32.2L5.4,32.2C3.2,32.2 1.4,30.4 1.4,28.2ZM26.9,44.1C26.9,46.3 25.1,48.1 22.9,48.1L9.9,48.1C7.7,48.1 5.9,46.3 5.9,44.1C5.9,41.9 7.7,40.1 9.9,40.1L22.9,40.1C25.2,40.1 26.9,41.9 26.9,44.1ZM26.9,60C26.9,62.2 25.1,64 22.9,64L15,64C12.8,64 11,62.2 11,60C11,57.8 12.8,56 15,56L23,56C25.2,56 26.9,57.8 26.9,60Z" style="fill:rgb(43,71,139);fill-rule:nonzero;"/>
        <g transform="matrix(0.991712,0,0,0.860208,2.20638,17.7)">
            <path d="M97.3,9.904C97.3,4.438 93.451,0 88.709,0L41.072,0C36.331,0 32.481,4.438 32.481,9.904L32.481,51.452C32.481,56.918 36.331,61.356 41.072,61.356L50.184,61.356L50.357,75.072L67.555,61.356L88.709,61.356C93.451,61.356 97.3,56.918 97.3,51.452L97.3,9.904ZM92.258,9.904L92.258,51.452C92.258,53.71 90.668,55.543 88.709,55.543L65.981,55.543L55.261,64.093L55.154,55.543L41.072,55.543C39.113,55.543 37.523,53.71 37.523,51.452L37.523,9.904C37.523,7.646 39.113,5.813 41.072,5.813L88.709,5.813C90.668,5.813 92.258,7.646 92.258,9.904Z" style="fill:rgb(43,71,139);"/>
        </g>
    </g>
</svg>
