<?xml version="1.0" encoding="UTF-8" standalone="no"?>
<!DOCTYPE svg PUBLIC "-//W3C//DTD SVG 1.1//EN" "http://www.w3.org/Graphics/SVG/1.1/DTD/svg11.dtd">
<svg width="100%" height="100%" viewBox="0 0 91 84" version="1.1" xmlns="http://www.w3.org/2000/svg" xmlns:xlink="http://www.w3.org/1999/xlink" xml:space="preserve" xmlns:serif="http://www.serif.com/" style="fill-rule:evenodd;clip-rule:evenodd;stroke-linejoin:round;stroke-miterlimit:2;">
    <g transform="matrix(1,0,0,1,-5,-8.255)">
        <path d="M75.713,84.519L73.307,84.519L73.307,91.746L75.716,91.746C77.71,91.743 79.327,90.129 79.327,88.132C79.327,86.137 77.71,84.521 75.713,84.519Z" style="fill:rgb(43,71,139);fill-rule:nonzero;"/>
        <path d="M26.69,84.521L20.672,88.131L26.69,91.745L70.9,91.745L70.9,84.519L26.69,84.521Z" style="fill:rgb(43,71,139);fill-rule:nonzero;"/>
        <path d="M88.57,8.255L11.433,8.255C7.885,8.255 5,11.128 5,14.682L5,72.372C5,75.926 7.873,78.797 11.429,78.797L88.569,78.797C92.117,78.797 95.001,75.926 95.001,72.372L95.001,14.682C95,11.128 92.126,8.255 88.57,8.255ZM88.568,25.89L88.568,72.371L11.428,72.371L11.428,41.813L11.432,41.813L11.432,26.235L88.57,26.235L88.57,31.098L88.568,25.89Z" style="fill:rgb(43,71,139);fill-rule:nonzero;"/>
        <path d="M67.841,33.63C70.087,31.068 73.892,31.25 76.488,31.899C78.149,32.314 79.251,33.486 79.433,33.742C79.96,34.478 80.957,36.025 80.744,36.904C80.744,36.904 80.329,37.621 80.687,38.108C81.048,38.591 82.611,40.658 82.611,40.658C82.611,40.658 82.987,41.088 82.43,41.413C81.875,41.734 81.822,41.935 81.822,42.259C81.822,42.58 82.323,43.265 81.838,43.46C81.838,43.46 81.337,43.641 81.464,43.768C81.586,43.893 81.965,44.125 81.965,44.125C81.965,44.125 82.143,44.413 81.822,44.681C81.497,44.952 81.337,45.204 81.337,45.597C81.337,45.993 81.535,46.551 81.586,46.729C81.642,46.913 81.876,47.791 80.329,48.078C78.785,48.365 78.495,47.847 78.065,49.39C78.065,49.39 77.992,51.024 77.992,51.202L71.135,51.202L71.135,49.283C71.135,49.283 71.094,48.239 70.863,47.486L70.362,46.174C70.362,46.174 70.09,45.403 69.121,45.025C68.151,44.648 66.732,43.317 66.445,42.922C66.444,42.92 63.898,38.127 67.841,33.63Z" style="fill:rgb(43,71,139);fill-rule:nonzero;"/>
        <path d="M18.004,61.269L57.807,61.269C58.659,61.269 59.353,60.577 59.353,59.72C59.353,58.863 58.659,58.171 57.807,58.171L18.004,58.171C17.145,58.171 16.454,58.862 16.454,59.72C16.454,60.576 17.145,61.269 18.004,61.269Z" style="fill:rgb(43,71,139);fill-rule:nonzero;"/>
        <path d="M18.004,67.719L57.807,67.719C58.659,67.719 59.353,67.028 59.353,66.173C59.353,65.313 58.659,64.621 57.807,64.621L18.004,64.621C17.145,64.621 16.454,65.312 16.454,66.173C16.454,67.027 17.145,67.719 18.004,67.719Z" style="fill:rgb(43,71,139);fill-rule:nonzero;"/>
        <rect x="16.454" y="31.794" width="42.898" height="13.48" style="fill:rgb(43,71,139);"/>
        <path d="M18.004,54.82L57.807,54.82C58.659,54.82 59.353,54.126 59.353,53.269C59.353,52.412 58.659,51.722 57.807,51.722L18.004,51.722C17.145,51.722 16.454,52.411 16.454,53.269C16.454,54.126 17.145,54.82 18.004,54.82Z" style="fill:rgb(43,71,139);fill-rule:nonzero;"/>
        <path d="M66.088,67.719L82,67.719C82.853,67.719 83.547,67.025 83.547,66.17C83.547,65.311 82.853,64.621 82,64.621L66.088,64.621C65.229,64.621 64.536,65.31 64.536,66.17C64.536,67.024 65.229,67.719 66.088,67.719Z" style="fill:rgb(43,71,139);fill-rule:nonzero;"/>
        <path d="M66.088,61.269L82,61.269C82.853,61.269 83.547,60.577 83.547,59.72C83.547,58.863 82.853,58.171 82,58.171L66.088,58.171C65.229,58.171 64.536,58.862 64.536,59.72C64.536,60.576 65.229,61.269 66.088,61.269Z" style="fill:rgb(43,71,139);fill-rule:nonzero;"/>
    </g>
</svg>
